<?xml version="1.0" encoding="utf-8"?>
<!-- Generator: Adobe Illustrator 23.0.1, SVG Export Plug-In . SVG Version: 6.00 Build 0)  -->
<svg version="1.1" id="Layer_1" xmlns="http://www.w3.org/2000/svg" xmlns:xlink="http://www.w3.org/1999/xlink" x="0px" y="0px"
	 width="300px" height="300px" viewBox="0 0 300 300" style="enable-background:new 0 0 300 300;" xml:space="preserve">
<style type="text/css">
	.st0{fill-rule:evenodd;clip-rule:evenodd;fill:#EE2737;}
</style>
<g>
	<g>
		<path class="st0" d="M205.2,188.6l62.2,62.2c4.8,4.8,4.9,12.7,0,17.6s-12.8,4.8-17.6,0l-62.2-62.2c-39.1,30.4-95.5,27.6-131.4-8.3
			C17.3,159.1,17.3,96,56.1,57.2s101.9-38.9,140.8,0C232.8,93.1,235.6,149.5,205.2,188.6L205.2,188.6z M179.3,180.3
			c29.2-29.2,29.2-76.4,0-105.6s-76.4-29.2-105.6,0s-29.2,76.4,0,105.6S150.2,209.5,179.3,180.3z"/>
	</g>
</g>
</svg>
