<?xml version="1.0" encoding="utf-8"?>
<!-- Generator: Adobe Illustrator 23.0.1, SVG Export Plug-In . SVG Version: 6.00 Build 0)  -->
<svg version="1.1" id="Layer_1" xmlns="http://www.w3.org/2000/svg" xmlns:xlink="http://www.w3.org/1999/xlink" x="0px" y="0px"
	 width="228px" height="94px" viewBox="0 0 228 94" style="enable-background:new 0 0 228 94;" xml:space="preserve">
<style type="text/css">
	.st0{fill:#EE2737;}
	.st1{fill:#FFC600;}
	.st2{font-family:'Vi-SemiBold';}
	.st3{font-size:6.8867px;}
</style>
<g>
	<g>
		<path class="st0" d="M102.1,61.9H81.3V3.5h20.8C102.1,3.5,102.1,61.9,102.1,61.9z M53.8,3.5L40.3,57.9L26.9,3.5H6.1l14.4,58.3H60
			L74.5,3.5H53.8z"/>
		<circle class="st1" cx="91.7" cy="80" r="11.3"/>
	</g>
</g>
<g id="Layer_3">
</g>
<path class="st0" d="M122.5,20.7c0-5.2,3.6-9.4,9.2-9.4c4.6,0,8.3,2.7,8.7,6.9H136c-0.3-1.8-2.1-3.1-4.2-3.1c-3.1,0-4.7,2.4-4.7,5.5
	c0,3.2,1.7,5.5,4.8,5.5c2.1,0,3.7-1.2,4.1-3h4.5c-0.6,4-4.1,6.8-8.8,6.8C126.1,30,122.5,25.8,122.5,20.7z"/>
<path class="st0" d="M158.5,18.1v11.7h-4.4V27c-0.8,1.8-2.8,3-5.4,3c-3.6,0-6-2.3-6-5.4c0-3.5,2.7-5.7,6.8-5.7h3.3
	c0.9,0,1.3-0.5,1.3-1.2c0-1.8-1.4-3-3.7-3c-2.3,0-3.7,1.5-3.8,3.1h-4c0.2-3.6,3.3-6.4,8-6.4C155.3,11.3,158.5,14,158.5,18.1z
	 M154.2,22.1v-0.3h-4.1c-1.9,0-3.1,1-3.1,2.6c0,1.4,1.2,2.3,2.8,2.3C152.5,26.7,154.2,24.8,154.2,22.1z"/>
<path class="st0" d="M162.4,3.8h4.4v25.9h-4.4V3.8z"/>
<path class="st0" d="M171.3,3.8h4.4v25.9h-4.4V3.8z"/>
<path class="st0" d="M196.7,23.7c-0.7,3.9-4.1,6.3-8.5,6.3c-5.9,0-9.3-4.7-9.3-9.4c0-4.8,3-9.3,8.9-9.3c6.1,0,8.8,4.4,8.8,8.7
	c0,0.6,0,1.2-0.1,1.5h-13.4c0.3,2.9,2.2,4.8,5,4.8c2.3,0,3.7-0.9,4.2-2.7H196.7z M183.3,18.6h8.9c-0.2-2.3-1.8-4-4.4-4
	C185.3,14.6,183.7,15.9,183.3,18.6z"/>
<path class="st0" d="M208,15.3c-2.8,0-3.9,2.4-3.9,5.9v8.6h-4.4V11.6h4.4v3.2c0.9-2.3,2.3-3.2,4.6-3.2h2.1v3.7H208z"/>
<path class="st0" d="M130,38.9v5.5h5v3.7h-5V56c0,1.8,1,2.8,2.6,2.8h2.4v3.7h-2.9c-4,0-6.6-2.3-6.6-6.3v-8.1H122v-3.7h2.4
	c0.7,0,1.2-0.3,1.2-1.2v-4.3H130z"/>
<path class="st0" d="M154.3,62.5h-4.4v-2.8c-1,2-3.1,3.1-5.7,3.1c-4.1,0-6.7-3-6.7-7.2V44.4h4.4v10.3c0,2.5,1.5,4.2,3.8,4.2
	c2.5,0,4.2-1.9,4.2-4.6v-9.9h4.4V62.5z"/>
<path class="st0" d="M158.3,44.4h4.4v2.8c1-2,3.1-3.1,5.7-3.1c4.1,0,6.8,3,6.8,7.2v11.2h-4.4V52.2c0-2.5-1.5-4.2-3.8-4.2
	c-2.5,0-4.2,1.9-4.2,4.6v9.9h-4.4V44.4z"/>
<path class="st0" d="M195.9,56.5c-0.7,3.9-4.1,6.3-8.5,6.3c-5.9,0-9.3-4.7-9.3-9.4c0-4.8,3-9.3,8.9-9.3c6.1,0,8.8,4.4,8.8,8.7
	c0,0.6,0,1.2-0.1,1.5h-13.4c0.3,2.9,2.2,4.8,5,4.8c2.3,0,3.7-0.9,4.2-2.7H195.9z M182.5,51.4h8.9c-0.2-2.3-1.8-4-4.4-4
	C184.5,47.4,183,48.7,182.5,51.4z"/>
<path class="st0" d="M197.7,56.5h4c0.2,1.7,1.5,2.8,3.5,2.8c1.7,0,2.9-0.9,2.9-1.9c0-4-9.9-0.2-9.9-7.8c0-3.2,2.8-5.4,6.5-5.4
	c4.2,0,7.2,2.3,7.3,5.9h-4c-0.3-1.7-1.8-2.6-3.2-2.6c-1.6,0-2.6,0.7-2.6,1.9c0,3.9,10.1-0.4,10.1,7.8c0,3.4-2.8,5.7-7,5.7
	C200.9,62.8,198,60.4,197.7,56.5z"/>
<text transform="matrix(1 0 0 1 104.5386 8.5664)" class="st0 st2 st3">TM</text>
</svg>
