<?xml version="1.0" encoding="utf-8"?>
<!-- Generator: Adobe Illustrator 23.0.1, SVG Export Plug-In . SVG Version: 6.00 Build 0)  -->
<svg version="1.1" id="Calque_1" xmlns="http://www.w3.org/2000/svg" xmlns:xlink="http://www.w3.org/1999/xlink" x="0px" y="0px"
	 width="400px" height="99px" viewBox="0 0 400 99" style="enable-background:new 0 0 400 99;" xml:space="preserve">
<style type="text/css">
	.st0{fill:#FFFFFF;}
	.st1{font-family:'MyriadPro-Regular';}
	.st2{font-size:18.1818px;}
</style>
<title>logo</title>
<text transform="matrix(1 0 0 1 60.1455 95.4541)" class="st0 st1 st2">Exclusivo para usuarios de Telefonica</text>
<path class="st0" d="M166.2,9.8c-4.2,0.1-11.9,2.1-15.4,16.6c-1.5,6.3-2.1,12.9-0.8,20.6c1.2,7.2,3.4,13.4,4.8,16.9
	c0.5,1.2,1.3,2.4,1.9,3.2c1.7,2.2,4.6,2,5.8,1.4c1.3-0.7,2.8-2.2,2.3-5.8c-0.3-1.7-1.1-4.2-1.4-5.6c-1.3-4.3-3.1-9.5-3.2-13.2
	c-0.2-5,1.7-5.6,3-5.9c2.2-0.5,4,1.9,5.7,4.9c2,3.5,5.6,9.9,8.5,14.8c2.6,4.4,7.5,9,15.1,8.7c7.9-0.3,13.7-3.3,16.7-12.8
	c2.3-7.1,3.8-12.3,6.2-17.8c2.9-6.2,6.6-9.6,9.8-8.6c2.9,1,3.7,3.8,3.7,8.1c0,3.8-0.4,7.9-0.8,10.9c-0.2,1.1-0.4,3.3-0.2,4.5
	c0.2,2.4,1.2,4.8,3.9,5.2c2.9,0.4,5.2-1.9,6.2-4.7c0.4-1.1,0.7-2.8,0.8-4c0.8-6,1.1-10.1,0.7-16.3c-0.5-7.2-1.9-13.8-4.4-19.6
	c-2.3-5.5-6.2-9-11.1-9.3c-5.3-0.3-11.5,3.2-14.8,10.2c-3,6.4-5.4,12.9-6.8,16.3c-1.5,3.4-3.6,5.5-7,5.9c-4.1,0.5-7.6-2.6-10.2-6.7
	c-2.3-3.7-6.7-10.7-9-13C174,12.4,171.4,9.7,166.2,9.8z"/>
</svg>
