<?xml version="1.0" encoding="utf-8"?>
<!-- Generator: Adobe Illustrator 24.3.0, SVG Export Plug-In . SVG Version: 6.00 Build 0)  -->
<svg version="1.1" id="Layer_1" xmlns="http://www.w3.org/2000/svg" xmlns:xlink="http://www.w3.org/1999/xlink" x="0px" y="0px"
	 viewBox="0 0 307 46.5" style="enable-background:new 0 0 307 46.5;" xml:space="preserve">
<style type="text/css">
	.st0{fill:#E55625;}
	.st1{fill:#5C2C85;}
	.st2{fill:#FFFFFF;}
	.st3{fill:#5B2C85;}
</style>
<g id="Layer_3">
</g>
<g>
	<g>
		<g>
			<g>
				<path class="st0" d="M219.1,42.5h-4V29.6h4c3.9,0,5.4,1.6,5.4,6.1v0.7C224.5,40.9,222.9,42.5,219.1,42.5z M218.9,40.2
					c2.2,0,2.8-1.2,2.8-3.8v-0.7c0-2.6-0.6-3.8-2.8-3.8h-1.2v8.2L218.9,40.2L218.9,40.2z"/>
				<path class="st0" d="M233.9,29.6V32h-5.2v2.8h4.4v2.4h-4.4v3.1h5.2v2.4H226V29.6H233.9z"/>
				<path class="st0" d="M246.8,29.6V32h-5.2v2.8h4.4v2.4h-4.4v3.1h5.2v2.4h-7.9V29.6H246.8z"/>
				<path class="st0" d="M248.1,33.5v-0.2c0-2.4,1.6-3.9,4.6-3.9c3.2,0,4.6,1.4,4.6,4.5v0.4h-2.7c0-1.6-0.5-2.5-1.9-2.5h-0.1
					c-1.1,0-1.6,0.6-1.6,1.4v0.1c0,0.9,0.4,1.4,2.2,1.6c2.8,0.4,4.2,1.3,4.2,3.8v0.1c0,2.5-1.6,3.9-4.7,3.9s-4.6-1.4-4.6-4.5V38h2.7
					c0,1.6,0.7,2.4,1.9,2.4h0.1c1.3,0,1.9-0.7,1.9-1.5v-0.1c0-0.9-0.5-1.4-2.4-1.6C249.4,36.8,248.1,35.7,248.1,33.5z"/>
				<path class="st0" d="M261.4,42.5h-2.7V29.6h4.2c2.1,0,4.5,0.6,4.5,4V34c0,3.4-2.4,4-4.5,4h-1.5V42.5z M263.1,35.6
					c0.7,0,1.6-0.2,1.6-1.8v-0.1c0-1.4-0.9-1.8-1.6-1.8h-1.8v3.6L263.1,35.6L263.1,35.6z"/>
				<path class="st0" d="M276.6,29.6V32h-5.2v2.8h4.4v2.4h-4.4v3.1h5.2v2.4h-7.9V29.6H276.6z"/>
				<path class="st0" d="M280.9,42.5h-2.7V29.6h4.2c2.1,0,4.5,0.6,4.5,4V34c0,2.1-0.8,3.1-2,3.5l2,5.1H284l-1.8-4.6h-1.4L280.9,42.5
					L280.9,42.5L280.9,42.5z M282.6,35.6c0.7,0,1.6-0.2,1.6-1.8v-0.1c0-1.4-0.9-1.8-1.6-1.8H281v3.6L282.6,35.6L282.6,35.6z"/>
				<path class="st0" d="M294.7,29.6l3.2,12.9H295l-0.6-2.8h-3.2l-0.6,2.8h-2.8l3.2-12.9H294.7z M291.7,37.5h2.1l-1.1-4.7
					L291.7,37.5z"/>
			</g>
			<g>
				<path class="st1" d="M221.1,26.2h-3.2V15.9H215v-2.7h8.9v2.7H221v10.2h0.1V26.2z"/>
				<path class="st1" d="M224.5,20v-0.7c0-4.5,1.6-6.4,5.1-6.4c3.4,0,5.1,1.9,5.1,6.4V20c0,4.5-1.6,6.4-5.1,6.4
					C226.2,26.4,224.5,24.5,224.5,20z M229.7,23.7c1.5,0,1.8-1.4,1.8-3.6v-0.7c0-2.2-0.4-3.6-1.8-3.6h-0.1c-1.5,0-1.8,1.4-1.8,3.6
					V20c0,2.2,0.4,3.6,1.8,3.6h0.1V23.7z"/>
				<path class="st1" d="M235.8,20v-0.7c0-4.5,1.6-6.4,5.1-6.4c3.4,0,5.1,1.9,5.1,6.4V20c0,3.1-0.8,4.9-2.4,5.8l0.8,2H242l-0.6-1.4
					c-0.1,0-0.4,0-0.5,0C237.4,26.4,235.8,24.5,235.8,20z M242.3,22.9c0.4-0.6,0.5-1.6,0.5-2.8v-0.7c0-2.2-0.4-3.6-1.8-3.6h-0.1
					c-1.5,0-1.8,1.4-1.8,3.6V20c0,2,0.2,3.3,1.3,3.5l-0.7-2h2.4L242.3,22.9z"/>
				<path class="st1" d="M247.2,22v-8.8h3.2v8.7c0,1.1,0.2,1.6,1.6,1.6s1.6-0.7,1.6-1.6v-8.7h3.2V22c0,2.7-1.1,4.4-4.8,4.4
					C248.3,26.4,247.2,24.8,247.2,22z"/>
				<path class="st1" d="M266.4,13.2v2.7h-4.9v2.2h4.1v2.7h-4.1v2.5h4.9V26h-8.1V13.1L266.4,13.2L266.4,13.2z"/>
				<path class="st1" d="M267.7,17.1v-0.2c0-2.4,1.6-4,4.7-4c3.3,0,4.7,1.4,4.7,4.5v0.4h-3.2c0-1.4-0.5-2.1-1.5-2.1h-0.1
					c-0.9,0-1.4,0.5-1.4,1.2V17c0,0.8,0.2,1.2,2,1.4c2.8,0.4,4.4,1.3,4.4,3.8v0.2c0,2.5-1.6,4-4.8,4c-3.2,0-4.8-1.3-4.8-4.6v-0.1
					h3.2c0,1.4,0.5,2,1.5,2h0.1c1.1,0,1.5-0.6,1.5-1.2l0,0c0-0.7-0.4-1.2-2.1-1.4C269.1,20.5,267.7,19.7,267.7,17.1z"/>
			</g>
		</g>
		<g>
			<g>
				<path id="XMLID_32_" class="st1" d="M197.1,1.6h-17.6c-1.5,0-2.7,1.2-2.7,2.7V40c0,1.5,1.2,2.7,2.7,2.7h17.6
					c1.5,0,2.7-1.2,2.7-2.7V4.3C199.9,2.7,198.6,1.6,197.1,1.6z"/>
				<path id="XMLID_31_" class="st2" d="M180.3,35.8V6.4l0,0h16l0,0v29.4l0,0H180.3C180.4,35.8,180.3,35.8,180.3,35.8z"/>
				<path id="XMLID_30_" class="st2" d="M190.6,39.3c0-1.3-1.1-2.2-2.2-2.2c-1.3,0-2.2,1.1-2.2,2.2c0,1.3,1.1,2.2,2.2,2.2
					C189.6,41.6,190.6,40.5,190.6,39.3z"/>
				<path id="XMLID_29_" class="st2" d="M191.1,3.8h-5.4c-0.1,0-0.2,0.1-0.2,0.2l0,0c0,0.1,0.1,0.2,0.2,0.2h5.4
					c0.1,0,0.2-0.1,0.2-0.2l0,0C191.3,3.9,191.2,3.8,191.1,3.8z"/>
			</g>
			<g>
				<g>
					<g>
						<g>
							<path class="st0" d="M185.2,31.3c-1.3,0-2.5-1.1-2.5-2.5V15.2c0-1.3,1.1-2.5,2.5-2.5c1.3,0,2.5,1.1,2.5,2.5v13.6
								C187.7,30.3,186.5,31.3,185.2,31.3z"/>
						</g>
					</g>
					<g>
						<g>
							<path class="st0" d="M191.5,33.8c-1.3,0-2.5-1.1-2.5-2.5V12.7c0-1.3,1.1-2.5,2.5-2.5c1.3,0,2.5,1.1,2.5,2.5v18.6
								C193.9,32.8,192.9,33.8,191.5,33.8z"/>
						</g>
					</g>
				</g>
				<g>
					<g>
						<path class="st1" d="M172.6,32.8c-1.3,0-2.5-1.1-2.5-2.5V13.8c0-1.3,1.1-2.5,2.5-2.5c1.3,0,2.5,1.1,2.5,2.5v16.5
							C175.1,31.7,174,32.8,172.6,32.8z"/>
					</g>
					<g>
						<path class="st1" d="M166.4,27.7c-1.3,0-2.5-1.1-2.5-2.5v-10c0-1.3,1.1-2.5,2.5-2.5c1.3,0,2.5,1.1,2.5,2.5v10
							C168.9,26.5,167.8,27.7,166.4,27.7z"/>
					</g>
					<g>
						<path class="st1" d="M210.3,33.5c-1.3,0-2.5-1.1-2.5-2.5V21c0-1.3,1.1-2.5,2.5-2.5c1.3,0,2.5,1.1,2.5,2.5v10
							C212.8,32.4,211.6,33.5,210.3,33.5z"/>
					</g>
					<g>
						<path class="st1" d="M204.1,31.6c-1.3,0-2.5-1.1-2.5-2.5V14.4c0-1.3,1.1-2.5,2.5-2.5c1.3,0,2.5,1.1,2.5,2.5v14.7
							C206.5,30.5,205.3,31.6,204.1,31.6z"/>
					</g>
				</g>
			</g>
		</g>
	</g>
	<g>
		<path class="st3" d="M77.9,32.2h-5.1v-20h5.1V32.2z M47.2,19.8v7.5h-7.5c-1.9,0-3.4-1.4-3.4-3.1v-12h-5.1V24
			c0,4.5,3.8,8.1,8.5,8.1h12.6V19.8H47.2L47.2,19.8z M59.8,12H47.2v4.8h12.6c1.9,0,3.4,1.4,3.4,3.1V32h5.2V20.2
			C68.4,15.8,64.6,12,59.8,12z M103.5,12H82.2v4.8h8.1v15.3h5.1V16.9h8.1C103.5,16.9,103.5,12,103.5,12z M115.9,19.7
			c-1.4,0-2.6,1.1-2.6,2.4s1.2,2.4,2.6,2.4h10.6v-4.8H115.9L115.9,19.7z M116.3,16.9h10.4V12H116c-5.9,0-10.5,4.6-10.5,10
			c0,5.5,4.6,10,10.5,10h10.6v-4.8h-10.4c-3.2,0-5.8-2.4-5.8-5.2C110.5,19.2,113.1,16.9,116.3,16.9z M139.1,27.3
			c-1.5,0-2.7-1.1-2.7-2.4V12h-5.1v12.7c0,4,3.4,7.4,7.8,7.4h4.7v-4.8C143.8,27.3,139.1,27.3,139.1,27.3z"/>
		<g>
			<ellipse class="st2" cx="13.1" cy="22" rx="12.5" ry="12.5"/>
			<g>
				<path class="st0" d="M22.6,19.2h-6.7v-2.9h8.4c-2.1-4-6.2-6.7-11.1-6.7C6.4,9.6,0.7,15.1,0.7,22c0,6.8,5.5,12.5,12.5,12.5
					C20,34.5,25.7,29,25.7,22l0,0C25.6,20.5,24.3,19.2,22.6,19.2z M19,28.4h-7.6c-2.8,0-5.2-2.2-5.2-4.9v-7.2h3.1v7.4
					c0,1.1,0.9,1.9,2.1,1.9H16V21h3V28.4z"/>
			</g>
		</g>
	</g>
</g>
</svg>
