<?xml version="1.0" encoding="utf-8"?>
<!-- Generator: Adobe Illustrator 25.4.1, SVG Export Plug-In . SVG Version: 6.00 Build 0)  -->
<svg version="1.1" id="Calque_1" xmlns="http://www.w3.org/2000/svg" xmlns:xlink="http://www.w3.org/1999/xlink" x="0px" y="0px"
	 viewBox="0 0 400 137.8" style="enable-background:new 0 0 400 137.8;" xml:space="preserve">
<style type="text/css">
	.st0{fill:#E6540F;}
	.st1{font-family:'ArialMT';}
	.st2{font-size:18.1754px;}
	.st3{fill:#E55625;}
	.st4{fill:#5C2C85;}
	.st5{fill:#FFFFFF;}
	.st6{fill:#5B2C85;}
</style>
<text transform="matrix(1 0 0 1 83.3481 136.2101)" class="st0 st1 st2">For UNITEL ANGOLA Subscribers</text>
<g>
	<g>
		<g>
			<g>
				<path class="st3" d="M192.4,73.9h-7.1v-23h7.1c6.9,0,9.6,2.9,9.6,10.9V63C202,71,199.1,73.9,192.4,73.9z M192,69.7
					c4,0,5-2.1,5-6.7v-1.3c0-4.6-1-6.7-5-6.7h-2.1v14.7H192z"/>
				<path class="st3" d="M218.8,50.9v4.2h-9.2v5h7.7v4.2h-7.7v5.4h9.2v4.2h-14v-23H218.8z"/>
				<path class="st3" d="M241.6,50.9v4.2h-9.2v5h7.7v4.2h-7.7v5.4h9.2v4.2h-14v-23H241.6z"/>
				<path class="st3" d="M243.9,57.8v-0.4c0-4.2,2.9-6.9,8.2-6.9c5.7,0,8.2,2.5,8.2,8V59h-4.8c0-2.9-0.8-4.4-3.3-4.4H252
					c-1.9,0-2.9,1-2.9,2.5v0.2c0,1.7,0.6,2.5,4,2.9c5,0.6,7.5,2.3,7.5,6.7v0.2c0,4.4-2.9,6.9-8.4,6.9s-8.2-2.5-8.2-8v-0.2h4.8
					c0,2.9,1.3,4.2,3.3,4.2h0.2c2.3,0,3.3-1.3,3.3-2.7v-0.2c0-1.7-0.8-2.5-4.2-2.9C246.2,63.6,243.9,61.8,243.9,57.8z"/>
				<path class="st3" d="M267.6,73.9h-4.8v-23h7.5c3.8,0,8,1,8,7.1v0.6c0,6.1-4.2,7.1-8,7.1h-2.7V73.9z M270.7,61.5
					c1.3,0,2.9-0.4,2.9-3.1v-0.2c0-2.5-1.7-3.1-2.9-3.1h-3.1v6.5h3.1V61.5z"/>
				<path class="st3" d="M294.8,50.9v4.2h-9.2v5h7.7v4.2h-7.7v5.4h9.2v4.2h-14v-23H294.8z"/>
				<path class="st3" d="M302.3,73.9h-4.8v-23h7.5c3.8,0,8,1,8,7.1v0.6c0,3.8-1.5,5.4-3.6,6.3l3.6,9h-5.2l-3.1-8.2h-2.5L302.3,73.9
					L302.3,73.9z M305.4,61.5c1.3,0,2.9-0.4,2.9-3.1v-0.2c0-2.5-1.7-3.1-2.9-3.1h-2.9v6.5h2.9V61.5z"/>
				<path class="st3" d="M326.8,50.9l5.7,23h-5l-1-5h-5.7l-1,5h-5l5.7-23H326.8z M321.6,64.9h3.8l-1.9-8.4L321.6,64.9z"/>
			</g>
			<g>
				<path class="st4" d="M196,44.8h-5.7V26.6h-5.2v-4.8H201v4.8h-5.2L196,44.8L196,44.8z"/>
				<path class="st4" d="M202,33.9v-1.3c0-8,2.9-11.3,9-11.3s9,3.3,9,11.3v1.3c0,8-2.9,11.3-9,11.3C205,45.2,202,41.9,202,33.9z
					 M211.2,40.4c2.7,0,3.1-2.5,3.1-6.5v-1.3c0-4-0.6-6.5-3.1-6.5H211c-2.7,0-3.1,2.5-3.1,6.5v1.3c0,4,0.6,6.5,3.1,6.5H211.2z"/>
				<path class="st4" d="M222.1,33.9v-1.3c0-8,2.9-11.3,9-11.3s9,3.3,9,11.3v1.3c0,5.4-1.5,8.8-4.2,10.3l1.5,3.6h-4.2l-1-2.5
					c-0.2,0-0.6,0-0.8,0C224.8,45.2,222.1,41.9,222.1,33.9z M233.6,38.9c0.6-1,0.8-2.9,0.8-5v-1.3c0-4-0.6-6.5-3.1-6.5h-0.2
					c-2.7,0-3.1,2.5-3.1,6.5v1.3c0,3.6,0.4,5.9,2.3,6.3l-1.3-3.6h4.2L233.6,38.9z"/>
				<path class="st4" d="M242.4,37.5V21.8h5.7v15.5c0,1.9,0.4,2.9,2.9,2.9s2.9-1.3,2.9-2.9V21.8h5.7v15.7c0,4.8-1.9,7.7-8.6,7.7
					C244.3,45.2,242.4,42.3,242.4,37.5z"/>
				<path class="st4" d="M276.6,21.8v4.8h-8.8v4h7.3v4.8h-7.3v4.4h8.8v4.8h-14.4v-23L276.6,21.8L276.6,21.8z"/>
				<path class="st4" d="M278.9,28.7v-0.4c0-4.2,2.9-7.1,8.4-7.1c5.9,0,8.4,2.5,8.4,8v0.6H290c0-2.5-0.8-3.8-2.7-3.8H287
					c-1.7,0-2.5,0.8-2.5,2.1v0.2c0,1.5,0.4,2.1,3.6,2.5c5,0.6,7.7,2.3,7.7,6.7v0.4c0,4.4-2.9,7.1-8.6,7.1s-8.6-2.3-8.6-8.2v-0.2h5.7
					c0,2.5,0.8,3.6,2.7,3.6h0.2c1.9,0,2.7-1,2.7-2.1l0,0c0-1.3-0.6-2.1-3.8-2.5C281.4,34.7,278.9,33.3,278.9,28.7z"/>
			</g>
		</g>
		<g>
			<g>
				<path id="XMLID_32_" class="st4" d="M153.3,1h-31.4c-2.7,0-4.8,2.1-4.8,4.8v63.4c0,2.7,2.1,4.8,4.8,4.8h31.4
					c2.7,0,4.8-2.1,4.8-4.8V5.9C158.3,3.1,156,1,153.3,1z"/>
				<path id="XMLID_31_" class="st5" d="M123.3,62V9.6l0,0h28.5l0,0V62l0,0H123.3C123.5,62,123.3,62,123.3,62z"/>
				<path id="XMLID_30_" class="st5" d="M141.7,68.2c0-2.3-1.9-4-4-4c-2.3,0-4,1.9-4,4c0,2.3,1.9,4,4,4
					C139.9,72.2,141.7,70.3,141.7,68.2z"/>
				<path id="XMLID_29_" class="st5" d="M142.6,5H133c-0.2,0-0.4,0.2-0.4,0.4l0,0c0,0.2,0.2,0.4,0.4,0.4h9.6c0.2,0,0.4-0.2,0.4-0.4
					l0,0C143,5.2,142.8,5,142.6,5z"/>
			</g>
			<g>
				<g>
					<g>
						<g>
							<path class="st3" d="M132.1,54c-2.3,0-4.4-1.9-4.4-4.4V25.3c0-2.3,1.9-4.4,4.4-4.4c2.3,0,4.4,1.9,4.4,4.4v24.3
								C136.5,52.1,134.4,54,132.1,54z"/>
						</g>
					</g>
					<g>
						<g>
							<path class="st3" d="M143.2,58.4c-2.3,0-4.4-1.9-4.4-4.4V20.9c0-2.3,1.9-4.4,4.4-4.4c2.3,0,4.4,1.9,4.4,4.4V54
								C147.6,56.5,145.7,58.4,143.2,58.4z"/>
						</g>
					</g>
				</g>
				<g>
					<g>
						<path class="st4" d="M109.7,56.5c-2.3,0-4.4-1.9-4.4-4.4V22.8c0-2.3,1.9-4.4,4.4-4.4c2.3,0,4.4,1.9,4.4,4.4v29.3
							C114.1,54.6,112.2,56.5,109.7,56.5z"/>
					</g>
					<g>
						<path class="st4" d="M98.6,47.5c-2.3,0-4.4-1.9-4.4-4.4V25.3c0-2.3,1.9-4.4,4.4-4.4c2.3,0,4.4,1.9,4.4,4.4v17.8
							C103,45.4,101.1,47.5,98.6,47.5z"/>
					</g>
					<g>
						<path class="st4" d="M176.7,57.8c-2.3,0-4.4-1.9-4.4-4.4V35.6c0-2.3,1.9-4.4,4.4-4.4c2.3,0,4.4,1.9,4.4,4.4v17.8
							C181.1,55.9,179,57.8,176.7,57.8z"/>
					</g>
					<g>
						<path class="st4" d="M165.6,54.4c-2.3,0-4.4-1.9-4.4-4.4V23.9c0-2.3,1.9-4.4,4.4-4.4c2.3,0,4.4,1.9,4.4,4.4V50
							C170,52.5,167.9,54.4,165.6,54.4z"/>
					</g>
				</g>
			</g>
		</g>
	</g>
	<g>
		<path class="st6" d="M218.5,108.1h-4.1V91.8h4.1V108.1z M193.6,98v6.1h-6.1c-1.5,0-2.8-1.1-2.8-2.5v-9.8h-4.1v9.7
			c0,3.6,3.1,6.6,6.9,6.6h10.2V98H193.6L193.6,98z M203.8,91.7h-10.2v3.9h10.2c1.5,0,2.8,1.1,2.8,2.5v9.8h4.2v-9.7
			C210.8,94.8,207.7,91.7,203.8,91.7z M239.3,91.7H222v3.9h6.6V108h4.1V95.6h6.6L239.3,91.7L239.3,91.7z M249.4,97.9
			c-1.1,0-2.1,0.9-2.1,1.9c0,1.1,1,1.9,2.1,1.9h8.6v-3.9L249.4,97.9L249.4,97.9z M249.7,95.6h8.4v-3.9h-8.6c-4.8,0-8.5,3.7-8.5,8.1
			c0,4.5,3.7,8.1,8.5,8.1h8.6V104h-8.4c-2.6,0-4.7-1.9-4.7-4.2C245,97.6,247.1,95.6,249.7,95.6z M268.2,104.1
			c-1.2,0-2.2-0.9-2.2-1.9V91.7h-4.1V102c0,3.2,2.8,6,6.3,6h3.8v-3.9H268.2z"/>
		<g>
			<ellipse class="st5" cx="165.9" cy="99.8" rx="10.1" ry="10.1"/>
			<g>
				<path class="st3" d="M173.6,97.6h-5.4v-2.4h6.8c-1.7-3.2-5.1-5.4-9-5.4c-5.5,0-10.1,4.5-10.1,10.1c0,5.5,4.5,10.1,10.1,10.1
					c5.5,0,10.1-4.5,10.1-10.1l0,0C176,98.6,174.9,97.6,173.6,97.6z M170.6,105h-6.2c-2.3,0-4.2-1.8-4.2-4v-5.8h2.5v6
					c0,0.9,0.8,1.5,1.7,1.5h3.7V99h2.5V105z"/>
			</g>
		</g>
	</g>
</g>
</svg>
