<?xml version="1.0" encoding="utf-8"?>
<!-- Generator: Adobe Illustrator 24.3.0, SVG Export Plug-In . SVG Version: 6.00 Build 0)  -->
<svg version="1.1" id="Calque_1" xmlns="http://www.w3.org/2000/svg" xmlns:xlink="http://www.w3.org/1999/xlink" x="0px" y="0px"
	 viewBox="0 0 400 161.1" style="enable-background:new 0 0 400 161.1;" xml:space="preserve">
<style type="text/css">
	.st0{fill:#FFFFFF;}
	.st1{font-family:'ArialMT';}
	.st2{font-size:22px;}
</style>
<text transform="matrix(1 0 0 1 27.7837 147.3018)" class="st0 st1 st2">Exclusively for DIALOG subscribers</text>
<g>
	<path class="st0" d="M144.8,112.9V79.4c-0.9,0.2-4.8,1.4-6.9,3.6c-0.9,0.9-1.4,2-1.4,2.9v27.1H144.8z M175.6,83.5
		c-3.1-3.1-6.6-3.6-11-3.6c-4.6,0-8.8,1.8-9.6,2.4c-0.7,0.5-1.1,1.2-1.1,2.1v4.4c3-1,7-1.6,9.4-1.6c2.5,0,4.5,0.3,5.9,1.4
		c1.6,1.3,1.8,3.5,1.8,4.5c0,0.4,0,0.6,0,0.6l0,0.1l-0.1,0c0,0-3.7-0.4-7.5-0.4c-3.8,0-7.2,0.7-9.5,2.5c-2,1.6-3.6,4.6-3.6,7.7
		c0,3.6,1.6,6.1,3.4,7.6c1.9,1.6,5.5,2.3,8.4,2.3c3.2,0,5.4-0.5,6.7-1.1c1.4-0.5,1.9-1,1.9-1l0.2-0.2v1.7h7.8v-19
		C178.7,89.5,177.9,85.9,175.6,83.5z M170.8,101.9c0,1.8-0.8,4.1-3.3,5.2c-1.2,0.5-2.5,0.8-3.8,0.8c-1.3,0-2.5-0.3-3.5-0.9
		c-1.3-0.8-1.8-2.3-1.8-3.6c0-0.9,0.2-1.8,0.6-2.4c0.9-1.5,2.8-2.4,5.8-2.4c0.2,0,0.5,0,0.7,0c3.4,0,5.3,0.7,5.3,0.7V101.9z
		 M184.6,74.7c0-1,0.4-2.3,1.2-3.1c2.1-2.2,6.2-3.2,7.1-3.4v44.8h-8.3V74.7z M215.1,79.9c-9.9,0-17.5,7.4-17.5,17
		c0,9.5,7.5,16.8,17.4,16.8c9.9,0,17.7-7.4,17.7-17C232.8,87.1,225.1,79.9,215.1,79.9z M215.1,106.4c-5,0-9.1-4.4-9.1-9.8
		c0-5.5,3.8-9.4,9-9.4c5.1,0,9.1,4.1,9.1,9.6C224.2,102.4,220.4,106.4,215.1,106.4z M265.5,81.2c-0.7,0.2-2.2,1.1-2.9,2.6
		c-3.6-3.4-7.8-3.8-11.4-3.8c-7.5,0-14.7,5.4-14.7,15.6c0,10.2,7.4,15.1,14.7,15.1c4.2,0,8-1,11.4-3.9c0,4.1-1.1,6.2-2.3,7.5
		c-1.7,1.8-4.3,2.6-8,2.6c-1.7,0-3.5-0.4-5.3-0.8v4c0,1.2,0.7,2.1,1.6,2.5c2.1,0.9,5.1,1.3,7.2,1.3c4.2,0,8.3-1.5,11.3-4.5
		c2.8-2.8,4.2-7.4,4.2-13.4V80C270.6,80.1,267.8,80.3,265.5,81.2z M253.9,103.6c-5.1,0-8.7-3.5-8.7-8.2c0-4.6,3.1-8.3,8.4-8.3
		c5,0,9.1,3.2,9.1,8.6C262.6,100.4,259,103.6,253.9,103.6z M110,112.9H95.5V83.8c0-0.9,0-2.3,1-3.3c2.3-2.4,6.1-2.7,7.4-2.8v27.4
		h6.1c7.4,0,12.8-6.4,12.8-14.2v-0.1c0-7.8-5.1-13.1-12.8-13.1h-6.4c-2.2,0-5-0.6-7.3-2.7c-1-0.9-1.8-2.6-1.8-3.9v-1.4H110
		c13,0,21.9,8.8,21.9,21.2V91C131.9,103.4,123,112.9,110,112.9"/>
	<g>
		<polygon class="st0" points="247,58 271.5,72.1 271.5,43.9 		"/>
		<polygon class="st0" points="247,1.5 247,29.7 271.5,15.6 		"/>
		<polygon class="st0" points="271.5,15.6 271.5,15.6 247,29.7 271.5,43.9 		"/>
		<polygon class="st0" points="296,58 296,29.7 271.5,43.9 		"/>
		<polygon class="st0" points="271.5,43.9 271.5,43.9 296,29.7 271.5,15.6 		"/>
		<polygon class="st0" points="296,58 296,58 271.5,43.9 271.5,72.1 		"/>
	</g>
</g>
</svg>
