<?xml version="1.0" encoding="utf-8"?>
<!-- Generator: Adobe Illustrator 25.2.3, SVG Export Plug-In . SVG Version: 6.00 Build 0)  -->
<svg version="1.1" id="Calque_1" xmlns="http://www.w3.org/2000/svg" xmlns:xlink="http://www.w3.org/1999/xlink" x="0px" y="0px"
	 viewBox="0 0 400 99" style="enable-background:new 0 0 400 99;" xml:space="preserve">
<style type="text/css">
	.st0{enable-background:new    ;}
	.st1{fill:#F9F9F9;}
	.st2{fill-rule:evenodd;clip-rule:evenodd;fill:#FFFFFF;}
</style>
<g class="st0">
	<path class="st1" d="M84.6,85.2h7.1V87h-4.8v3.4h4.5v1.8h-4.5v5.2h-2.2V85.2z"/>
	<path class="st1" d="M101.7,92.9c0,3.3-2.3,4.7-4.5,4.7c-2.5,0-4.4-1.7-4.4-4.6c0-2.9,1.9-4.7,4.6-4.7
		C99.9,88.4,101.7,90.3,101.7,92.9z M95,93c0,1.7,0.8,3,2.2,3c1.3,0,2.2-1.3,2.2-3c0-1.4-0.6-3-2.1-3C95.6,90,95,91.6,95,93z"/>
	<path class="st1" d="M103.5,91.5c0-1.2,0-2.1-0.1-2.9h1.9l0.1,1.7h0.1c0.4-1.3,1.5-1.9,2.4-1.9c0.2,0,0.3,0,0.5,0.1v2.1
		c-0.2,0-0.4-0.1-0.7-0.1c-1.1,0-1.8,0.7-2,1.7c0,0.2-0.1,0.4-0.1,0.7v4.6h-2.2V91.5z"/>
	<path class="st1" d="M116,97.5l-4-12.3h2.4l1.7,5.6c0.5,1.5,0.9,3,1.2,4.5h0c0.3-1.5,0.8-2.9,1.3-4.4l1.8-5.6h2.4l-4.2,12.3H116z"
		/>
	<path class="st1" d="M131.7,92.9c0,3.3-2.3,4.7-4.5,4.7c-2.5,0-4.4-1.7-4.4-4.6c0-2.9,1.9-4.7,4.6-4.7
		C130,88.4,131.7,90.3,131.7,92.9z M125.1,93c0,1.7,0.8,3,2.2,3c1.3,0,2.2-1.3,2.2-3c0-1.4-0.6-3-2.1-3
		C125.7,90,125.1,91.6,125.1,93z"/>
	<path class="st1" d="M141.7,84.5V95c0,0.9,0,1.9,0.1,2.5h-2l-0.1-1.4h0c-0.5,1-1.6,1.6-2.9,1.6c-2.1,0-3.8-1.8-3.8-4.5
		c0-3,1.8-4.7,4-4.7c1.2,0,2.1,0.5,2.5,1.2h0v-5H141.7z M139.5,92.3c0-0.2,0-0.4-0.1-0.6c-0.2-0.9-0.9-1.6-1.9-1.6
		c-1.4,0-2.2,1.3-2.2,2.9c0,1.6,0.8,2.8,2.2,2.8c0.9,0,1.7-0.6,1.9-1.6c0.1-0.2,0.1-0.4,0.1-0.7V92.3z"/>
	<path class="st1" d="M149.1,97.5l-0.1-1h-0.1c-0.5,0.7-1.5,1.2-2.6,1.2c-1.8,0-2.8-1.3-2.8-2.6c0-2.2,2-3.4,5.3-3.3v-0.1
		c0-0.6-0.2-1.5-1.8-1.5c-0.9,0-1.8,0.3-2.4,0.7l-0.4-1.5c0.7-0.4,1.8-0.8,3.2-0.8c2.8,0,3.7,1.8,3.7,3.7v3.2c0,0.8,0,1.6,0.1,2.1
		H149.1z M148.8,93.1c-1.6,0-3.1,0.3-3.1,1.7c0,0.9,0.6,1.3,1.3,1.3c0.9,0,1.5-0.6,1.7-1.2c0.1-0.2,0.1-0.3,0.1-0.5V93.1z"/>
	<path class="st1" d="M159.9,97.2c-0.5,0.2-1.4,0.5-2.5,0.5c-2.8,0-4.6-1.8-4.6-4.5c0-2.7,1.8-4.7,4.9-4.7c0.8,0,1.7,0.2,2.2,0.4
		l-0.4,1.7c-0.4-0.2-0.9-0.3-1.7-0.3c-1.7,0-2.7,1.3-2.7,2.9c0,1.8,1.2,2.9,2.7,2.9c0.8,0,1.3-0.2,1.8-0.3L159.9,97.2z"/>
	<path class="st1" d="M169.8,92.9c0,3.3-2.3,4.7-4.5,4.7c-2.5,0-4.4-1.7-4.4-4.6c0-2.9,1.9-4.7,4.6-4.7
		C168,88.4,169.8,90.3,169.8,92.9z M163.1,93c0,1.7,0.8,3,2.2,3c1.3,0,2.2-1.3,2.2-3c0-1.4-0.6-3-2.1-3
		C163.8,90,163.1,91.6,163.1,93z"/>
	<path class="st1" d="M171.6,91.2c0-1,0-1.9-0.1-2.6h1.9l0.1,1.3h0.1c0.4-0.7,1.2-1.5,2.7-1.5c1.2,0,2.1,0.7,2.5,1.6h0
		c0.3-0.5,0.7-0.9,1.1-1.1c0.5-0.3,1.1-0.5,1.8-0.5c1.5,0,3,1,3,3.8v5.2h-2.2v-4.9c0-1.5-0.5-2.3-1.6-2.3c-0.8,0-1.3,0.5-1.6,1.2
		c-0.1,0.2-0.1,0.5-0.1,0.7v5.3h-2.2v-5.1c0-1.2-0.5-2.1-1.5-2.1c-0.8,0-1.4,0.7-1.6,1.3c-0.1,0.2-0.1,0.5-0.1,0.7v5.2h-2.2V91.2z"
		/>
	<path class="st1" d="M201.2,92.5c-0.1-1.6-0.2-3.5-0.1-5.1H201c-0.4,1.5-0.9,3.1-1.5,4.7l-1.8,5.3h-1.7l-1.6-5.2
		c-0.5-1.6-0.9-3.2-1.2-4.8h0c-0.1,1.6-0.1,3.5-0.2,5.2l-0.3,4.9h-2.1l0.8-12.3h2.9l1.6,4.9c0.4,1.4,0.8,2.9,1.1,4.3h0.1
		c0.3-1.3,0.7-2.8,1.2-4.3l1.7-4.9h2.9l0.7,12.3h-2.2L201.2,92.5z"/>
	<path class="st1" d="M205.1,96.2l6.3-9.1V87h-5.7v-1.9h8.6v1.3l-6.2,9v0.1h6.3v1.9h-9.3V96.2z"/>
	<path class="st1" d="M219.9,95c0.7,0.4,1.8,0.8,3,0.8c1.4,0,2.2-0.7,2.2-1.7c0-0.9-0.6-1.5-2.2-2c-2-0.7-3.3-1.8-3.3-3.6
		c0-2,1.7-3.5,4.3-3.5c1.3,0,2.3,0.3,2.9,0.6l-0.5,1.8c-0.4-0.2-1.3-0.6-2.4-0.6c-1.4,0-2,0.8-2,1.5c0,0.9,0.7,1.4,2.3,2
		c2.1,0.8,3.2,1.9,3.2,3.6c0,2-1.5,3.7-4.7,3.7c-1.3,0-2.6-0.4-3.3-0.8L219.9,95z"/>
	<path class="st1" d="M237.3,94.8c0,1.1,0,1.9,0.1,2.7h-2l-0.1-1.3h0c-0.4,0.6-1.3,1.5-2.8,1.5c-1.6,0-3.1-1-3.1-3.9v-5.2h2.2v4.8
		c0,1.5,0.5,2.4,1.7,2.4c0.9,0,1.5-0.6,1.7-1.2c0.1-0.2,0.1-0.4,0.1-0.7v-5.3h2.2V94.8z"/>
	<path class="st1" d="M239.6,97.5c0-0.6,0.1-1.6,0.1-2.5V84.5h2.2v5.3h0c0.5-0.9,1.5-1.4,2.8-1.4c2.2,0,3.7,1.8,3.7,4.5
		c0,3.2-2,4.8-4,4.8c-1.1,0-2.2-0.4-2.8-1.5h0l-0.1,1.3H239.6z M241.9,93.8c0,0.2,0,0.4,0.1,0.5c0.2,0.9,1,1.6,2,1.6
		c1.4,0,2.3-1.1,2.3-2.9c0-1.6-0.7-2.8-2.2-2.8c-0.9,0-1.7,0.7-2,1.6c0,0.2-0.1,0.4-0.1,0.6V93.8z"/>
	<path class="st1" d="M250.2,95.4c0.5,0.3,1.5,0.6,2.3,0.6c1,0,1.4-0.4,1.4-1c0-0.6-0.4-0.9-1.5-1.3c-1.7-0.6-2.5-1.5-2.4-2.6
		c0-1.6,1.3-2.8,3.3-2.8c1,0,1.8,0.3,2.3,0.5l-0.4,1.6c-0.4-0.2-1.1-0.5-1.9-0.5c-0.8,0-1.2,0.4-1.2,0.9c0,0.6,0.4,0.8,1.5,1.2
		c1.6,0.6,2.3,1.4,2.4,2.7c0,1.6-1.3,2.8-3.6,2.8c-1.1,0-2-0.3-2.7-0.6L250.2,95.4z"/>
	<path class="st1" d="M264.4,97.2c-0.5,0.2-1.4,0.5-2.5,0.5c-2.8,0-4.6-1.8-4.6-4.5c0-2.7,1.8-4.7,4.9-4.7c0.8,0,1.7,0.2,2.2,0.4
		l-0.4,1.7c-0.4-0.2-0.9-0.3-1.7-0.3c-1.7,0-2.7,1.3-2.7,2.9c0,1.8,1.2,2.9,2.7,2.9c0.8,0,1.3-0.2,1.8-0.3L264.4,97.2z"/>
	<path class="st1" d="M266.1,91.5c0-1.2,0-2.1-0.1-2.9h1.9l0.1,1.7h0.1c0.4-1.3,1.5-1.9,2.4-1.9c0.2,0,0.3,0,0.5,0.1v2.1
		c-0.2,0-0.4-0.1-0.7-0.1c-1.1,0-1.8,0.7-2,1.7c0,0.2-0.1,0.4-0.1,0.7v4.6h-2.2V91.5z"/>
	<path class="st1" d="M274.9,86.1c0,0.7-0.5,1.2-1.3,1.2c-0.7,0-1.2-0.5-1.2-1.2c0-0.7,0.5-1.2,1.3-1.2
		C274.4,84.9,274.9,85.4,274.9,86.1z M272.5,97.5v-8.9h2.3v8.9H272.5z"/>
	<path class="st1" d="M277.1,97.5c0-0.6,0.1-1.6,0.1-2.5V84.5h2.2v5.3h0c0.5-0.9,1.5-1.4,2.8-1.4c2.2,0,3.7,1.8,3.7,4.5
		c0,3.2-2,4.8-4,4.8c-1.1,0-2.2-0.4-2.8-1.5h0l-0.1,1.3H277.1z M279.4,93.8c0,0.2,0,0.4,0.1,0.5c0.2,0.9,1,1.6,2,1.6
		c1.4,0,2.3-1.1,2.3-2.9c0-1.6-0.7-2.8-2.2-2.8c-0.9,0-1.7,0.7-2,1.6c0,0.2-0.1,0.4-0.1,0.6V93.8z"/>
	<path class="st1" d="M289.4,93.7c0.1,1.6,1.3,2.3,2.7,2.3c1,0,1.8-0.1,2.5-0.4l0.3,1.5c-0.8,0.3-1.8,0.5-3.1,0.5
		c-2.9,0-4.6-1.8-4.6-4.5c0-2.5,1.5-4.8,4.3-4.8c2.9,0,3.8,2.4,3.8,4.3c0,0.4,0,0.7-0.1,0.9H289.4z M293.3,92.1
		c0-0.8-0.3-2.2-1.8-2.2c-1.4,0-2,1.3-2.1,2.2H293.3z"/>
	<path class="st1" d="M297.2,91.5c0-1.2,0-2.1-0.1-2.9h1.9l0.1,1.7h0.1c0.4-1.3,1.5-1.9,2.4-1.9c0.2,0,0.3,0,0.5,0.1v2.1
		c-0.2,0-0.4-0.1-0.7-0.1c-1.1,0-1.8,0.7-2,1.7c0,0.2-0.1,0.4-0.1,0.7v4.6h-2.2V91.5z"/>
	<path class="st1" d="M303.6,95.4c0.5,0.3,1.5,0.6,2.3,0.6c1,0,1.4-0.4,1.4-1c0-0.6-0.4-0.9-1.5-1.3c-1.7-0.6-2.5-1.5-2.4-2.6
		c0-1.6,1.3-2.8,3.3-2.8c1,0,1.8,0.3,2.3,0.5l-0.4,1.6c-0.4-0.2-1.1-0.5-1.9-0.5c-0.8,0-1.2,0.4-1.2,0.9c0,0.6,0.4,0.8,1.5,1.2
		c1.6,0.6,2.3,1.4,2.4,2.7c0,1.6-1.3,2.8-3.6,2.8c-1.1,0-2-0.3-2.7-0.6L303.6,95.4z"/>
</g>
<path class="st2" d="M243.4,37.4c0,20.1-16.3,36.4-36.4,36.4s-36.4-16.3-36.4-36.4S186.9,1,207,1S243.4,17.3,243.4,37.4L243.4,37.4z
	 M186.6,37.3c0,11.2,9.1,20.3,20.3,20.3s20.3-9.1,20.3-20.3S218.1,17,206.9,17C210,6.7,217.4,2.6,217.4,2.6
	c-15.2,0-28.3,12.6-30.8,28.6C186.4,32.5,186.6,37.3,186.6,37.3L186.6,37.3z"/>
</svg>
