<?xml version="1.0" encoding="utf-8"?>
<!-- Generator: Adobe Illustrator 23.0.1, SVG Export Plug-In . SVG Version: 6.00 Build 0)  -->
<svg version="1.1" id="Calque_1" xmlns="http://www.w3.org/2000/svg" xmlns:xlink="http://www.w3.org/1999/xlink" x="0px" y="0px"
	 width="400px" height="99px" viewBox="0 0 400 99" style="enable-background:new 0 0 400 99;" xml:space="preserve">
<style type="text/css">
	.st0{fill:url(#SVGID_1_);}
	.st1{fill:url(#SVGID_2_);}
	.st2{fill:#FFFFFF;}
	.st3{font-family:'MyriadPro-Regular';}
	.st4{font-size:18.1818px;}
</style>
<title>logo</title>
<linearGradient id="SVGID_1_" gradientUnits="userSpaceOnUse" x1="163.2307" y1="-1.0321" x2="262.4869" y2="110.7628" gradientTransform="matrix(1 0 0 -1 0 106)">
	<stop  offset="0" style="stop-color:#FFFFFF"/>
	<stop  offset="6.854710e-02" style="stop-color:#E4E4E4"/>
	<stop  offset="0.1698" style="stop-color:#C2C2C2"/>
	<stop  offset="0.2536" style="stop-color:#ADADAD"/>
	<stop  offset="0.309" style="stop-color:#A6A6A6"/>
	<stop  offset="0.5309" style="stop-color:#A6A6A6"/>
	<stop  offset="0.7404" style="stop-color:#B3B3B3"/>
	<stop  offset="0.8922" style="stop-color:#CCCCCC"/>
</linearGradient>
<path class="st0" d="M252.4,67.6V27.8c0-3.1-0.8-5.2-2.4-6.7c-1.7-1.7-4-2.5-6.9-2.5c-0.2,0-0.5,0-0.7,0v39.8c0,3.1,0.8,5.2,2.4,6.7
	c1.6,1.7,4,2.5,6.9,2.5C251.9,67.6,252.2,67.6,252.4,67.6L252.4,67.6z M253.3,8.9c0-3.3-2.7-5.9-5.9-5.9s-5.9,2.7-5.9,5.9
	s2.7,5.9,5.9,5.9S253.3,12.2,253.3,8.9L253.3,8.9z M223.4,48.3v10c0,3.1,0.8,5.2,2.4,6.7c1.6,1.7,4.1,2.5,6.9,2.5c0.2,0,0.5,0,0.7,0
	V46.2c0-9.2-2.5-15.4-7-20.2c-4.6-5-11.5-7.8-19.4-7.8c-15.3,0-25.9,11.2-25.9,25.7c0,14.3,9.8,23.9,22.5,23.9
	c9.8,0,15.7-5.9,15.7-12.7c0-2.5-0.8-5.3-2.5-7.9c-1.4,7.3-5.5,11.4-12,11.4c-7,0-13.1-5.3-13.1-15c0-9.5,6.2-16,15.4-16
	c4.6,0,8.3,1.6,11.1,4.4C221.4,35.4,223.4,40.4,223.4,48.3L223.4,48.3z M301.5,54.5c-0.1,0-0.2-0.1-0.3-0.2
	C294,45,280.8,27.7,278,24c-3-3.9-5.4-5.2-8.5-5.2c-2.3,0-4.2,0.8-5.4,2.2c-1.4,1.5-2.1,3.9-2.1,6.6v30.8c0,3.1,0.8,5.2,2.4,6.7
	c1.6,1.7,4,2.5,6.7,2.5c0.2,0,0.4,0,0.6,0V32.3c0-0.2,0.1-0.4,0.3-0.4c0.1,0,0.2,0.1,0.3,0.2c4.2,5.5,20.2,26.4,23.3,30.3
	c3,3.9,5.4,5.3,8.5,5.3c2.3,0,4.2-0.8,5.4-2.2c1.4-1.5,2.2-3.9,2.2-6.6V28c0-3.1-0.8-5.2-2.4-6.7c-1.7-1.6-3.9-2.5-6.7-2.5
	c-0.2,0-0.4,0-0.5,0V54C301.8,54.3,301.7,54.5,301.5,54.5L301.5,54.5z M144.1,58.2c-0.4,0-0.7-0.1-0.7-0.4c0-0.1,0.1-0.3,0.4-0.5
	c3.1-2.5,23.4-18.9,26.5-21.4c5.4-4.3,6.5-6.5,6.5-9.5c0-1.9-0.9-3.8-2.2-4.9c-1.7-1.4-4.1-2.1-8-2.1h-34.6c0,0.2,0,0.4,0,0.5
	c0,1.8,0.4,3.7,1.3,5c1.4,2,4,3.1,7.6,3.1h22.7c0.4,0,0.7,0.1,0.7,0.4c0,0.2-0.1,0.3-0.4,0.5c-3.2,2.6-22,17.8-26.6,21.5
	c-5.4,4.3-6.5,6.5-6.5,9.6c0,1.9,0.9,3.8,2.2,4.9c1.7,1.4,4.1,2.1,8,2.1h36.2c0-0.2,0-0.2,0-0.4c0-2.5-0.7-4.8-2.2-6.2
	c-1.8-1.7-4.1-2.2-8.3-2.2L144.1,58.2L144.1,58.2z"/>
<linearGradient id="SVGID_2_" gradientUnits="userSpaceOnUse" x1="52.7111" y1="66.3385" x2="122.429" y2="66.3385" gradientTransform="matrix(1 0 0 -1 0 106)">
	<stop  offset="0" style="stop-color:#A6A6A6"/>
	<stop  offset="8.602495e-02" style="stop-color:#BABABA"/>
	<stop  offset="0.2209" style="stop-color:#D5D5D5"/>
	<stop  offset="0.3415" style="stop-color:#E5E5E5"/>
	<stop  offset="0.435" style="stop-color:#EBEBEB"/>
	<stop  offset="0.5087" style="stop-color:#DDDEDE"/>
	<stop  offset="0.7065" style="stop-color:#BDBFC0"/>
	<stop  offset="0.8157" style="stop-color:#B1B3B5"/>
</linearGradient>
<path class="st1" d="M108,28.8c0-5.7-4.4-10.1-10.8-9.6c-13.4,1-15.2,16.3-6.4,17.3c9.1,1,12.4-8.6,12.5-9.2l0,0
	c0,0.7,0.5,14-13.1,14c-7,0-10.7-5.7-10.7-10.8c0-7.4,7.2-14.7,17.3-15.2c5.7-0.2,9.4,1.1,12.4,4.1c6,6,4.3,17.2-0.6,22.7
	c-7.7,8.8-18.5,11-28.6,6.5s-13.6-17.6-7.5-28.5c2.2-4,10.4-13,24.4-13c17.8,0,26.8,12.6,25.2,27.4c-1.2,11.4-8.2,19.6-11.4,23
	c-14,15.3-34.6,18.3-47.6,10.4C56,63.6,51.9,55.7,52.8,46.9c0.8,6.4,4,12,9.3,15.6c10.7,7.2,28.4,8.2,41.3-5.9
	c-12.9,9.6-28,9.5-38.3,2.8c-9.5-6.2-12.1-18.5-7.5-30.6c-2.3,10.8,1.4,20.8,9.6,26.1c12.8,8.2,31.4,3.5,43.1-9.6
	c4-4.5,6.3-10.5,6.2-16c-0.1-9.2-6.5-17.5-19.5-17.5c-13.3,0-22.4,10.2-22.4,18.8c0,9.5,6.5,14.9,15,14.9
	C98.1,45.4,108,40.1,108,28.8z"/>
<text transform="matrix(1 0 0 1 128.2993 97.4541)" class="st2 st3 st4">For Zain Subscribers</text>
</svg>
