<?xml version="1.0" encoding="utf-8"?>
<!-- Generator: Adobe Illustrator 23.0.1, SVG Export Plug-In . SVG Version: 6.00 Build 0)  -->
<svg version="1.1" id="Layer_1" xmlns="http://www.w3.org/2000/svg" xmlns:xlink="http://www.w3.org/1999/xlink" x="0px" y="0px"
	 width="300px" height="300px" viewBox="0 0 300 300" style="enable-background:new 0 0 300 300;" xml:space="preserve">
<style type="text/css">
	.st0{fill:#FFFFFF;}
	.st1{display:none;}
	.st2{display:inline;fill:#1CBC0F;}
	.st3{fill-rule:evenodd;clip-rule:evenodd;fill:#FFCF03;}
	.st4{display:inline;fill:#DD1F1F;}
</style>
<g id="Layer_4">
	<polygon class="st0" points="125,98.1 175,98 175,229.9 125,230 	"/>
</g>
<g class="st1">
	<path class="st2" d="M150,17.5C77,17.5,17.5,76.7,17.5,150c0,73,59.5,132.5,132.5,132.5S282.5,223,282.5,150
		C282.5,76.7,223,17.5,150,17.5z M216.8,115.3l-83.9,83.9c-1.2,1.2-2.6,1.8-4.1,1.8s-2.9-0.6-4.1-1.8L83.5,158
		c-2.4-2.4-2.4-5.9,0-8.2c2.4-2.4,5.9-2.4,8.2,0l37.1,37.1l79.8-79.8c2.4-2.4,5.9-2.4,8.2,0C219.2,109.1,219.2,112.9,216.8,115.3z"
		/>
</g>
<g id="Layer_3">
	<g>
		<path class="st3" d="M164.8,48.2l101.2,176c6.6,10.3-1.5,24.2-13.9,24.2c0,0-186.2,0-203.1,0c-11.7,0-21.3-13.2-13.2-25.7
			C69.5,164,103.2,106.1,137,48.2C142.8,37.2,159,37.2,164.8,48.2z M138.4,112.7c0-13.2,20.5-13.2,20.5,0v60.9
			c0,13.2-20.5,13.2-20.5,0V112.7z M159,201.4c0,13.2-20.5,13.2-20.5-0.7C138.4,188.2,159,187.5,159,201.4z"/>
	</g>
</g>
<g class="st1">
	<path class="st4" d="M150.1,17.5C77.4,17.5,18.6,76.4,18.6,149s58.9,131.5,131.5,131.5S281.6,221.6,281.6,149
		S222.7,17.5,150.1,17.5z M150.1,87.9c6.1,0,11,4.9,11,11l-2.8,65.8c-0.3,5.9-4.9,8.2-8.2,8.2c-3.7,0-7.9-2-8.2-8.2l-2.8-65.8
		C139.1,92.8,144,87.9,150.1,87.9z M160,206.2c-2.6,2.6-6.2,4.1-10,4.1c-3.7,0-7.4-1.5-10-4.1s-4.1-6.3-4.1-10s1.5-7.3,4.1-9.9
		s6.3-4.1,10-4.1s7.3,1.5,10,4.1c2.6,2.6,4.1,6.3,4.1,9.9C164.2,199.9,162.7,203.6,160,206.2z"/>
</g>
</svg>
