<?xml version="1.0" encoding="utf-8"?>
<!-- Generator: Adobe Illustrator 25.1.0, SVG Export Plug-In . SVG Version: 6.00 Build 0)  -->
<svg version="1.1" id="Layer_1" xmlns="http://www.w3.org/2000/svg" xmlns:xlink="http://www.w3.org/1999/xlink" x="0px" y="0px"
	 viewBox="0 0 300 300" style="enable-background:new 0 0 300 300;" xml:space="preserve">
<style type="text/css">
	.st0{fill-rule:evenodd;clip-rule:evenodd;fill:#FFFFFF;}
</style>
<g>
	<g>
		<path class="st0" d="M199.7,184.8l56.1,56.1c4.3,4.3,4.4,11.5,0,15.9s-11.5,4.3-15.9,0l-56.1-56.1c-35.3,27.4-86.2,24.9-118.5-7.5
			c-35.1-35-35.1-91.9-0.1-126.9s91.9-35.1,127,0C224.6,98.7,227.1,149.6,199.7,184.8L199.7,184.8z M176.3,177.3
			c26.3-26.3,26.3-68.9,0-95.3S107.4,55.7,81,82s-26.3,68.9,0,95.3S150.1,203.7,176.3,177.3z"/>
	</g>
</g>
</svg>
