<?xml version="1.0" encoding="utf-8"?>
<!-- Generator: Adobe Illustrator 25.1.0, SVG Export Plug-In . SVG Version: 6.00 Build 0)  -->
<svg version="1.1" id="Layer_1" xmlns="http://www.w3.org/2000/svg" xmlns:xlink="http://www.w3.org/1999/xlink" x="0px" y="0px"
	 viewBox="0 0 228 94" style="enable-background:new 0 0 228 94;" xml:space="preserve">
<style type="text/css">
	.st0{fill:#ED1B2F;}
</style>
<g id="Layer_3">
</g>
<g id="layer1">
	<g id="g6759">
		<g id="g6252">
			<path id="path6254" class="st0" d="M86.5,31.8h-13v34.3h13c5.2,0,9.7-1.6,12.9-4.7c3.2-3.1,4.9-7.4,4.9-12.4s-1.7-9.4-4.9-12.4
				S91.7,31.8,86.5,31.8 M80.8,38.7h5.6c6.5,0,10.2,3.7,10.2,10.3c0,6.4-3.8,10.3-10.2,10.3h-5.6V38.7z"/>
		</g>
		<g id="g6256">
			<path id="path6258" class="st0" d="M111,30.5c-2.4,0-4.3,1.9-4.3,4.3c0,2.3,1.8,4.3,4.2,4.3c0,0,0.1,0,0.1,0
				c2.4,0,4.3-1.9,4.3-4.3C115.4,32.5,113.5,30.6,111,30.5"/>
		</g>
		<path id="path6260" class="st0" d="M107.6,66.1h6.9V42.2h-6.9V66.1z"/>
		<g id="g6262">
			<path id="path6264" class="st0" d="M136,44.3c-1.7-1.8-4.1-2.7-6.9-2.7c-2.9,0-5.7,1.2-7.7,3.4c-2.1,2.3-3.3,5.4-3.3,8.8
				s1.2,6.6,3.3,8.8c2.1,2.2,4.8,3.4,7.7,3.4c2.8,0,5.2-0.9,6.9-2.7v0.9c0,3.7-2.4,5.9-6.3,5.9c-2.7,0-5.2-0.8-7.5-2.3l-0.3-0.2
				l-2.5,5.7l0.2,0.1c2.5,1.8,6.4,2.9,10.4,2.9c7.9,0,12.9-4.7,12.9-12.3V42.2H136V44.3z M130.6,59.6c-3.2,0-5.6-2.4-5.6-5.8
				c0-3.4,2.3-5.8,5.6-5.8c3.3,0,5.6,2.4,5.6,5.8C136.2,57.2,133.9,59.6,130.6,59.6"/>
		</g>
		<g id="g6266">
			<path id="path6268" class="st0" d="M150.9,30.5c-2.4,0-4.3,1.9-4.3,4.3c0,2.3,1.9,4.3,4.2,4.3c0,0,0.1,0,0.1,0
				c2.4,0,4.3-1.9,4.3-4.3C155.2,32.4,153.3,30.5,150.9,30.5"/>
		</g>
		<path id="path6270" class="st0" d="M147.5,66.1h6.9V42.2h-6.9V66.1z"/>
		<g id="g6272">
			<path id="path6274" class="st0" d="M175.4,58c-1.4,1.5-3,2.3-4.9,2.3c-3.2,0-5.5-2.6-5.5-6.1c0-3.6,2.3-6.1,5.6-6.1
				c1.8,0,3.3,0.7,4.8,2.2l0.2,0.2l5-4.1l-0.2-0.2c-2.2-2.9-5.6-4.5-9.6-4.5c-7.5,0-12.7,5.2-12.7,12.6s5.2,12.6,12.7,12.6
				c3.9,0,7.3-1.6,9.6-4.5l0.2-0.2l-4.9-4.2L175.4,58z"/>
		</g>
		<g id="g6276">
			<path id="path6278" class="st0" d="M221.2,65.8c-1.2,0.2-2.4,0.3-3.7,0.3c-6.5,0-8.6-3.3-8.6-9v-24h6.8v23.3
				c0,2.6,0.8,3.5,2.9,3.7c0.9,0.1,1.7,0,2.5-0.1L221.2,65.8z"/>
		</g>
		<g id="g6280">
			<path id="path6282" class="st0" d="M200.4,58.7c-1.6,1.3-3.7,2.1-5.6,2.1c-3,0-4.9-1.5-5.6-4.3h16.4l0-0.3
				c0.1-0.7,0.1-1.4,0.1-2.2l0,0c0-3.6-1.1-6.8-3.2-9c-2.1-2.3-5-3.5-8.4-3.5c-3.5,0-6.5,1.2-8.7,3.5c-2.2,2.3-3.4,5.5-3.4,9.1
				s1.2,6.8,3.5,9.1c2.2,2.2,5.3,3.4,8.9,3.4c3.3,0,6.2-0.8,8.6-2.4c0.7-0.5,1.4-1.1,2-1.8L200.4,58.7z M194.1,47.6
				c2.4,0,4.1,1.4,4.7,4.1h-9.6C189.6,49.7,190.9,47.6,194.1,47.6"/>
		</g>
	</g>
</g>
<path class="st0" d="M55.7,51V32.4h-49V51c0,7.5,2.3,13.9,6.7,18.4c4.4,4.6,10.5,7,17.8,7s13.4-2.4,17.8-7
	C53.4,64.8,55.7,58.4,55.7,51 M45.9,42.8v8c0,9.3-5.3,14.6-14.7,14.6c-9.2,0-14.7-5.5-14.7-14.6v-8H45.9z M40.7,21.7
	c0-2.2,1.8-4,4-4c2.2,0,4,1.8,4,4c0,2.2-1.8,4-4,4c0,0,0,0,0,0C42.5,25.7,40.7,23.9,40.7,21.7C40.7,21.7,40.7,21.7,40.7,21.7
	 M17.7,25.7c2.2,0,4-1.8,4-4s-1.8-4-4-4s-4,1.8-4,4c0,0,0,0,0,0C13.7,23.9,15.5,25.7,17.7,25.7"/>
</svg>
