<?xml version="1.0" encoding="utf-8"?>
<!-- Generator: Adobe Illustrator 25.1.0, SVG Export Plug-In . SVG Version: 6.00 Build 0)  -->
<svg version="1.1" id="Layer_1" xmlns="http://www.w3.org/2000/svg" xmlns:xlink="http://www.w3.org/1999/xlink" x="0px" y="0px"
	 viewBox="0 0 462.1 94" style="enable-background:new 0 0 462.1 94;" xml:space="preserve">
<style type="text/css">
	.st0{fill:#ED1B2F;}
</style>
<g id="Layer_3">
</g>
<g id="layer1">
	<g id="g6759">
		<g id="g6252">
			<path id="path6254" class="st0" d="M189.9,24.3h-19.4v51.2h19.4c7.8,0,14.5-2.4,19.3-7c4.8-4.6,7.3-11,7.3-18.6s-2.5-14-7.3-18.6
				C204.4,26.8,197.7,24.3,189.9,24.3 M181.4,34.6h8.4c9.7,0,15.3,5.6,15.3,15.4c0,9.6-5.7,15.4-15.3,15.4h-8.4V34.6z"/>
		</g>
		<g id="g6256">
			<path id="path6258" class="st0" d="M226.6,22.4c-3.6,0-6.4,2.8-6.4,6.5c0,3.5,2.8,6.4,6.3,6.4c0.1,0,0.1,0,0.2,0
				c3.6,0,6.4-2.8,6.4-6.4C233,25.2,230.2,22.4,226.6,22.4"/>
		</g>
		<path id="path6260" class="st0" d="M221.5,75.6h10.3V39.8h-10.3V75.6z"/>
		<g id="g6262">
			<path id="path6264" class="st0" d="M263.9,43c-2.6-2.7-6.1-4.1-10.4-4.1c-4.4,0-8.5,1.8-11.5,5c-3.2,3.4-5,8.1-5,13.2
				s1.8,9.8,5,13.2c3.1,3.2,7.2,5,11.5,5c4.3,0,7.7-1.3,10.3-4v1.3c0,5.5-3.5,8.8-9.5,8.8c-4,0-7.8-1.2-11.3-3.5l-0.4-0.3l-3.7,8.5
				l0.3,0.2c3.8,2.7,9.6,4.3,15.5,4.3c11.9,0,19.3-7,19.3-18.4V39.8h-10.1V43z M255.9,65.9c-4.8,0-8.3-3.7-8.3-8.7
				c0-5.1,3.5-8.7,8.3-8.7c4.9,0,8.3,3.6,8.3,8.7C264.2,62.2,260.7,65.9,255.9,65.9"/>
		</g>
		<g id="g6266">
			<path id="path6268" class="st0" d="M286.2,22.4c-3.6,0-6.4,2.8-6.4,6.5c0,3.5,2.8,6.4,6.3,6.4c0,0,0.1,0,0.1,0
				c3.6,0,6.4-2.8,6.4-6.4C292.6,25.2,289.8,22.4,286.2,22.4"/>
		</g>
		<path id="path6270" class="st0" d="M281.1,75.6h10.3V39.8h-10.3V75.6z"/>
		<g id="g6272">
			<path id="path6274" class="st0" d="M322.8,63.5c-2,2.2-4.5,3.4-7.3,3.4c-4.8,0-8.3-3.9-8.3-9.2s3.5-9.2,8.3-9.2
				c2.8,0,5,1,7.1,3.4l0.3,0.3l7.4-6.2l-0.3-0.3c-3.3-4.4-8.4-6.8-14.3-6.8c-11.2,0-19,7.7-19,18.8s7.8,18.8,19,18.8
				c5.9,0,11-2.4,14.3-6.7l0.3-0.3l-7.3-6.3L322.8,63.5z"/>
		</g>
		<g id="g6276">
			<path id="path6278" class="st0" d="M391.4,75.1c-1.8,0.3-3.6,0.4-5.5,0.4c-9.7,0-12.9-5-12.9-13.5V26.1h10.2V61
				c0,3.9,1.1,5.3,4.4,5.5c1.3,0.1,2.5,0,3.8-0.1L391.4,75.1z"/>
		</g>
		<g id="g6280">
			<path id="path6282" class="st0" d="M360.2,64.5c-2.4,2-5.5,3.2-8.4,3.2c-4.4,0-7.4-2.3-8.4-6.4h24.6l0.1-0.4
				c0.1-1.1,0.2-2.1,0.2-3.2l0,0c0-5.4-1.7-10.1-4.8-13.5c-3.1-3.4-7.5-5.2-12.5-5.2c-5.2,0-9.8,1.8-13,5.2c-3.3,3.4-5,8.2-5,13.6
				s1.8,10.2,5.2,13.5c3.4,3.4,8,5.1,13.4,5.1c5,0,9.3-1.2,12.8-3.6c1.1-0.8,2.1-1.7,2.9-2.7L360.2,64.5z M350.7,47.9
				c3.6,0,6.1,2.2,7,6.1h-14.4C344.1,51.1,345.9,47.9,350.7,47.9"/>
		</g>
	</g>
</g>
<path class="st0" d="M143.8,52.9V25.1H70.6v27.8c0,11.2,3.5,20.7,10,27.5c6.6,6.8,15.8,10.4,26.6,10.4s20-3.6,26.6-10.4
	S143.8,64.1,143.8,52.9 M129.2,40.7v12c0,13.9-8,21.9-21.9,21.9c-13.7,0-21.9-8.2-21.9-21.9v-12H129.2z M121.4,9.1c0-3.3,2.7-6,6-6
	c3.3,0,6,2.7,6,6s-2.7,6-6,6c0,0,0,0,0,0C124.1,15.1,121.4,12.4,121.4,9.1C121.4,9.1,121.4,9.1,121.4,9.1 M87.1,15.1
	c3.3,0,6-2.7,6-6s-2.7-6-6-6c-3.3,0-6,2.7-6,6c0,0,0,0,0,0C81.1,12.4,83.8,15.1,87.1,15.1"/>
</svg>
