<?xml version="1.0" encoding="utf-8"?>
<!-- Generator: Adobe Illustrator 25.1.0, SVG Export Plug-In . SVG Version: 6.00 Build 0)  -->
<svg version="1.1" id="Calque_1" xmlns="http://www.w3.org/2000/svg" xmlns:xlink="http://www.w3.org/1999/xlink" x="0px" y="0px"
	 viewBox="0 0 637.5 120.5" style="enable-background:new 0 0 637.5 120.5;" xml:space="preserve">
<style type="text/css">
	.st0{fill:#ED1B2F;}
</style>
<g id="layer1">
	<g id="g6759">
		<g id="g6252">
			<path id="path6254" class="st0" d="M271.4,33.7h-22.5v59.4h22.5c9.1,0,16.8-2.8,22.3-8.1s8.5-12.8,8.5-21.5s-2.9-16.2-8.5-21.6
				S280.5,33.7,271.4,33.7 M261.5,45.6h9.8c11.3,0,17.7,6.5,17.7,17.8c0,11.1-6.6,17.8-17.7,17.8h-9.8V45.6z"/>
		</g>
		<g id="g6256">
			<path id="path6258" class="st0" d="M313.9,31.5c-4.2,0-7.4,3.3-7.4,7.5c-0.1,4.1,3.2,7.4,7.2,7.4c0.1,0,0.1,0,0.2,0
				c4.2,0,7.5-3.3,7.5-7.4C321.4,34.8,318.1,31.5,313.9,31.5"/>
		</g>
		<path id="path6260" class="st0" d="M308,93.1h11.9V51.7H308V93.1z"/>
		<g id="g6262">
			<path id="path6264" class="st0" d="M357.1,55.4c-3-3.1-7.1-4.7-12-4.7c-5.1,0-9.8,2.1-13.3,5.8c-3.7,3.9-5.7,9.3-5.7,15.3
				s2,11.4,5.7,15.3c3.6,3.8,8.3,5.8,13.3,5.8c4.9,0,8.9-1.6,11.9-4.6v1.5c0,6.4-4.1,10.2-11,10.2c-4.6,0-9-1.4-13.1-4l-0.5-0.3
				l-4.3,9.8l0.3,0.2c4.4,3.1,11.1,5,18,5c13.8,0,22.3-8.2,22.3-21.3V51.7h-11.7V55.4z M347.8,81.9c-5.6,0-9.7-4.2-9.7-10.1
				c0-5.9,4.1-10.1,9.7-10.1c5.7,0,9.6,4.2,9.6,10.1C357.4,77.6,353.4,81.9,347.8,81.9"/>
		</g>
		<g id="g6266">
			<path id="path6268" class="st0" d="M382.9,31.5c-4.2,0-7.4,3.3-7.4,7.5c0,4.1,3.2,7.4,7.3,7.4c0.1,0,0.1,0,0.2,0
				c4.2,0,7.5-3.3,7.5-7.4C390.4,34.8,387.1,31.5,382.9,31.5"/>
		</g>
		<path id="path6270" class="st0" d="M377.1,93.1h11.9V51.7h-11.9V93.1z"/>
		<g id="g6272">
			<path id="path6274" class="st0" d="M425.4,79.1c-2.4,2.6-5.3,3.9-8.4,3.9c-5.5,0-9.6-4.5-9.6-10.6c0-6.2,4-10.6,9.6-10.6
				c3.2,0,5.7,1.2,8.3,3.9l0.3,0.4l8.6-7.2l-0.3-0.4c-3.8-5-9.7-7.8-16.6-7.8c-13,0-22,9-22,21.8s9.1,21.8,22,21.8
				c6.8,0,12.7-2.8,16.6-7.8l0.3-0.4l-8.5-7.3L425.4,79.1z"/>
		</g>
		<g id="g6276">
			<path id="path6278" class="st0" d="M504.8,92.6c-2.1,0.3-4.2,0.5-6.3,0.5c-11.2,0-14.9-5.8-14.9-15.7V35.8h11.8v40.4
				c0,4.6,1.3,6.1,5.1,6.4c1.5,0.1,3,0,4.4-0.2L504.8,92.6z"/>
		</g>
		<g id="g6280">
			<path id="path6282" class="st0" d="M468.7,80.2c-2.8,2.3-6.4,3.7-9.8,3.7c-5.1,0-8.6-2.6-9.7-7.4h28.4l0.1-0.4
				c0.1-1.2,0.2-2.5,0.2-3.7l0,0c0-6.3-2-11.7-5.6-15.7s-8.7-6.1-14.5-6.1c-6.1,0-11.3,2.1-15.1,6.1c-3.8,4-5.8,9.4-5.8,15.8
				s2.1,11.8,6,15.7c3.9,3.9,9.2,5.9,15.5,5.9c5.8,0,10.8-1.3,14.8-4.1c1.3-0.9,2.4-1.9,3.4-3.1L468.7,80.2z M457.7,61
				c4.2,0,7.1,2.5,8.2,7.1h-16.6C450,64.7,452.1,61,457.7,61"/>
		</g>
	</g>
</g>
<path class="st0" d="M218,66.8V34.7h-84.8v32.2c0,13,4,24,11.6,31.9c7.6,7.9,18.3,12.1,30.8,12.1c12.5,0,23.2-4.2,30.8-12.1
	C214,90.8,218,79.8,218,66.8 M201,52.7v13.9c0,16.1-9.3,25.3-25.4,25.3c-15.9,0-25.4-9.5-25.4-25.3V52.7H201z M192,16.1
	c0-3.8,3.1-7,7-7c3.8,0,7,3.1,7,7s-3.1,7-7,7c0,0,0,0,0,0C195.1,23.1,192,20,192,16.1C192,16.1,192,16.1,192,16.1 M152.3,23.1
	c3.8,0,7-3.1,7-7s-3.1-7-7-7c-3.8,0-7,3.1-7,7c0,0,0,0,0,0C145.3,20,148.4,23.1,152.3,23.1"/>
</svg>
