<?xml version="1.0" encoding="utf-8"?>
<!-- Generator: Adobe Illustrator 19.2.1, SVG Export Plug-In . SVG Version: 6.00 Build 0)  -->
<svg version="1.1" id="Calque_1" xmlns="http://www.w3.org/2000/svg" xmlns:xlink="http://www.w3.org/1999/xlink" x="0px" y="0px"
	 viewBox="0 0 503 94" style="enable-background:new 0 0 503 94;" xml:space="preserve">
<style type="text/css">
	.st0{fill:#FF0055;}
	.st1{fill:#1E1A34;}
</style>
<title>logo</title>
<g>
	<g>
		<path class="st0" d="M1.2,55.9c0-4.1,0.4-7.7,1.3-10.8c0.9-3.1,2-5.7,3.5-7.9c1.6-2.3,3.1-4.1,5-5.7s3.7-2.7,5.7-3.7
			c4.6-2.3,9.8-3.5,15.7-3.6c5.7,0.2,10.9,1.3,15.5,3.6c1.9,0.9,3.9,2.2,5.7,3.7c1.9,1.6,3.6,3.5,5,5.7c1.6,2.3,2.6,4.9,3.6,7.9
			c1,3.1,1.4,6.7,1.4,10.8s-0.4,7.7-1.4,10.8c-1,3.1-2,5.7-3.6,7.9c-1.6,2.2-3.1,3.9-5,5.5s-3.7,2.6-5.7,3.6
			c-4.5,2-9.8,3.2-15.5,3.3c-5.9-0.2-11-1.3-15.7-3.3c-1.9-0.9-3.9-2.2-5.7-3.6c-1.9-1.6-3.6-3.3-5-5.5c-1.6-2.2-2.6-4.7-3.5-7.9
			C1.6,63.6,1.2,60,1.2,55.9z M32.2,38.3c-3.2,0-5.9,0.6-7.8,1.8c-2,1.3-3.5,2.6-4.5,4.5c-1,1.8-1.8,3.7-2,5.7
			c-0.4,2-0.6,3.9-0.6,5.7c0,1.8,0.2,3.7,0.6,5.7s1,3.9,2,5.7c1,1.8,2.6,3.2,4.5,4.5c2,1.3,4.5,1.8,7.8,1.8c3.2,0,5.9-0.6,7.8-1.8
			c2-1.3,3.5-2.6,4.5-4.5c1-1.8,1.8-3.7,2-5.7c0.4-2,0.6-3.9,0.6-5.7c0-1.8-0.2-3.6-0.6-5.7c-0.4-2-1-3.9-2-5.7
			c-1-1.8-2.5-3.2-4.5-4.5C38.1,39,35.5,38.3,32.2,38.3z"/>
		<path class="st0" d="M100.5,24.5c0.2,0,1.3,0,2.8,0.2c1.7,0.2,3.5,0.4,5.7,0.9c2.2,0.6,4.5,1.6,6.9,2.8c2.4,1.3,4.7,3.1,6.8,5.4
			c2,2.3,3.9,5.3,5.1,8.8c1.4,3.6,2,8.1,2,13.2v29.8h-16V55.9c0-1.8-0.2-3.5-0.6-5.3s-1-3.5-2-5c-0.9-1.6-2.3-2.7-4.1-3.7
			c-1.8-0.9-4.1-1.6-6.9-1.6s-5.3,0.6-6.9,1.6c-1.8,0.9-3.1,2.3-4.1,3.7c-0.9,1.6-1.7,3.1-2,5c-0.4,1.8-0.6,3.6-0.6,5.3v29.8H71
			V55.9c0-5.3,0.6-9.8,2-13.2c1.4-3.6,3.1-6.5,5.1-8.8s4.3-4.2,6.8-5.4c2.4-1.2,4.7-2.2,6.9-2.8c2.2-0.6,4.1-0.9,5.7-0.9
			C99.1,24.5,100.1,24.5,100.5,24.5z"/>
		<g>
			<path class="st1" d="M240.1,45.3c-0.9-3.1-2-5.7-3.3-7.9c-1.4-2.3-2.9-4.1-4.7-5.7s-3.6-2.7-5.4-3.7c-4.2-2.2-9.1-3.5-14.7-3.6
				c-5.7,0.2-10.5,1.3-14.9,3.6c-1.8,0.9-3.7,2.2-5.4,3.7c-0.4,0.4-0.9,0.8-1.3,1.3c-0.4-0.4-0.9-0.9-1.4-1.3
				c-1.8-1.6-3.6-2.7-5.4-3.7c-4.2-2.2-9.1-3.5-14.7-3.6c-5.7,0.2-10.5,1.3-14.9,3.6c-1.8,0.9-3.7,2.2-5.4,3.7
				c-1.8,1.6-3.3,3.5-4.7,5.7c-1.4,2.3-2.6,4.9-3.3,7.9c-0.9,3.1-1.3,6.7-1.3,10.8v29.8h15.9v-30c0-1.8,0.2-3.5,0.4-5.3
				s0.8-3.5,1.7-5c0.9-1.6,2.2-2.7,3.9-3.7c1.8-0.9,4.2-1.6,7.6-1.6c3.2,0,5.7,0.6,7.6,1.6c1.8,0.9,3.1,2.3,3.9,3.7
				c0.9,1.6,1.4,3.1,1.7,5s0.4,3.6,0.4,5.3v29.8h16V55.9c0-1.8,0.2-3.5,0.4-5.3s0.8-3.5,1.7-5c0.9-1.6,2.2-2.7,3.9-3.7
				c1.8-0.9,4.2-1.6,7.6-1.6c3.2,0,5.7,0.6,7.6,1.6c1.8,0.9,3.1,2.3,3.9,3.7c0.9,1.6,1.4,3.1,1.7,5c0.2,1.8,0.4,3.6,0.4,5.3v29.8h16
				V55.9C241.5,51.8,240.9,48.2,240.1,45.3z"/>
		</g>
		<g>
			<g>
				<path class="st1" d="M249,55.9c0-4.1,0.4-7.7,1.3-10.8c0.9-3.1,2-5.7,3.5-7.9c1.6-2.3,3.1-4.1,5-5.7s3.7-2.7,5.7-3.7
					c4.5-2.2,9.8-3.5,15.7-3.6c5.7,0.2,10.9,1.3,15.5,3.6c1.9,0.9,3.9,2.2,5.7,3.7c1.9,1.6,3.6,3.5,5,5.7c1.6,2.3,2.6,4.9,3.6,7.9
					c0.9,3.1,1.4,6.7,1.4,10.8s-0.4,7.7-1.4,10.8c-0.9,3.1-2,5.7-3.6,7.9c-1.6,2.2-3.1,3.9-5,5.5s-3.7,2.6-5.7,3.6
					c-4.5,2-9.8,3.2-15.5,3.3c-5.9-0.2-11-1.3-15.7-3.3c-1.9-0.9-3.9-2.2-5.7-3.6c-1.9-1.6-3.6-3.3-5-5.5c-1.6-2.2-2.6-4.7-3.5-7.9
					C249.4,63.6,249,60,249,55.9z M280.2,38.3c-3.2,0-5.9,0.6-7.8,1.8c-2,1.3-3.5,2.6-4.5,4.5c-1,1.8-1.8,3.7-2,5.7
					c-0.4,2-0.6,3.9-0.6,5.7c0,1.8,0.2,3.7,0.6,5.7s1,3.9,2,5.7c1,1.8,2.6,3.2,4.5,4.5s4.5,1.8,7.8,1.8c3.2,0,5.9-0.6,7.8-1.8
					c2-1.3,3.5-2.6,4.5-4.5c1-1.8,1.8-3.7,2-5.7c0.4-2,0.6-3.9,0.6-5.7c0-1.8-0.2-3.6-0.6-5.7c-0.4-2-1-3.9-2-5.7
					c-1-1.8-2.6-3.2-4.5-4.5C285.9,39,283.3,38.3,280.2,38.3z"/>
			</g>
		</g>
		<g>
			<g>
				<path class="st1" d="M389.4,12.6c0-1.8,0-3.1,0.2-3.9c0-0.9,0.2-1.6,0.8-1.9c0.6-0.4,1.3-0.6,2.3-0.6c1.2,0,2.7-0.2,4.7-0.2
					s3.7,0,4.7,0.2c1.2,0,1.9,0.2,2.3,0.6c0.6,0.4,0.8,1,0.8,1.9s0.2,2.2,0.2,3.9s0,3.1-0.2,3.9c-0.2,0.9-0.4,1.6-0.8,1.9
					c-0.6,0.4-1.3,0.6-2.3,0.6c-1.2,0-2.7,0.2-4.7,0.2s-3.7,0-4.7-0.2c-1.2,0-1.9-0.2-2.3-0.6c-0.6-0.4-0.8-1-0.8-1.9
					C389.4,15.7,389.4,14.3,389.4,12.6z M405.5,25.9v59.8h-16V25.9H405.5z"/>
			</g>
		</g>
		<g>
			<g>
				<path class="st1" d="M432,6.2v79.5h-16V6.2H432z"/>
			</g>
		</g>
		<g>
			<path class="st1" d="M334.5,55.9c0,0.2,0,0.4,0,0.6v-1.3C334.6,55.5,334.5,55.7,334.5,55.9z"/>
		</g>
		<g>
			<path class="st1" d="M334.6,57.3L334.6,57.3c0-0.2,0-0.4,0-0.6V57.3z"/>
		</g>
		<g>
			<path class="st1" d="M379.4,45.3c-0.9-3.1-1.9-5.7-3.3-7.9c-1.4-2.3-2.8-4.1-4.6-5.7c-1.8-1.6-3.5-2.7-5.3-3.7
				c-4.2-2.2-9-3.5-14.5-3.6c-2.7,0.2-5.3,0.8-7.8,1.8c-0.6,0.2-1.4,0.6-2,0.9V40c1.9-1.2,4.5-1.8,7.8-1.8s5.9,0.6,7.8,1.8
				c2,1.3,3.5,2.6,4.5,4.5c1,1.8,1.8,3.7,2,5.7c0.4,2,0.6,3.9,0.6,5.7c0,1.8-0.2,3.7-0.6,5.7s-1,3.9-2,5.7c-1,1.8-2.6,3.2-4.5,4.5
				c-2,1.3-4.5,1.8-7.8,1.8c-3.2,0-5.9-0.6-7.8-1.8c-2-1.3-3.5-2.6-4.6-4.5c-1.2-1.8-1.8-3.7-2.2-5.7c-0.2-1.6-0.4-2.9-0.4-4.3l0,0
				v-51H319V56c0,4.1,0.4,7.7,1.3,10.8c0.9,3.1,2,5.7,3.5,7.9c1.6,2.3,3.1,4.1,4.9,5.7s3.7,2.6,5.7,3.6c4.5,2,9.6,3.2,15.3,3.3
				c5.7-0.2,10.9-1.3,15.5-3.3c1.9-0.9,3.9-2.2,5.7-3.6c1.9-1.6,3.6-3.3,5-5.5c1.6-2.2,2.6-4.7,3.6-7.9c0.9-3.1,1.4-6.7,1.4-10.8
				C380.7,51.8,380.2,48.2,379.4,45.3z"/>
		</g>
		<path class="st1" d="M457.1,56.7v-1.6c0,0.2-0.2,0.4-0.2,0.6C457.1,56.1,457.1,56.4,457.1,56.7z"/>
		<path class="st1" d="M457.1,56.7v-1.6c0,0.2-0.2,0.4-0.2,0.6C457.1,56.1,457.1,56.4,457.1,56.7z"/>
		<g>
			<path class="st1" d="M457.4,60.2c-0.2-0.4-0.2-0.9-0.2-1.3S457,58.3,457,58c0-0.4-0.2-0.9-0.2-1.4c0-0.2-0.2-0.6-0.2-0.8
				c0-0.2,0-0.4,0.2-0.6c0.2-2.4,0.4-4.7,0.9-6.9c0.2-0.2,0.2-0.6,0.2-0.8c0.2-0.4,0.2-0.9,0.4-1.3c0.2-0.2,0.2-0.6,0.4-0.9
				s0.2-0.6,0.4-0.9c0.6-1.3,1.7-2.4,2.8-3.5c1.2-1,2.6-1.8,4.1-2.4s3.5-0.9,5.5-0.9s3.9,0.2,5.5,0.9c1.6,0.6,2.9,1.4,4.1,2.4
				s2,2.2,2.7,3.5c0.6,1.3,1.3,2.6,1.7,3.7h-21.4v9.7H503v-2c0-1.4-0.2-2.8-0.2-3.9c-0.2-1.3-0.2-2.4-0.4-3.7
				c-0.6-3.1-1.4-5.7-2.6-8.1c-1.3-2.3-2.6-4.3-4.1-6.1c-1.6-1.7-3.2-3.1-5-4.2c-1.8-1.2-3.6-2-5.3-2.8c-4.2-1.7-8.7-2.6-13.5-2.7
				c-5.9,0.2-11,1.3-15.7,3.6c-1.9,0.9-3.9,2.2-5.7,3.7c-1.9,1.6-3.6,3.5-5,5.7c-1.6,2.3-2.6,4.9-3.5,7.9c-0.9,3.1-1.3,6.7-1.3,10.8
				c0,4.1,0.4,7.7,1.3,10.8c0.9,3.1,2,5.7,3.5,7.9c1.6,2.2,3.1,3.9,5,5.5s3.7,2.6,5.7,3.6c4.5,2,9.8,3.2,15.7,3.3
				c4.5,0,8.7-0.6,12.7-2c1.7-0.6,3.5-1.4,5.1-2.4c1.8-0.9,3.5-2.2,4.9-3.7c1.6-1.6,2.9-3.2,4.2-5.3s2.3-4.5,2.9-7.2h-17
				c-0.9,2-2.4,3.9-4.5,5.4c-2,1.6-4.7,2.3-8.3,2.3c-3.6,0-6.4-0.8-8.3-2.3c-1.9-1.6-3.5-3.5-4.5-5.4c-0.2-0.6-0.4-1.2-0.6-1.7
				c-0.2-0.8-0.6-1.6-0.6-2.3C457.7,61.5,457.5,60.8,457.4,60.2z"/>
		</g>
	</g>
</g>
</svg>
