<?xml version="1.0" encoding="utf-8"?>
<!-- Generator: Adobe Illustrator 24.3.0, SVG Export Plug-In . SVG Version: 6.00 Build 0)  -->
<svg version="1.1" id="Calque_1" xmlns="http://www.w3.org/2000/svg" xmlns:xlink="http://www.w3.org/1999/xlink" x="0px" y="0px"
	 viewBox="0 0 191.4 99" style="enable-background:new 0 0 191.4 99;" xml:space="preserve">
<style type="text/css">
	.st0{fill:#FFFFFF;}
	.st1{font-family:'ArialMT';}
	.st2{font-size:13.0256px;}
</style>
<text transform="matrix(1 0 0 1 5.8991 95.626)" class="st0 st1 st2">For TF-Costa Rica Subscribers</text>
<path class="st0" d="M66,18.1c-4.1,0.1-11.6,2.1-15,16.1c-1.7,6.6-1.9,13.4-0.8,20.1c1,5.6,2.5,11.1,4.7,16.4
	c0.5,1.1,1.1,2.1,1.8,3.1c1.7,2.1,4.5,2,5.6,1.4c1.3-0.6,2.7-2.1,2.2-5.6c-0.4-1.9-0.8-3.7-1.4-5.5c-1.3-4.2-3-9.2-3.1-12.8
	c-0.2-4.8,1.7-5.4,3-5.7c2.1-0.5,3.9,1.9,5.6,4.8c2,3.5,5.5,9.6,8.3,14.3c2.5,4.2,7.2,8.8,14.7,8.5c7.7-0.3,13.3-3.2,16.2-12.5
	c2.2-6.9,3.7-12,6.1-17.3c2.7-6.1,6.4-9.3,9.5-8.3c2.9,0.9,3.6,3.7,3.6,7.8c0,3.5-0.3,7.1-0.7,10.6c-0.2,1.5-0.3,2.9-0.2,4.4
	c0.2,2.4,1.2,4.7,3.8,5.1c2.8,0.4,5.1-1.9,6-4.6c0.4-1.3,0.7-2.6,0.8-3.9c0.8-5.2,1.1-10.6,0.7-15.9c-0.4-7-1.8-13.5-4.2-19
	c-2.3-5.3-6-8.7-10.8-9c-5.2-0.3-11.3,3.1-14.4,9.9c-2.9,6.2-5.2,12.6-6.7,15.9c-1.4,3.3-3.5,5.3-6.8,5.7c-4,0.4-7.4-2.5-9.9-6.6
	c-2.2-3.6-6.5-10.4-8.8-12.7C73.6,20.7,71.2,18,66,18.1z"/>
</svg>
