<?xml version="1.0" encoding="utf-8"?>
<!-- Generator: Adobe Illustrator 23.0.1, SVG Export Plug-In . SVG Version: 6.00 Build 0)  -->
<svg version="1.1" id="Calque_1" xmlns="http://www.w3.org/2000/svg" xmlns:xlink="http://www.w3.org/1999/xlink" x="0px" y="0px"
	 width="400px" height="99px" viewBox="0 0 400 99" style="enable-background:new 0 0 400 99;" xml:space="preserve">
<style type="text/css">
	.st0{fill:#FFFDFD;}
	.st1{font-family:'MyriadPro-Regular';}
	.st2{font-size:23.8682px;}
	.st3{fill:#FFFFFF;}
</style>
<title>logo</title>
<text transform="matrix(1 0 0 1 110.4657 93.0416)" class="st0 st1 st2">For STC Subscribers</text>
<path class="st3" d="M174.7,52.6c4.4,0,8.1-1.4,10.5-3.7c1.8-1.8,2.9-4.2,2.9-7c0-2.5-0.9-4.8-2.7-6.5c-1.7-1.7-4.2-3-7.3-3.6
	l-5.1-1c-2.1-0.4-3.3-1.5-3.3-2.9c0-1.9,1.9-3.2,4.8-3.2c1.9,0,3.4,0.6,4.5,1.7c0.7,0.7,1.1,1.7,1.3,2.7l7.4-1.7
	c-0.2-2.1-1.2-4-2.7-5.5c-2.4-2.4-6.1-3.9-10.5-3.9c-4,0-7.4,1.3-9.7,3.4c-2,1.9-3.1,4.4-3.1,7.2c0,2.5,0.8,4.5,2.4,6.1
	c1.6,1.6,3.9,2.8,7,3.5l5,1.2c2.5,0.6,3.6,1.5,3.6,3.2c0,2.1-1.9,3.2-4.9,3.2c-2.2,0-4-0.7-5.1-1.9c-0.8-0.8-1.3-1.9-1.3-3l-7.6,1.7
	c0.2,2.3,1.3,4.2,2.9,5.8C166.1,51,170.1,52.6,174.7,52.6z M230.7,52.6c4.9,0,8.7-1.8,11.3-4.3c2.1-2,3.3-4.3,4-6.7l-7.8-2.6
	c-0.3,1.2-1,2.5-2.1,3.4c-1.3,1.2-3,2.1-5.4,2.1c-2.3,0-4.4-0.9-5.9-2.4c-1.5-1.6-2.5-3.9-2.5-6.8c0-3,0.9-5.2,2.5-6.8
	c1.5-1.5,3.6-2.3,5.8-2.3c2.4,0,4,0.8,5.2,2c1,1,1.6,2.3,2,3.5l7.9-2.7c-0.6-2.3-1.9-4.6-3.7-6.6c-2.7-2.6-6.5-4.4-11.6-4.4
	c-4.7,0-9,1.8-12,4.8c-3,3.1-4.9,7.4-4.9,12.5s1.9,9.3,5,12.5C221.6,50.8,225.9,52.6,230.7,52.6z M203.9,52.6c3.4,0,5.9-1.1,7-2
	v-7.2c-0.8,0.6-2.4,1.3-4.4,1.3c-1.5,0-2.5-0.3-3.3-1.1c-0.7-0.7-1-1.8-1-3.3V10h-8.8v9h17.5v8.5h-17.5v15.1c0,3,0.9,5.5,2.6,7.2
	C197.8,51.6,200.5,52.6,203.9,52.6z"/>
</svg>
