<?xml version="1.0" encoding="utf-8"?>
<!-- Generator: Adobe Illustrator 23.0.1, SVG Export Plug-In . SVG Version: 6.00 Build 0)  -->
<svg version="1.1" id="Calque_1" xmlns="http://www.w3.org/2000/svg" xmlns:xlink="http://www.w3.org/1999/xlink" x="0px" y="0px"
	 width="400px" height="99px" viewBox="0 0 400 99" style="enable-background:new 0 0 400 99;" xml:space="preserve">
<style type="text/css">
	.st0{fill:#4C4C4C;}
	.st1{font-family:'MyriadPro-Regular';}
	.st2{font-size:23.8786px;}
	.st3{clip-path:url(#SVGID_2_);fill:none;}
	.st4{fill:#FFFFFF;}
	.st5{fill:#FFCB05;}
	.st6{clip-path:url(#SVGID_4_);fill:#00678F;}
	.st7{fill:#FF0000;}
</style>
<title>logo</title>
<text transform="matrix(1 0 0 1 107.0223 97.5196)" class="st0 st1 st2">For MTN Subscribers</text>
<g>
	<g>
		<defs>
			<rect id="SVGID_1_" x="148.1" y="-17.6" width="107.8" height="107.8"/>
		</defs>
		<clipPath id="SVGID_2_">
			<use xlink:href="#SVGID_1_"  style="overflow:visible;"/>
		</clipPath>
		<path class="st3" d="M202,4.6c14.9,0,27-5,27-11.1c0-6.1-12.1-11.1-27-11.1s-27,5-27,11.1C175.1-0.4,187.2,4.6,202,4.6"/>
		<path class="st3" d="M202,90.2c14.9,0,27-5,27-11.1c0-6.1-12.1-11.1-27-11.1s-27,5-27,11.1C175.1,85.2,187.2,90.2,202,90.2"/>
		<path class="st3" d="M233.7,36.3c0,14.9,5,27,11.1,27c6.1,0,11.1-12.1,11.1-27s-5-27-11.1-27C238.7,9.3,233.7,21.4,233.7,36.3"/>
		<path class="st3" d="M148.1,36.3c0,14.9,5,27,11.1,27c6.1,0,11.1-12.1,11.1-27s-5-27-11.1-27C153.1,9.3,148.1,21.4,148.1,36.3"/>
	</g>
	<rect x="170.3" y="4.6" class="st4" width="63.4" height="63.4"/>
	<rect x="173.5" y="7.7" class="st5" width="57.1" height="57.1"/>
	<g>
		<defs>
			<rect id="SVGID_3_" x="148.1" y="-17.6" width="107.8" height="107.8"/>
		</defs>
		<clipPath id="SVGID_4_">
			<use xlink:href="#SVGID_3_"  style="overflow:visible;"/>
		</clipPath>
		<path class="st6" d="M202,47.4c14.9,0,27-5,27-11.1c0-6.1-12.1-11.1-27-11.1s-27,5-27,11.1C175.1,42.4,187.2,47.4,202,47.4"/>
	</g>
	<polygon class="st5" points="208.8,33.5 209.5,30.7 200.3,30.7 199.6,33.5 202.6,33.5 201.1,39.4 204.3,39.4 205.8,33.5 	"/>
	<polygon class="st4" points="199.5,30.7 194.9,30.7 192,37.2 192,30.7 187.5,30.7 184.8,41.8 187.8,41.8 189.6,34.7 189.6,41.8 
		192,41.8 195.5,34.7 193.8,41.8 196.7,41.8 	"/>
	<polygon class="st4" points="219.3,30.7 216.4,30.7 214.9,36.6 213.5,30.7 210.3,30.7 207.5,41.8 210.4,41.8 211.9,35.8 
		213.5,41.8 216.5,41.8 	"/>
	<polygon class="st7" points="200.9,40.2 200.5,41.8 203.7,41.8 204.1,40.2 	"/>
</g>
</svg>
