<?xml version="1.0" encoding="utf-8"?>
<!-- Generator: Adobe Illustrator 25.1.0, SVG Export Plug-In . SVG Version: 6.00 Build 0)  -->
<svg version="1.1" id="Calque_1" xmlns="http://www.w3.org/2000/svg" xmlns:xlink="http://www.w3.org/1999/xlink" x="0px" y="0px"
	 viewBox="0 0 434.7 120.5" style="enable-background:new 0 0 434.7 120.5;" xml:space="preserve">
<style type="text/css">
	.st0{fill:#FFFFFF;}
</style>
<g id="Layer_1_1_">
	<g id="layer1_3_" transform="translate(-34.449906,-175.50227)">
		<g id="g6759_3_" transform="translate(0.13229411,-0.13228891)">
			<g id="g6252_3_" transform="matrix(0.35277777,0,0,-0.35277777,38.486036,176.17011)">
				<path id="path6254_3_" class="st0" d="M335.3-62.8h-55.6v-146.6h55.6c22.5,0,41.5,6.9,55.2,20.1c13.7,13.2,20.9,31.6,20.9,53.2
					s-7.2,40-20.9,53.2C376.8-69.8,357.7-62.8,335.3-62.8 M310.9-92.2H335c27.9,0,43.8-16,43.8-43.9c0-27.5-16.4-43.9-43.8-43.9
					h-24.1V-92.2z"/>
			</g>
			<g id="g6256_3_" transform="matrix(0.35277777,0,0,-0.35277777,46.102014,175.76685)">
				<path id="path6258_3_" class="st0" d="M418.6-58.4c-10.3,0-18.3-8.1-18.3-18.5c0-10.3,8.1-18.3,18.3-18.3
					c10.3,0,18.4,8.1,18.4,18.3C437.1-66.5,429-58.4,418.6-58.4"/>
			</g>
			<path id="path6260_3_" class="st0" d="M188.7,250H199V214h-10.4V250z"/>
			<g id="g6262_3_" transform="matrix(0.35277777,0,0,-0.35277777,53.837655,180.04509)">
				<path id="path6264_3_" class="st0" d="M503.3-105.2c-7.4,7.7-17.6,11.7-29.6,11.7c-12.5,0-24.2-5.1-33-14.4
					c-9.1-9.6-14.2-23.1-14.2-37.8c0-14.7,5-28.1,14.2-37.7c8.8-9.3,20.5-14.3,33-14.3c12.2,0,22.1,3.8,29.4,11.4v-3.7
					c0-15.8-10.2-25.2-27.2-25.2c-11.4,0-22.2,3.4-32.2,10l-1.2,0.8l-10.6-24.2l0.8-0.6c10.9-7.7,27.5-12.3,44.4-12.3
					c34,0,55.1,20.2,55.1,52.6v92.7h-28.8V-105.2z M480.5-170.6c-13.8,0-23.9,10.5-23.9,24.9c0,14.5,10,25,23.9,25
					c14,0,23.8-10.3,23.8-25C504.2-160.1,494.2-170.6,480.5-170.6"/>
			</g>
			<g id="g6266_3_" transform="matrix(0.35277777,0,0,-0.35277777,58.47386,175.76685)">
				<path id="path6268_3_" class="st0" d="M554.1-58.4c-10.3,0-18.3-8.1-18.3-18.5c0-10.3,8.1-18.3,18.3-18.3
					c10.3,0,18.4,8.1,18.4,18.3C572.5-66.5,564.4-58.4,554.1-58.4"/>
			</g>
			<path id="path6270_3_" class="st0" d="M248.8,250h10.4V214h-10.4V250z"/>
			<g id="g6272_3_" transform="matrix(0.35277777,0,0,-0.35277777,66.071953,184.29437)">
				<path id="path6274_3_" class="st0" d="M637.2-151.8c-5.8-6.3-13-9.7-20.8-9.7c-13.7,0-23.7,11-23.7,26.2
					c0,15.2,10,26.2,23.8,26.2c7.9,0,14.2-3,20.4-9.6l0.8-0.9l21.2,17.7l-0.7,1c-9.5,12.5-24,19.3-40.9,19.3
					c-32,0-54.4-22.1-54.4-53.7s22.3-53.7,54.4-53.7c16.8,0,31.4,6.8,41,19.2l0.7,0.9l-21,17.9L637.2-151.8z"/>
			</g>
			<g id="g6276_3_" transform="matrix(0.35277777,0,0,-0.35277777,80.299586,186.71534)">
				<path id="path6278_3_" class="st0" d="M793-178.3c0,0-6.7-1.3-15.6-1.3c-27.7,0-36.9,14.3-36.9,38.7v102.8h29.2v-99.7
					c0-11.2,3.2-15.1,12.5-15.9c5.5-0.4,10.9,0.4,10.9,0.4L793-178.3L793-178.3z"/>
			</g>
			<g id="g6280_3_" transform="matrix(0.35277777,0,0,-0.35277777,73.835568,184.49958)">
				<path id="path6282_3_" class="st0" d="M722.2-154c-6.8-5.6-15.8-9-24.1-9c-12.7,0-21.2,6.4-24.1,18.2h70.2l0.1,1.1
					c0.3,2.3,0.5,6,0.5,9.2v0c-0.1,15.6-4.8,29-13.8,38.7c-9,9.8-21.4,14.9-35.9,14.9c-15,0-27.9-5.2-37.3-15
					c-9.4-9.8-14.4-23.3-14.4-39c0-15.7,5.1-29.1,14.8-38.7c9.6-9.6,22.8-14.7,38.2-14.7c14.3,0,26.6,3.3,36.6,10.2
					c4.1,2.8,7.3,6.3,8.4,7.6L722.2-154z M695-106.5c10.4,0,17.5-6.2,20.2-17.5h-41.1C676.1-115.7,681.3-106.5,695-106.5"/>
			</g>
		</g>
	</g>
	<path class="st0" d="M76,51.5v-28H2.1v28c0,11.3,3.5,20.9,10.1,27.8c6.6,6.9,15.9,10.5,26.8,10.5c10.9,0,20.2-3.6,26.8-10.5
		C72.5,72.4,76,62.8,76,51.5 M61.2,39.2v12.1c0,14-8.1,22.1-22.1,22.1c-13.9,0-22.1-8.3-22.1-22.1V39.2L61.2,39.2L61.2,39.2z
		 M53.3,7.4c0-3.3,2.7-6.1,6.1-6.1c3.3,0,6.1,2.7,6.1,6.1c0,3.3-2.7,6.1-6.1,6.1C56,13.4,53.3,10.7,53.3,7.4 M18.7,13.4
		c3.3,0,6.1-2.7,6.1-6.1s-2.7-6.1-6.1-6.1c-3.3,0-6.1,2.7-6.1,6.1C12.7,10.7,15.4,13.4,18.7,13.4"/>
</g>
<g id="DO_NOT_PRINT">
</g>
</svg>
