<?xml version="1.0" encoding="utf-8"?>
<!-- Generator: Adobe Illustrator 25.1.0, SVG Export Plug-In . SVG Version: 6.00 Build 0)  -->
<svg version="1.1" id="Calque_1" xmlns="http://www.w3.org/2000/svg" xmlns:xlink="http://www.w3.org/1999/xlink" x="0px" y="0px"
	 viewBox="0 0 400 137.8" style="enable-background:new 0 0 400 137.8;" xml:space="preserve">
<style type="text/css">
	.st0{enable-background:new    ;}
	.st1{fill:#F7F5F5;}
	.st2{fill:#FFFFFF;}
</style>
<g class="st0">
	<path class="st1" d="M54.1,136.2v-13h8.8v1.5h-7.1v4h6.1v1.5h-6.1v5.9H54.1z"/>
	<path class="st1" d="M64.3,131.5c0-1.7,0.5-3,1.5-3.9c0.8-0.7,1.8-1,3-1c1.3,0,2.4,0.4,3.2,1.3s1.2,2,1.2,3.5
		c0,1.2-0.2,2.2-0.5,2.9c-0.4,0.7-0.9,1.2-1.6,1.6c-0.7,0.4-1.5,0.6-2.3,0.6c-1.3,0-2.4-0.4-3.2-1.3
		C64.7,134.3,64.3,133.1,64.3,131.5z M65.9,131.5c0,1.2,0.3,2.1,0.8,2.7c0.5,0.6,1.2,0.9,2,0.9c0.8,0,1.5-0.3,2-0.9
		c0.5-0.6,0.8-1.5,0.8-2.8c0-1.2-0.3-2-0.8-2.6c-0.5-0.6-1.2-0.9-2-0.9c-0.8,0-1.5,0.3-2,0.9C66.2,129.4,65.9,130.3,65.9,131.5z"/>
	<path class="st1" d="M75,136.2v-9.4h1.4v1.4c0.4-0.7,0.7-1.1,1-1.3s0.7-0.3,1-0.3c0.5,0,1.1,0.2,1.6,0.5l-0.6,1.5
		c-0.4-0.2-0.8-0.3-1.2-0.3c-0.3,0-0.7,0.1-0.9,0.3c-0.3,0.2-0.5,0.5-0.6,0.9c-0.2,0.6-0.3,1.2-0.3,1.9v4.9H75z"/>
	<path class="st1" d="M86.3,136.2v-13h4.5c1,0,1.8,0.1,2.3,0.2c0.7,0.2,1.4,0.5,1.9,0.9c0.7,0.6,1.2,1.3,1.5,2.2s0.5,1.9,0.5,3.1
		c0,1-0.1,1.9-0.3,2.6c-0.2,0.8-0.5,1.4-0.9,1.9s-0.8,0.9-1.2,1.2c-0.4,0.3-0.9,0.5-1.6,0.7c-0.6,0.1-1.3,0.2-2.1,0.2H86.3z
		 M88,134.7h2.8c0.9,0,1.5-0.1,2-0.2c0.5-0.2,0.9-0.4,1.2-0.7c0.4-0.4,0.7-1,1-1.6c0.2-0.7,0.3-1.5,0.3-2.5c0-1.4-0.2-2.4-0.7-3.1
		c-0.4-0.7-1-1.2-1.6-1.5c-0.5-0.2-1.2-0.3-2.2-0.3H88V134.7z"/>
	<path class="st1" d="M99.7,136.2v-13h1.7v13H99.7z"/>
	<path class="st1" d="M110.5,131.1v-1.5l5.5,0v4.8c-0.8,0.7-1.7,1.2-2.6,1.5c-0.9,0.3-1.8,0.5-2.8,0.5c-1.3,0-2.4-0.3-3.5-0.8
		c-1-0.5-1.8-1.3-2.4-2.4c-0.5-1-0.8-2.2-0.8-3.5c0-1.3,0.3-2.4,0.8-3.5c0.5-1.1,1.3-1.9,2.3-2.4s2.1-0.8,3.4-0.8
		c0.9,0,1.8,0.2,2.6,0.5s1.4,0.7,1.8,1.3c0.4,0.5,0.8,1.3,1,2.1l-1.6,0.4c-0.2-0.7-0.4-1.2-0.7-1.6c-0.3-0.4-0.7-0.7-1.2-0.9
		c-0.5-0.2-1.1-0.3-1.8-0.3c-0.8,0-1.5,0.1-2,0.4c-0.6,0.2-1,0.6-1.4,0.9s-0.6,0.8-0.8,1.3c-0.3,0.8-0.5,1.7-0.5,2.6
		c0,1.2,0.2,2.1,0.6,2.9s1,1.4,1.7,1.7c0.8,0.4,1.6,0.6,2.4,0.6c0.7,0,1.5-0.1,2.2-0.4s1.2-0.6,1.6-0.9v-2.4H110.5z"/>
	<path class="st1" d="M118.9,136.2v-13h1.7v13H118.9z"/>
	<path class="st1" d="M132.9,131.6l1.7,0.4c-0.4,1.4-1,2.5-1.9,3.2c-0.9,0.7-2.1,1.1-3.4,1.1c-1.4,0-2.5-0.3-3.4-0.9
		c-0.9-0.6-1.5-1.4-2-2.5c-0.5-1.1-0.7-2.2-0.7-3.5c0-1.4,0.3-2.5,0.8-3.5s1.3-1.8,2.2-2.3c1-0.5,2-0.8,3.2-0.8c1.3,0,2.4,0.3,3.3,1
		c0.9,0.7,1.5,1.6,1.9,2.8l-1.7,0.4c-0.3-0.9-0.7-1.6-1.3-2.1c-0.6-0.4-1.3-0.6-2.2-0.6c-1,0-1.8,0.2-2.5,0.7s-1.1,1.1-1.4,1.9
		s-0.4,1.6-0.4,2.5c0,1.1,0.2,2.1,0.5,2.9c0.3,0.8,0.8,1.4,1.5,1.9c0.7,0.4,1.4,0.6,2.2,0.6c1,0,1.8-0.3,2.4-0.8
		C132.2,133.6,132.7,132.7,132.9,131.6z"/>
	<path class="st1" d="M136.8,136.2v-13h9.4v1.5h-7.7v4h7.2v1.5h-7.2v4.4h8v1.5H136.8z"/>
	<path class="st1" d="M148.8,136.2v-13h1.7v11.5h6.4v1.5H148.8z"/>
	<path class="st1" d="M162.5,132.5l1.6-0.2c0,1,0.2,1.7,0.6,2c0.3,0.4,0.8,0.5,1.4,0.5c0.4,0,0.8-0.1,1.1-0.3s0.5-0.5,0.6-0.8
		c0.1-0.3,0.2-0.9,0.2-1.6v-9h1.7v8.9c0,1.1-0.1,1.9-0.4,2.5s-0.7,1.1-1.3,1.4c-0.6,0.3-1.2,0.5-2,0.5c-1.1,0-2-0.3-2.6-1
		C162.8,134.8,162.5,133.8,162.5,132.5z"/>
	<path class="st1" d="M171,136.2l5-13h1.9l5.3,13h-2l-1.5-3.9h-5.4l-1.4,3.9H171z M174.8,130.9h4.4l-1.4-3.6c-0.4-1.1-0.7-2-0.9-2.7
		c-0.2,0.8-0.4,1.7-0.7,2.5L174.8,130.9z"/>
	<path class="st1" d="M184.5,136.2v-13h2.6l3.1,9.2c0.3,0.9,0.5,1.5,0.6,1.9c0.1-0.5,0.4-1.2,0.7-2.1l3.1-9.1h2.3v13h-1.7v-10.9
		l-3.8,10.9H190l-3.8-11.1v11.1H184.5z"/>
	<path class="st1" d="M198.3,136.2l5-13h1.9l5.3,13h-2l-1.5-3.9h-5.4l-1.4,3.9H198.3z M202,130.9h4.4l-1.4-3.6
		c-0.4-1.1-0.7-2-0.9-2.7c-0.2,0.8-0.4,1.7-0.7,2.5L202,130.9z"/>
	<path class="st1" d="M212.1,136.2v-13h1.7v13H212.1z"/>
	<path class="st1" d="M226.2,131.6l1.7,0.4c-0.4,1.4-1,2.5-1.9,3.2c-0.9,0.7-2.1,1.1-3.4,1.1c-1.4,0-2.5-0.3-3.4-0.9
		c-0.9-0.6-1.5-1.4-2-2.5c-0.5-1.1-0.7-2.2-0.7-3.5c0-1.4,0.3-2.5,0.8-3.5s1.3-1.8,2.2-2.3c1-0.5,2-0.8,3.2-0.8c1.3,0,2.4,0.3,3.3,1
		c0.9,0.7,1.5,1.6,1.9,2.8l-1.7,0.4c-0.3-0.9-0.7-1.6-1.3-2.1c-0.6-0.4-1.3-0.6-2.2-0.6c-1,0-1.8,0.2-2.5,0.7
		c-0.7,0.5-1.1,1.1-1.4,1.9c-0.3,0.8-0.4,1.6-0.4,2.5c0,1.1,0.2,2.1,0.5,2.9s0.8,1.4,1.5,1.9c0.7,0.4,1.4,0.6,2.2,0.6
		c1,0,1.8-0.3,2.4-0.8C225.5,133.6,225.9,132.7,226.2,131.6z"/>
	<path class="st1" d="M228.6,136.2l5-13h1.9l5.3,13h-2l-1.5-3.9h-5.4l-1.4,3.9H228.6z M232.3,130.9h4.4l-1.4-3.6
		c-0.4-1.1-0.7-2-0.9-2.7c-0.2,0.8-0.4,1.7-0.7,2.5L232.3,130.9z"/>
	<path class="st1" d="M245.6,132l1.6-0.1c0.1,0.7,0.3,1.2,0.5,1.6c0.3,0.4,0.7,0.8,1.3,1c0.6,0.3,1.3,0.4,2,0.4
		c0.7,0,1.2-0.1,1.7-0.3s0.9-0.5,1.1-0.8c0.2-0.3,0.4-0.7,0.4-1.1c0-0.4-0.1-0.8-0.4-1.1c-0.2-0.3-0.6-0.6-1.2-0.8
		c-0.3-0.1-1.1-0.3-2.3-0.6s-2-0.6-2.5-0.8c-0.6-0.3-1.1-0.7-1.4-1.2s-0.5-1-0.5-1.6c0-0.7,0.2-1.3,0.6-1.8c0.4-0.6,0.9-1,1.6-1.3
		s1.5-0.4,2.4-0.4c1,0,1.8,0.2,2.6,0.5c0.7,0.3,1.3,0.8,1.7,1.4s0.6,1.3,0.6,2.1l-1.7,0.1c-0.1-0.8-0.4-1.4-0.9-1.9
		c-0.5-0.4-1.3-0.6-2.3-0.6c-1,0-1.8,0.2-2.3,0.6c-0.5,0.4-0.7,0.8-0.7,1.4c0,0.5,0.2,0.9,0.5,1.2c0.3,0.3,1.2,0.6,2.6,0.9
		s2.4,0.6,2.9,0.8c0.8,0.3,1.3,0.8,1.7,1.3c0.4,0.5,0.5,1.2,0.5,1.9c0,0.7-0.2,1.3-0.6,2c-0.4,0.6-1,1.1-1.7,1.4
		c-0.7,0.3-1.6,0.5-2.5,0.5c-1.2,0-2.2-0.2-3-0.5s-1.4-0.9-1.9-1.5C245.9,133.7,245.6,132.9,245.6,132z"/>
	<path class="st1" d="M264.3,136.2v-1.4c-0.7,1.1-1.7,1.6-3,1.6c-0.6,0-1.1-0.1-1.6-0.3s-0.8-0.5-1.1-0.8c-0.2-0.3-0.4-0.7-0.5-1.2
		c-0.1-0.3-0.1-0.8-0.1-1.5v-5.8h1.6v5.2c0,0.8,0,1.4,0.1,1.7c0.1,0.4,0.3,0.8,0.6,1c0.3,0.2,0.7,0.4,1.2,0.4s0.9-0.1,1.3-0.4
		c0.4-0.2,0.7-0.6,0.9-1c0.2-0.4,0.3-1,0.3-1.8v-5h1.6v9.4H264.3z"/>
	<path class="st1" d="M269.7,136.2h-1.5v-13h1.6v4.6c0.7-0.8,1.5-1.3,2.6-1.3c0.6,0,1.1,0.1,1.6,0.4c0.5,0.2,0.9,0.6,1.3,1
		c0.3,0.4,0.6,0.9,0.8,1.5s0.3,1.2,0.3,1.9c0,1.6-0.4,2.9-1.2,3.7s-1.8,1.3-2.9,1.3c-1.1,0-2-0.5-2.6-1.4V136.2z M269.7,131.4
		c0,1.1,0.2,1.9,0.5,2.4c0.5,0.8,1.2,1.2,2,1.2c0.7,0,1.3-0.3,1.8-0.9s0.8-1.5,0.8-2.7c0-1.2-0.2-2.1-0.7-2.7
		c-0.5-0.6-1.1-0.9-1.8-0.9c-0.7,0-1.3,0.3-1.8,0.9S269.7,130.3,269.7,131.4z"/>
	<path class="st1" d="M277.7,133.4l1.6-0.2c0.1,0.6,0.3,1.1,0.7,1.5s1,0.5,1.7,0.5c0.7,0,1.3-0.1,1.6-0.4c0.4-0.3,0.5-0.6,0.5-1.1
		c0-0.4-0.2-0.6-0.5-0.9c-0.2-0.1-0.8-0.3-1.6-0.5c-1.2-0.3-2-0.6-2.4-0.8c-0.5-0.2-0.8-0.5-1-0.9c-0.2-0.4-0.4-0.8-0.4-1.3
		c0-0.4,0.1-0.8,0.3-1.2c0.2-0.4,0.5-0.7,0.8-0.9c0.2-0.2,0.6-0.3,1-0.5c0.4-0.1,0.9-0.2,1.4-0.2c0.7,0,1.4,0.1,1.9,0.3
		c0.6,0.2,1,0.5,1.2,0.9c0.3,0.4,0.5,0.9,0.6,1.5l-1.6,0.2c-0.1-0.5-0.3-0.9-0.6-1.1c-0.3-0.3-0.8-0.4-1.4-0.4
		c-0.7,0-1.3,0.1-1.6,0.4c-0.3,0.2-0.5,0.5-0.5,0.9c0,0.2,0.1,0.4,0.2,0.6c0.1,0.2,0.3,0.3,0.6,0.4c0.2,0.1,0.6,0.2,1.4,0.4
		c1.1,0.3,1.9,0.5,2.4,0.7c0.4,0.2,0.8,0.5,1.1,0.8c0.3,0.4,0.4,0.8,0.4,1.4c0,0.5-0.2,1-0.5,1.5s-0.8,0.8-1.3,1.1
		c-0.6,0.3-1.2,0.4-2,0.4c-1.2,0-2.2-0.3-2.8-0.8C278.3,135.2,277.9,134.4,277.7,133.4z"/>
	<path class="st1" d="M293.6,132.8l1.6,0.2c-0.2,1.1-0.6,1.9-1.3,2.5c-0.7,0.6-1.6,0.9-2.6,0.9c-1.3,0-2.3-0.4-3.1-1.3
		c-0.8-0.8-1.2-2.1-1.2-3.6c0-1,0.2-1.9,0.5-2.7c0.3-0.8,0.9-1.3,1.5-1.7s1.4-0.6,2.2-0.6c1,0,1.9,0.3,2.5,0.8
		c0.7,0.5,1.1,1.3,1.3,2.2l-1.6,0.2c-0.1-0.6-0.4-1.1-0.8-1.4c-0.4-0.3-0.8-0.5-1.4-0.5c-0.8,0-1.5,0.3-2,0.9
		c-0.5,0.6-0.8,1.5-0.8,2.7c0,1.3,0.2,2.2,0.7,2.8c0.5,0.6,1.1,0.9,1.9,0.9c0.6,0,1.2-0.2,1.6-0.6
		C293.2,134.1,293.5,133.6,293.6,132.8z"/>
	<path class="st1" d="M296.5,136.2v-9.4h1.4v1.4c0.4-0.7,0.7-1.1,1-1.3s0.7-0.3,1-0.3c0.5,0,1.1,0.2,1.6,0.5l-0.5,1.5
		c-0.4-0.2-0.8-0.3-1.2-0.3c-0.3,0-0.7,0.1-0.9,0.3c-0.3,0.2-0.5,0.5-0.6,0.9c-0.2,0.6-0.3,1.2-0.3,1.9v4.9H296.5z"/>
	<path class="st1" d="M302.6,125v-1.8h1.6v1.8H302.6z M302.6,136.2v-9.4h1.6v9.4H302.6z"/>
	<path class="st1" d="M308.1,136.2h-1.5v-13h1.6v4.6c0.7-0.8,1.5-1.3,2.6-1.3c0.6,0,1.1,0.1,1.6,0.4c0.5,0.2,0.9,0.6,1.3,1
		c0.3,0.4,0.6,0.9,0.8,1.5c0.2,0.6,0.3,1.2,0.3,1.9c0,1.6-0.4,2.9-1.2,3.7c-0.8,0.9-1.8,1.3-2.9,1.3c-1.1,0-2-0.5-2.6-1.4V136.2z
		 M308,131.4c0,1.1,0.2,1.9,0.5,2.4c0.5,0.8,1.2,1.2,2,1.2c0.7,0,1.3-0.3,1.8-0.9c0.5-0.6,0.8-1.5,0.8-2.7c0-1.2-0.2-2.1-0.7-2.7
		c-0.5-0.6-1.1-0.9-1.8-0.9c-0.7,0-1.3,0.3-1.8,0.9C308.3,129.4,308,130.3,308,131.4z"/>
	<path class="st1" d="M323.2,133.2l1.7,0.2c-0.3,1-0.7,1.7-1.4,2.2s-1.6,0.8-2.7,0.8c-1.4,0-2.5-0.4-3.3-1.3s-1.2-2-1.2-3.6
		c0-1.6,0.4-2.8,1.2-3.7c0.8-0.9,1.9-1.3,3.2-1.3c1.3,0,2.3,0.4,3.1,1.3c0.8,0.9,1.2,2.1,1.2,3.6c0,0.1,0,0.2,0,0.4h-7
		c0.1,1,0.4,1.8,0.9,2.4s1.2,0.8,2,0.8c0.6,0,1.1-0.2,1.5-0.5S322.9,133.8,323.2,133.2z M317.9,130.6h5.3c-0.1-0.8-0.3-1.4-0.6-1.8
		c-0.5-0.6-1.2-0.9-2-0.9c-0.7,0-1.4,0.2-1.9,0.7S318,129.8,317.9,130.6z"/>
	<path class="st1" d="M326.8,136.2v-9.4h1.4v1.4c0.4-0.7,0.7-1.1,1-1.3s0.7-0.3,1-0.3c0.5,0,1.1,0.2,1.6,0.5l-0.6,1.5
		c-0.4-0.2-0.8-0.3-1.2-0.3c-0.3,0-0.7,0.1-0.9,0.3s-0.5,0.5-0.6,0.9c-0.2,0.6-0.3,1.2-0.3,1.9v4.9H326.8z"/>
	<path class="st1" d="M332.2,133.4l1.6-0.2c0.1,0.6,0.3,1.1,0.7,1.5s1,0.5,1.7,0.5c0.7,0,1.3-0.1,1.6-0.4c0.4-0.3,0.5-0.6,0.5-1.1
		c0-0.4-0.2-0.6-0.5-0.9c-0.2-0.1-0.8-0.3-1.6-0.5c-1.2-0.3-2-0.6-2.4-0.8c-0.5-0.2-0.8-0.5-1-0.9c-0.2-0.4-0.4-0.8-0.4-1.3
		c0-0.4,0.1-0.8,0.3-1.2c0.2-0.4,0.5-0.7,0.8-0.9c0.2-0.2,0.6-0.3,1-0.5c0.4-0.1,0.9-0.2,1.4-0.2c0.7,0,1.4,0.1,1.9,0.3
		c0.6,0.2,1,0.5,1.2,0.9c0.3,0.4,0.5,0.9,0.6,1.5l-1.6,0.2c-0.1-0.5-0.3-0.9-0.6-1.1c-0.3-0.3-0.8-0.4-1.4-0.4
		c-0.7,0-1.3,0.1-1.6,0.4c-0.3,0.2-0.5,0.5-0.5,0.9c0,0.2,0.1,0.4,0.2,0.6c0.1,0.2,0.3,0.3,0.6,0.4c0.2,0.1,0.6,0.2,1.4,0.4
		c1.1,0.3,1.9,0.5,2.4,0.7c0.4,0.2,0.8,0.5,1.1,0.8c0.3,0.4,0.4,0.8,0.4,1.4c0,0.5-0.2,1-0.5,1.5s-0.8,0.8-1.3,1.1
		c-0.6,0.3-1.2,0.4-2,0.4c-1.2,0-2.2-0.3-2.8-0.8C332.8,135.2,332.4,134.4,332.2,133.4z"/>
</g>
<g id="Layer_1_1_">
	<path class="st2" d="M251,81.1h5.7v19.5c0,1.7,0.7,2.5,2.2,2.5c0.5,0,1,0,1.4-0.2v5.1c-0.7,0.2-1.6,0.3-2.7,0.3
		c-4.4,0-6.6-2.3-6.6-6.8V81.1z M242.5,95.9c0-1.8-1.9-3.2-4.2-3.2c-2.5,0-4.5,1.4-4.7,3.2H242.5z M227.9,98.1c0-3,1-5.5,2.9-7.3
		c2-1.9,4.5-2.8,7.5-2.8c2.9,0,5.3,1,7.2,2.8c1.8,1.9,2.8,4.2,2.8,7c0,0.6,0,1.3-0.1,1.8h-14.6c0.1,2.3,2.1,3.8,5.1,3.8
		c1.8,0,3.4-0.6,4.7-1.9l3.3,3.2c-2.3,2.3-5.1,3.5-8.3,3.5c-3.2,0-5.7-0.9-7.7-2.7c-2-1.8-2.9-4.3-2.9-7.3V98.1z M226.7,91.5
		l-3.6,3.6c-1.3-1.3-2.7-2-4.4-2c-2.8,0-4.9,2.1-4.9,5.1c0,2.9,2.2,5,4.9,5c1.7,0,3.2-0.7,4.4-2l3.6,3.6c-2.2,2.4-4.9,3.6-8,3.6
		c-3,0-5.5-1-7.6-2.9c-2-2-3.1-4.4-3.1-7.3c0-2.9,1-5.3,3.1-7.3c2.1-2,4.6-2.9,7.6-2.9C221.8,87.9,224.5,89.1,226.7,91.5
		 M199.7,88.5h5.7v19.3h-5.7V88.5z M202.6,80.4c1.8,0,3.3,1.4,3.3,3.3c0,1.8-1.5,3.2-3.3,3.2c-1.8,0-3.3-1.4-3.3-3.2
		C199.3,81.8,200.8,80.4,202.6,80.4 M182.7,101.5c1,0.9,2.1,1.4,3.5,1.4c1.4,0,2.6-0.5,3.6-1.4c1-0.9,1.5-2,1.5-3.4
		c0-1.3-0.5-2.5-1.5-3.4c-1-1-2.1-1.4-3.6-1.4c-1.4,0-2.5,0.5-3.5,1.4c-1,0.9-1.4,2.1-1.4,3.4C181.3,99.5,181.7,100.6,182.7,101.5
		 M178.3,91.1c1.8-2,4.1-2.9,6.9-2.9c2.9,0,5.2,1.2,5.7,2.9v-2.5h5.7v16.1c0,4.5-0.7,7.4-3.4,9.4c-1.9,1.5-4.2,2.2-7,2.2
		c-3.8,0-6.9-0.9-9.5-2.7l2.7-4.1c2,1.2,3.9,1.8,5.9,1.8c1.6,0,3-0.3,3.9-1c1.1-0.8,1.7-2.2,1.7-4.2v-0.4c-0.8,1.4-3.1,2.3-5.9,2.3
		c-2.7,0-5-0.9-6.9-2.8c-1.8-1.9-2.7-4.2-2.7-7C175.6,95.4,176.5,93,178.3,91.1 M167.3,88.5h5.7v19.3h-5.7V88.5L167.3,88.5z
		 M170.1,80.4c1.8,0,3.3,1.4,3.3,3.3c0,1.8-1.5,3.2-3.3,3.2c-1.8,0-3.3-1.4-3.3-3.2C166.9,81.8,168.3,80.4,170.1,80.4 M145.6,102.5
		h3.9c6.3,0,8.6-3,8.6-7.9c0-2.5-0.7-4.5-2-5.9c-1.3-1.4-3.5-2.1-6.7-2.1h-3.8V102.5L145.6,102.5z M139.7,107.8V81.1h10.1
		c4.5,0,8,1.2,10.5,3.7c2.5,2.5,3.7,5.7,3.7,9.7c0,4-1.2,7.3-3.7,9.7c-2.4,2.4-5.9,3.6-10.5,3.6H139.7z"/>
	<path class="st2" d="M227,39.9V19.5H173v20.5c0,8.3,2.6,15.3,7.4,20.3c4.8,5,11.6,7.7,19.6,7.7c8,0,14.7-2.7,19.6-7.7
		C224.4,55.2,227,48.2,227,39.9 M216.2,30.9v8.9c0,10.2-5.9,16.1-16.2,16.1c-10.1,0-16.2-6-16.2-16.1v-8.9H216.2z M210.4,7.7
		c0-2.4,2-4.4,4.4-4.4c2.4,0,4.4,2,4.4,4.4s-2,4.4-4.4,4.4C212.4,12.1,210.4,10.1,210.4,7.7 M185.1,12.1c2.4,0,4.4-2,4.4-4.4
		s-2-4.4-4.4-4.4s-4.4,2-4.4,4.4C180.7,10.1,182.7,12.1,185.1,12.1"/>
</g>
<g id="DO_NOT_PRINT">
</g>
</svg>
