<?xml version="1.0" encoding="utf-8"?>
<!-- Generator: Adobe Illustrator 23.0.1, SVG Export Plug-In . SVG Version: 6.00 Build 0)  -->
<svg version="1.1" id="Calque_1" xmlns="http://www.w3.org/2000/svg" xmlns:xlink="http://www.w3.org/1999/xlink" x="0px" y="0px"
	 width="400px" height="99px" viewBox="0 0 400 99" style="enable-background:new 0 0 400 99;" xml:space="preserve">
<style type="text/css">
	.st0{fill:#FFFFFF;}
	.st1{font-family:'MyriadPro-Regular';}
	.st2{font-size:18.1818px;}
	.st3{fill:#FF7900;}
</style>
<title>logo</title>
<text transform="matrix(1 0 0 1 70.1455 95.4541)" class="st0 st1 st2">Exclusivo para usuarios de Orange</text>
<g>
	<rect x="162" y="2" class="st3" width="74" height="74"/>
	<g>
		<path class="st0" d="M191,68.8c-1,0.7-2.2,1-3.4,1c-1.9,0-3.1-1.3-3.1-3c0-2.3,2.1-3.5,6.5-4v-0.6c0-0.7-0.6-1.2-1.6-1.2
			s-1.9,0.4-2.5,1.2l-1.8-1c1-1.3,2.4-2,4.4-2c2.7,0,4.2,1.2,4.2,3.1c0,0,0,7.4,0,7.5h-2.4L191,68.8z M187.2,66.7
			c0,0.7,0.4,1.3,1.2,1.3c0.9,0,1.7-0.4,2.5-1.1v-2.4C188.4,64.8,187.2,65.4,187.2,66.7z"/>
		<path class="st0" d="M195.8,59.7l2.2-0.3l0.2,1.2c1.3-0.9,2.3-1.4,3.5-1.4c2.1,0,3.2,1.1,3.2,3.3v7.2h-2.7V63
			c0-1.3-0.3-1.8-1.3-1.8c-0.8,0-1.6,0.4-2.5,1.1v7.4h-2.7v-10H195.8z"/>
		<path class="st0" d="M223,69.9c-3,0-4.8-2-4.8-5.3c0-3.4,1.8-5.4,4.8-5.4s4.7,1.9,4.7,5.2c0,0.2,0,0.4,0,0.5h-6.9
			c0,2,0.8,2.9,2.4,2.9c1,0,1.7-0.4,2.3-1.3l2,1.1C226.7,69.2,225.1,69.9,223,69.9z M225,63.2c0-1.4-0.8-2.2-2.1-2.2
			c-1.2,0-2,0.8-2.1,2.2H225z"/>
		<path class="st0" d="M171.1,70c-2.7,0-5.1-1.7-5.1-5.4c0-3.7,2.4-5.4,5.1-5.4c2.7,0,5.1,1.7,5.1,5.4C176.2,68.3,173.8,70,171.1,70
			z M171.1,61.5c-2,0-2.4,1.8-2.4,3.1c0,1.3,0.4,3.1,2.4,3.1s2.4-1.8,2.4-3.1C173.5,63.3,173.1,61.5,171.1,61.5z"/>
		<path class="st0" d="M178.1,59.4h2.6v1.2c0.5-0.7,1.7-1.4,2.8-1.4c0.1,0,0.2,0,0.3,0v2.5h-0.1c-1.2,0-2.5,0.2-2.9,1.1v6.9H178
			L178.1,59.4L178.1,59.4z"/>
		<path class="st0" d="M211.7,67.5c2.1,0,2.2-2.1,2.2-3.5c0-1.6-0.8-2.9-2.2-2.9c-1,0-2.1,0.7-2.1,3
			C209.6,65.4,209.7,67.5,211.7,67.5z M216.5,59.4v9.8c0,1.7-0.1,4.6-5,4.6c-2,0-3.9-0.8-4.3-2.6l2.7-0.4c0.1,0.5,0.4,1,1.9,1
			c1.4,0,2.1-0.7,2.1-2.3v-1.2l0,0c-0.4,0.8-1.1,1.5-2.7,1.5c-2.4,0-4.3-1.7-4.3-5.1s1.9-5.4,4.1-5.4c2.1,0,2.8,0.9,3,1.4l0,0
			l0.2-1.2h2.3V59.4z"/>
		<path class="st0" d="M228.8,56h-1.1v2.9h-0.6V56H226v-0.5h2.7V56H228.8z M233.2,58.9h-0.6v-2.8l0,0l-1.1,2.8h-0.4l-1.1-2.8l0,0
			v2.8h-0.6v-3.4h0.9l1,2.6l1-2.6h0.9L233.2,58.9L233.2,58.9z"/>
	</g>
</g>
</svg>
