<?xml version="1.0" encoding="utf-8"?>
<!-- Generator: Adobe Illustrator 24.3.0, SVG Export Plug-In . SVG Version: 6.00 Build 0)  -->
<svg version="1.1" id="Layer_1" xmlns="http://www.w3.org/2000/svg" xmlns:xlink="http://www.w3.org/1999/xlink" x="0px" y="0px"
	 viewBox="0 0 96.9 94" style="enable-background:new 0 0 96.9 94;" xml:space="preserve">
<style type="text/css">
	.st0{clip-path:url(#SVGID_2_);fill:none;}
	.st1{clip-path:url(#SVGID_4_);fill:none;}
	.st2{clip-path:url(#SVGID_6_);fill:none;}
	.st3{clip-path:url(#SVGID_8_);fill:none;}
	.st4{fill:#FFFFFF;}
	.st5{fill:#FFCB05;}
	.st6{clip-path:url(#SVGID_10_);fill:#00678F;}
	.st7{fill:#FF0000;}
</style>
<g id="Layer_3">
</g>
<g>
	<g>
		<g>
			<defs>
				<rect id="SVGID_1_" x="-31.6" y="-32" width="157.9" height="157.9"/>
			</defs>
			<clipPath id="SVGID_2_">
				<use xlink:href="#SVGID_1_"  style="overflow:visible;"/>
			</clipPath>
			<path class="st0" d="M47.3,0.6c21.8,0,39.6-7.3,39.6-16.3S69.2-32,47.3-32S7.8-24.6,7.8-15.7C7.9-6.8,25.6,0.6,47.3,0.6"/>
		</g>
		<g>
			<defs>
				<rect id="SVGID_3_" x="-31.6" y="-32" width="157.9" height="157.9"/>
			</defs>
			<clipPath id="SVGID_4_">
				<use xlink:href="#SVGID_3_"  style="overflow:visible;"/>
			</clipPath>
			<path class="st1" d="M47.3,126c21.8,0,39.6-7.3,39.6-16.3S69.2,93.4,47.3,93.4s-39.6,7.3-39.6,16.3C7.9,118.6,25.6,126,47.3,126"
				/>
		</g>
		<g>
			<defs>
				<rect id="SVGID_5_" x="-31.6" y="-32" width="157.9" height="157.9"/>
			</defs>
			<clipPath id="SVGID_6_">
				<use xlink:href="#SVGID_5_"  style="overflow:visible;"/>
			</clipPath>
			<path class="st2" d="M93.8,47c0,21.8,7.3,39.6,16.3,39.6s16.3-17.7,16.3-39.6S119,7.4,110,7.4C101.1,7.4,93.8,25.2,93.8,47"/>
		</g>
		<g>
			<defs>
				<rect id="SVGID_7_" x="-31.6" y="-32" width="157.9" height="157.9"/>
			</defs>
			<clipPath id="SVGID_8_">
				<use xlink:href="#SVGID_7_"  style="overflow:visible;"/>
			</clipPath>
			<path class="st3" d="M-31.6,47c0,21.8,7.3,39.6,16.3,39.6S0.9,68.8,0.9,47S-6.4,7.4-15.4,7.4C-24.3,7.4-31.6,25.2-31.6,47"/>
		</g>
	</g>
	<rect x="0.9" y="0.6" class="st4" width="92.9" height="92.9"/>
	<rect x="5.6" y="5.1" class="st5" width="83.7" height="83.7"/>
	<g>
		<g>
			<defs>
				<rect id="SVGID_9_" x="-31.6" y="-32" width="157.9" height="157.9"/>
			</defs>
			<clipPath id="SVGID_10_">
				<use xlink:href="#SVGID_9_"  style="overflow:visible;"/>
			</clipPath>
			<path class="st6" d="M47.3,63.3c21.8,0,39.6-7.3,39.6-16.3S69.2,30.7,47.3,30.7S7.8,38.1,7.8,47C7.9,55.9,25.6,63.3,47.3,63.3"/>
		</g>
	</g>
	<polygon class="st5" points="57.3,42.9 58.3,38.8 44.8,38.8 43.8,42.9 48.2,42.9 46,51.5 50.7,51.5 52.9,42.9 	"/>
	<polygon class="st4" points="43.7,38.8 36.9,38.8 32.7,48.3 32.7,38.8 26.1,38.8 22.1,55.1 26.5,55.1 29.2,44.7 29.2,55.1 
		32.7,55.1 37.8,44.7 35.3,55.1 39.6,55.1 	"/>
	<polygon class="st4" points="72.7,38.8 68.4,38.8 66.2,47.4 64.2,38.8 59.5,38.8 55.4,55.1 59.6,55.1 61.8,46.3 64.2,55.1 
		68.6,55.1 	"/>
	<polygon class="st7" points="45.7,52.7 45.1,55.1 49.8,55.1 50.4,52.7 	"/>
</g>
</svg>
