<?xml version="1.0" encoding="utf-8"?>
<!-- Generator: Adobe Illustrator 24.3.0, SVG Export Plug-In . SVG Version: 6.00 Build 0)  -->
<svg version="1.1" id="Calque_1" xmlns="http://www.w3.org/2000/svg" xmlns:xlink="http://www.w3.org/1999/xlink" x="0px" y="0px"
	 viewBox="0 0 134 99" style="enable-background:new 0 0 134 99;" xml:space="preserve">
<style type="text/css">
	.st0{fill:#4C4C4C;}
	.st1{font-family:'ArialMT';}
	.st2{font-size:13.0256px;}
	.st3{clip-path:url(#SVGID_2_);fill:none;}
	.st4{clip-path:url(#SVGID_4_);fill:none;}
	.st5{clip-path:url(#SVGID_6_);fill:none;}
	.st6{clip-path:url(#SVGID_8_);fill:none;}
	.st7{fill:#FFFFFF;}
	.st8{fill:#FFCB05;}
	.st9{clip-path:url(#SVGID_10_);fill:#00678F;}
	.st10{fill:#FF0000;}
</style>
<text transform="matrix(1 0 0 1 5.8991 95.626)" class="st0 st1 st2">For MTN Subscribers</text>
<g>
	<g>
		<g>
			<defs>
				<rect id="SVGID_1_" x="7.9" y="-23.6" width="119.8" height="119.8"/>
			</defs>
			<clipPath id="SVGID_2_">
				<use xlink:href="#SVGID_1_"  style="overflow:visible;"/>
			</clipPath>
			<path class="st3" d="M67.8,1.1c16.6,0,30-5.6,30-12.3s-13.4-12.3-30-12.3s-30,5.6-30,12.3C37.9-4.5,51.4,1.1,67.8,1.1"/>
		</g>
		<g>
			<defs>
				<rect id="SVGID_3_" x="7.9" y="-23.6" width="119.8" height="119.8"/>
			</defs>
			<clipPath id="SVGID_4_">
				<use xlink:href="#SVGID_3_"  style="overflow:visible;"/>
			</clipPath>
			<path class="st4" d="M67.8,96.2c16.6,0,30-5.6,30-12.3c0-6.8-13.4-12.3-30-12.3s-30,5.6-30,12.3C37.9,90.6,51.4,96.2,67.8,96.2"
				/>
		</g>
		<g>
			<defs>
				<rect id="SVGID_5_" x="7.9" y="-23.6" width="119.8" height="119.8"/>
			</defs>
			<clipPath id="SVGID_6_">
				<use xlink:href="#SVGID_5_"  style="overflow:visible;"/>
			</clipPath>
			<path class="st5" d="M103.1,36.3c0,16.6,5.6,30,12.3,30c6.8,0,12.3-13.4,12.3-30s-5.6-30-12.3-30
				C108.6,6.3,103.1,19.7,103.1,36.3"/>
		</g>
		<g>
			<defs>
				<rect id="SVGID_7_" x="7.9" y="-23.6" width="119.8" height="119.8"/>
			</defs>
			<clipPath id="SVGID_8_">
				<use xlink:href="#SVGID_7_"  style="overflow:visible;"/>
			</clipPath>
			<path class="st6" d="M7.9,36.3c0,16.6,5.6,30,12.3,30s12.3-13.4,12.3-30s-5.6-30-12.3-30C13.5,6.3,7.9,19.7,7.9,36.3"/>
		</g>
	</g>
	<rect x="32.6" y="1.1" class="st7" width="70.5" height="70.5"/>
	<rect x="36.2" y="4.5" class="st8" width="63.5" height="63.5"/>
	<g>
		<g>
			<defs>
				<rect id="SVGID_9_" x="7.9" y="-23.6" width="119.8" height="119.8"/>
			</defs>
			<clipPath id="SVGID_10_">
				<use xlink:href="#SVGID_9_"  style="overflow:visible;"/>
			</clipPath>
			<path class="st9" d="M67.8,48.6c16.6,0,30-5.6,30-12.3S84.4,24,67.8,24s-30,5.6-30,12.3C37.9,43.1,51.4,48.6,67.8,48.6"/>
		</g>
	</g>
	<polygon class="st8" points="75.4,33.2 76.2,30.1 65.9,30.1 65.2,33.2 68.5,33.2 66.8,39.7 70.4,39.7 72.1,33.2 	"/>
	<polygon class="st7" points="65.1,30.1 59.9,30.1 56.7,37.3 56.7,30.1 51.7,30.1 48.7,42.4 52.1,42.4 54.1,34.5 54.1,42.4 
		56.7,42.4 60.6,34.5 58.7,42.4 61.9,42.4 	"/>
	<polygon class="st7" points="87.1,30.1 83.8,30.1 82.2,36.6 80.6,30.1 77.1,30.1 74,42.4 77.2,42.4 78.8,35.7 80.6,42.4 84,42.4 	
		"/>
	<polygon class="st10" points="66.6,40.6 66.2,42.4 69.7,42.4 70.2,40.6 	"/>
</g>
</svg>
