<?xml version="1.0" encoding="utf-8"?>
<!-- Generator: Adobe Illustrator 23.0.1, SVG Export Plug-In . SVG Version: 6.00 Build 0)  -->
<svg version="1.1" id="Layer_1" xmlns="http://www.w3.org/2000/svg" xmlns:xlink="http://www.w3.org/1999/xlink" x="0px" y="0px"
	 width="500px" height="250px" viewBox="0 0 500 250" style="enable-background:new 0 0 500 250;" xml:space="preserve">
<style type="text/css">
	.st0{fill:#364A5E;}
	.st1{fill:#5E6E7F;}
	.st2{fill:#293B4D;}
	.st3{fill:#C23F29;}
	.st4{fill:#F47D5E;}
	.st5{fill:#FFFFFF;}
</style>
<g>
	<g>
		<path class="st0" d="M351.2,68.7c0,22.6-18.3,40.8-40.8,40.8s-40.8-18.3-40.8-40.8c0-22.6,18.3-40.8,40.8-40.8
			C332.9,27.9,351.2,46.2,351.2,68.7z"/>
		<path class="st0" d="M230.5,68.7c0,22.6-18.3,40.8-40.9,40.8c-22.5,0-40.8-18.3-40.8-40.8c0-22.6,18.3-40.8,40.8-40.8
			C212.2,27.9,230.5,46.2,230.5,68.7z"/>
	</g>
	<path class="st1" d="M365.1,64.9c-4.9-5.9-11.2-10.8-18.6-14.2s-18-5.1-28.5-5.1h-4.6c-19.9,0-31.2,7.8-39.6,14.1
		c-2.7,2.1-5.4,4.4-8.7,5.8c-3.4,1.4-8.7,2-12.1,2c-0.7,0-5.5,0-6.2,0c-3.4,0-8.7-0.6-12.1-2c-3.4-1.4-6-3.7-8.7-5.8
		c-8.4-6.3-19.7-14.1-39.6-14.1h-4.6c-10.5,0-21.1,1.6-28.5,5.1c-7.4,3.4-13.6,8.4-18.6,14.2l-67.9,80.8H250h183.1L365.1,64.9z"/>
	<path class="st2" d="M305.9,107.7c-2.4,0-4.8,0.1-7.3,0.3c-2.4,0.2-4.8,0.6-7.2,1l-24.1,4.5c-5.6,1.1-11.4,1.6-17.3,1.6
		c-5.9,0-11.7-0.6-17.3-1.6l-24.1-4.5c-2.4-0.4-4.8-0.8-7.2-1s-4.9-0.3-7.3-0.3H182v68h19.8c3.3,0,6.6-0.7,9.8-2.2s5.8-3.7,7.9-6.3
		l11.7-14.6c4.4-5.5,11.2-9,18.8-9s14.4,3.5,18.8,9l11.7,14.6c2.1,2.6,4.7,4.7,7.9,6.3c3.2,1.5,6.5,2.2,9.8,2.2H318v-68L305.9,107.7
		L305.9,107.7z"/>
	<path class="st1" d="M270.9,143.5c0,11.5-9.4,20.9-20.9,20.9c-11.6,0-20.9-9.4-20.9-20.9c0-11.6,9.4-20.9,20.9-20.9
		C261.6,122.6,270.9,131.9,270.9,143.5z"/>
	<path class="st2" d="M256.8,143.5c0,3.8-3.1,6.8-6.8,6.8c-3.8,0-6.8-3.1-6.8-6.8c0-3.8,3-6.8,6.8-6.8
		C253.8,136.6,256.8,139.7,256.8,143.5z"/>
	<g>
		<path class="st0" d="M149.6,230.6c-39.2,8-77.5-17.3-85.5-56.5s17.3-77.5,56.5-85.5s77.5,17.3,85.5,56.5
			C214.1,184.4,188.8,222.6,149.6,230.6z"/>
		<path class="st0" d="M350.4,230.6c39.2,8,77.5-17.3,85.5-56.5s-17.3-77.5-56.5-85.5s-77.5,17.3-85.5,56.5
			C285.9,184.4,311.2,222.6,350.4,230.6z"/>
	</g>
	<path class="st3" d="M135.1,214.6c-30.3,0-54.9-24.6-54.9-54.9s24.6-54.9,54.9-54.9s54.9,24.6,54.9,54.9S165.4,214.6,135.1,214.6z"
		/>
	<path class="st4" d="M135.1,206.7c-26,0-47.1-21.1-47.1-47.1s21.1-47.1,47.1-47.1s47.1,21.1,47.1,47.1
		C182.2,185.6,161.1,206.7,135.1,206.7z"/>
	<path class="st3" d="M364.9,214.6c-30.3,0-54.9-24.6-54.9-54.9s24.6-54.9,54.9-54.9s54.9,24.6,54.9,54.9S395.2,214.6,364.9,214.6z"
		/>
	<path class="st4" d="M364.9,206.7c-26,0-47.1-21.1-47.1-47.1s21.1-47.1,47.1-47.1s47.1,21.1,47.1,47.1S390.9,206.7,364.9,206.7z"/>
	<g>
		<path class="st5" d="M129.9,122.4c7.5,7.5,6.4,20.8-2.6,29.7c-8.9,8.9-22.2,10.1-29.7,2.6s-6.4-20.8,2.6-29.7
			C109.1,116.1,122.4,114.9,129.9,122.4z"/>
		<path class="st5" d="M171.6,184.3c2.8,2.8,2.4,7.8-1,11.1c-3.3,3.3-8.3,3.8-11.1,1s-2.4-7.8,1-11.1
			C163.8,181.9,168.8,181.5,171.6,184.3z"/>
		<path class="st5" d="M360.2,122.4c7.5,7.5,6.4,20.8-2.6,29.7c-8.9,8.9-22.2,10.1-29.7,2.6s-6.4-20.8,2.6-29.7
			C339.4,116.1,352.7,114.9,360.2,122.4z"/>
		<path class="st5" d="M401.9,184.3c2.8,2.8,2.4,7.8-1,11.1c-3.3,3.3-8.3,3.8-11.1,1c-2.8-2.8-2.4-7.8,0.9-11.1
			C394.1,181.9,399.1,181.5,401.9,184.3z"/>
	</g>
</g>
</svg>
