<?xml version="1.0" encoding="utf-8"?>
<!-- Generator: Adobe Illustrator 24.3.0, SVG Export Plug-In . SVG Version: 6.00 Build 0)  -->
<svg version="1.1" id="Layer_1" xmlns="http://www.w3.org/2000/svg" xmlns:xlink="http://www.w3.org/1999/xlink" x="0px" y="0px"
	 viewBox="0 0 300 300" style="enable-background:new 0 0 300 300;" xml:space="preserve">
<style type="text/css">
	.st0{fill:#FFFFFF;}
	.st1{fill:none;stroke:#EA008A;stroke-width:0.171;stroke-miterlimit:10;}
</style>
<g>
	<path class="st0" d="M128.7,213.5c-22.5,0-43.6-8.8-59.5-24.7s-24.7-37-24.7-59.5s8.8-43.6,24.7-59.5s37-24.7,59.5-24.7
		s43.6,8.8,59.5,24.7s24.7,37,24.7,59.5s-8.8,43.6-24.7,59.5S151.2,213.5,128.7,213.5z M128.7,57.2c-19.3,0-37.4,7.5-51,21.1
		s-21.1,31.8-21.1,51c0,19.3,7.5,37.4,21.1,51c13.6,13.6,31.8,21.1,51,21.1c19.3,0,37.4-7.5,51-21.1c13.6-13.6,21.1-31.8,21.1-51
		c0-19.3-7.5-37.4-21.1-51C166.1,64.7,147.9,57.2,128.7,57.2z"/>
	<path class="st0" d="M249.2,255.8c-1.5,0-3.1-0.6-4.3-1.8l-65.2-65.2c-2.3-2.3-2.3-6.2,0-8.5c2.3-2.3,6.2-2.3,8.5,0l65.2,65.2
		c2.3,2.3,2.3,6.2,0,8.5C252.2,255.3,250.7,255.8,249.2,255.8z"/>
</g>
<g>
	<g>
		
			<rect x="44.3" y="45" transform="matrix(-1.836970e-16 1 -1 -1.836970e-16 300.3269 0.6731)" class="st1" width="211" height="211"/>
	</g>
</g>
</svg>
