<?xml version="1.0" encoding="utf-8"?>
<!-- Generator: Adobe Illustrator 24.3.0, SVG Export Plug-In . SVG Version: 6.00 Build 0)  -->
<svg version="1.1" id="Calque_1" xmlns="http://www.w3.org/2000/svg" xmlns:xlink="http://www.w3.org/1999/xlink" x="0px" y="0px"
	 viewBox="0 0 408 147.6" style="enable-background:new 0 0 408 147.6;" xml:space="preserve">
<style type="text/css">
	.st0{fill:#FFFFFF;}
	.st1{fill:#FFFFFF;stroke:#EF005A;stroke-miterlimit:10;}
</style>
<g>
	<path class="st0" d="M184.1,119.8V63.2c-1.5,0.4-8.1,2.4-11.6,6.1c-1.5,1.6-2.3,3.4-2.3,4.8v45.8H184.1z M236.1,70.1
		C231,64.9,225,64,217.5,64c-7.7,0-14.9,3.1-16.3,4.1c-1.1,0.9-1.9,2-1.9,3.5V79c5.1-1.7,11.8-2.8,15.9-2.8c4.1,0,7.7,0.5,10,2.4
		c2.7,2.2,3,5.8,3,7.6c0,0.6-0.1,1-0.1,1v0.2h-0.2c0,0-6.2-0.7-12.6-0.7c-6.4,0-12.1,1.2-16,4.2c-3.4,2.7-6.1,7.7-6.1,13.1
		c0,6.1,2.7,10.3,5.8,12.9c3.2,2.7,9.2,3.9,14.2,3.9c5.4,0,9-0.9,11.3-1.8c2.3-0.9,3.2-1.7,3.2-1.7l0.4-0.4v2.8h13.2V87.6
		C241.3,80.2,240,74.1,236.1,70.1z M228.1,101.2c0,3-1.3,7-5.6,8.9c-2.1,0.9-4.3,1.4-6.4,1.4s-4.1-0.5-5.9-1.5
		c-2.2-1.4-3.1-3.8-3.1-6.1c0-1.5,0.4-3,1.1-4c1.5-2.5,4.7-4,9.8-4.1c0.4,0,0.8,0,1.2,0c5.8,0,8.9,1.1,8.9,1.1L228.1,101.2
		L228.1,101.2z M251.4,55.2c0-1.7,0.6-3.8,2.1-5.3c3.7-3.7,10.5-5.4,12-5.8v75.7h-14.1V55.2z M303,64c-16.7,0-29.5,12.5-29.5,28.7
		c0,16.1,12.6,28.3,29.4,28.3c16.8,0,30-12.4,30-28.7C332.7,76.2,319.8,64,303,64z M303,108.8c-8.5,0-15.4-7.4-15.4-16.5
		c0-9.4,6.4-15.9,15.1-15.9c8.6,0,15.4,6.9,15.4,16.3C318.2,102,311.9,108.8,303,108.8z M388.1,66.2c-1.2,0.4-3.7,1.9-4.9,4.3
		c-6.1-5.7-13.3-6.4-19.2-6.4c-12.6,0-24.9,9.2-24.9,26.3c0,17.3,12.5,25.5,24.9,25.5c7,0,13.5-1.7,19.3-6.6c0,6.9-1.9,10.5-4,12.7
		c-2.9,3-7.3,4.5-13.4,4.5c-2.9,0-6-0.6-8.9-1.4v6.7c0,2,1.1,3.5,2.7,4.2c3.5,1.5,8.7,2.2,12.2,2.2c7,0,13.9-2.6,19.1-7.6
		c4.8-4.6,7.1-12.5,7.1-22.6V64.2C396.7,64.3,392,64.7,388.1,66.2z M368.4,104c-8.6,0-14.8-6-14.8-13.9S358.9,76,367.8,76
		c8.5,0,15.4,5.4,15.4,14.5C383.2,98.6,377.1,104,368.4,104z M125.4,119.7h-24.5V70.6c0-1.5,0.1-3.9,1.7-5.6
		c4-4.1,10.3-4.5,12.4-4.8v46.3h10.3c12.5,0,21.6-10.8,21.6-24v-0.2c0-13.2-8.6-22.2-21.6-22.2h-10.7c-3.7,0-8.5-1.1-12.3-4.6
		c-1.7-1.5-3-4.3-3-6.6v-2.3h26.1c21.9,0,37,14.9,37,35.8v0.2C162.4,103.8,147.3,119.7,125.4,119.7"/>
	<g>
		<polygon class="st1" points="3.2,111.9 44.5,135.8 44.5,88 		"/>
		<polygon class="st1" points="3.2,16.4 3.2,64.1 44.5,40.2 		"/>
		<polygon class="st1" points="44.5,40.2 44.5,40.2 3.2,64.1 44.5,88 		"/>
		<polygon class="st1" points="85.9,111.9 85.9,64.1 44.5,88 		"/>
		<polygon class="st1" points="44.5,88 44.5,88 85.9,64.1 44.5,40.2 		"/>
		<polygon class="st1" points="85.9,111.9 85.9,111.9 44.5,88 44.5,135.8 		"/>
	</g>
</g>
</svg>
