<?xml version="1.0" encoding="utf-8"?>
<!-- Generator: Adobe Illustrator 23.0.1, SVG Export Plug-In . SVG Version: 6.00 Build 0)  -->
<svg version="1.1" id="Calque_1" xmlns="http://www.w3.org/2000/svg" xmlns:xlink="http://www.w3.org/1999/xlink" x="0px" y="0px"
	 width="400px" height="99px" viewBox="0 0 400 99" style="enable-background:new 0 0 400 99;" xml:space="preserve">
<style type="text/css">
	.st0{fill:#FFFFFF;}
	.st1{font-family:'duCoHeadline16-Regular';}
	.st2{font-size:23.2323px;}
</style>
<title>logo</title>
<text transform="matrix(1 0 0 1 93.0781 92.585)" class="st0 st1 st2">For du subscribers</text>
<path class="st0" d="M167.8,42.1c0,5.6,4.7,10.2,10.3,10.2c5.7,0,10.3-4.6,10.3-10.2s-4.7-10.2-10.3-10.2
	C172.4,31.9,167.8,36.5,167.8,42.1 M237,42.1c0,13.3-10.8,24.1-24.2,24.1c-6.8,0-12.9-2.7-17.3-7.2c-4.4,4.4-10.5,7.2-17.3,7.2
	c-13.4,0-24.2-10.8-24.2-24.1S164.6,18,178,18c3.7,0,7.2,0.8,10.3,2.3V8.9c0-3.9,3.1-6.9,7-6.9s7,3,7,6.9v33.2
	c0,5.6,4.7,10.2,10.3,10.2s10.3-4.6,10.3-10.2v-8.8c0-3.8,3.1-6.9,7-6.9s7,3,7,6.9L237,42.1z"/>
</svg>
