<?xml version="1.0" encoding="utf-8"?>
<!-- Generator: Adobe Illustrator 23.0.1, SVG Export Plug-In . SVG Version: 6.00 Build 0)  -->
<svg version="1.1" id="Calque_1" xmlns="http://www.w3.org/2000/svg" xmlns:xlink="http://www.w3.org/1999/xlink" x="0px" y="0px"
	 width="503px" height="94px" viewBox="0 0 503 94" style="enable-background:new 0 0 503 94;" xml:space="preserve">
<style type="text/css">
	.st0{fill:#FF0055;}
	.st1{fill:#1E1A34;}
</style>
<title>logo</title>
<g>
	<g>
		<path class="st0" d="M56.7,69.9c0-3.2,0.3-6,1-8.4c0.7-2.4,1.6-4.4,2.7-6.2c1.2-1.8,2.4-3.2,3.9-4.4c1.5-1.2,2.9-2.1,4.4-2.9
			c3.6-1.8,7.6-2.7,12.2-2.8c4.4,0.2,8.5,1,12.1,2.8c1.5,0.7,3,1.7,4.4,2.9c1.5,1.2,2.8,2.7,3.9,4.4c1.2,1.8,2,3.8,2.8,6.2
			c0.8,2.4,1.1,5.2,1.1,8.4c0,3.2-0.3,6-1.1,8.4c-0.8,2.4-1.6,4.4-2.8,6.2c-1.2,1.7-2.4,3-3.9,4.3c-1.5,1.2-2.9,2-4.4,2.8
			c-3.5,1.6-7.6,2.5-12.1,2.6c-4.6-0.2-8.6-1-12.2-2.6c-1.5-0.7-3-1.7-4.4-2.8c-1.5-1.2-2.8-2.6-3.9-4.3c-1.2-1.7-2-3.7-2.7-6.2
			C57.1,75.8,56.7,73,56.7,69.9z M80.9,56.1c-2.5,0-4.6,0.5-6.1,1.4c-1.6,1-2.7,2-3.5,3.5c-0.8,1.4-1.4,2.9-1.6,4.4
			c-0.3,1.6-0.5,3-0.5,4.4c0,1.4,0.2,2.9,0.5,4.4s0.8,3,1.6,4.4c0.8,1.4,2,2.5,3.5,3.5c1.6,1,3.5,1.4,6.1,1.4c2.5,0,4.6-0.5,6.1-1.4
			c1.6-1,2.7-2,3.5-3.5c0.8-1.4,1.4-2.9,1.6-4.4c0.3-1.6,0.5-3,0.5-4.4c0-1.4-0.2-2.8-0.5-4.4c-0.3-1.6-0.8-3-1.6-4.4
			c-0.8-1.4-1.9-2.5-3.5-3.5C85.5,56.7,83.5,56.1,80.9,56.1z"/>
		<path class="st0" d="M134.1,45.4c0.2,0,1,0,2.2,0.2c1.3,0.2,2.7,0.3,4.4,0.7c1.7,0.5,3.5,1.2,5.4,2.2c1.9,1,3.7,2.4,5.3,4.2
			c1.6,1.8,3,4.1,4,6.9c1.1,2.8,1.6,6.3,1.6,10.3V93h-12.5V69.9c0-1.4-0.2-2.7-0.5-4.1c-0.3-1.4-0.8-2.7-1.6-3.9
			c-0.7-1.2-1.8-2.1-3.2-2.9c-1.4-0.7-3.2-1.2-5.4-1.2c-2.2,0-4.1,0.5-5.4,1.2c-1.4,0.7-2.4,1.8-3.2,2.9c-0.7,1.2-1.3,2.4-1.6,3.9
			c-0.3,1.4-0.5,2.8-0.5,4.1v23.2h-12.1V69.9c0-4.1,0.5-7.6,1.6-10.3c1.1-2.8,2.4-5.1,4-6.9c1.6-1.8,3.3-3.3,5.3-4.2
			c1.9-0.9,3.7-1.7,5.4-2.2c1.7-0.5,3.2-0.7,4.4-0.7C133,45.4,133.8,45.4,134.1,45.4z"/>
		<g>
			<path class="st1" d="M242.8,61.6c-0.7-2.4-1.6-4.4-2.6-6.2c-1.1-1.8-2.3-3.2-3.7-4.4s-2.8-2.1-4.2-2.9c-3.3-1.7-7.1-2.7-11.4-2.8
				c-4.4,0.2-8.2,1-11.6,2.8c-1.4,0.7-2.9,1.7-4.2,2.9c-0.3,0.3-0.7,0.6-1,1c-0.3-0.3-0.7-0.7-1.1-1c-1.4-1.2-2.8-2.1-4.2-2.9
				c-3.3-1.7-7.1-2.7-11.4-2.8c-4.4,0.2-8.2,1-11.6,2.8c-1.4,0.7-2.9,1.7-4.2,2.9c-1.4,1.2-2.6,2.7-3.7,4.4c-1.1,1.8-2,3.8-2.6,6.2
				c-0.7,2.4-1,5.2-1,8.4v23.2h12.4V69.9c0-1.4,0.2-2.7,0.3-4.1c0.2-1.4,0.6-2.7,1.3-3.9c0.7-1.2,1.7-2.1,3-2.9
				c1.4-0.7,3.3-1.2,5.9-1.2c2.5,0,4.4,0.5,5.9,1.2c1.4,0.7,2.4,1.8,3,2.9c0.7,1.2,1.1,2.4,1.3,3.9c0.2,1.5,0.3,2.8,0.3,4.1v23.2
				h12.5V69.9c0-1.4,0.2-2.7,0.3-4.1s0.6-2.7,1.3-3.9c0.7-1.2,1.7-2.1,3-2.9c1.4-0.7,3.3-1.2,5.9-1.2c2.5,0,4.4,0.5,5.9,1.2
				c1.4,0.7,2.4,1.8,3,2.9c0.7,1.2,1.1,2.4,1.3,3.9c0.2,1.4,0.3,2.8,0.3,4.1v23.2h12.5V69.9C243.8,66.7,243.4,63.9,242.8,61.6z"/>
		</g>
		<g>
			<g>
				<path class="st1" d="M249.7,69.9c0-3.2,0.3-6,1-8.4c0.7-2.4,1.6-4.4,2.7-6.2c1.2-1.8,2.4-3.2,3.9-4.4c1.5-1.2,2.9-2.1,4.4-2.9
					c3.5-1.7,7.6-2.7,12.2-2.8c4.4,0.2,8.5,1,12.1,2.8c1.5,0.7,3,1.7,4.4,2.9c1.5,1.2,2.8,2.7,3.9,4.4c1.2,1.8,2,3.8,2.8,6.2
					c0.7,2.4,1.1,5.2,1.1,8.4c0,3.2-0.3,6-1.1,8.4c-0.7,2.4-1.6,4.4-2.8,6.2s-2.4,3-3.9,4.3c-1.5,1.2-2.9,2-4.4,2.8
					c-3.5,1.6-7.6,2.5-12.1,2.6c-4.6-0.2-8.6-1-12.2-2.6c-1.5-0.7-3-1.7-4.4-2.8c-1.5-1.2-2.8-2.6-3.9-4.3c-1.2-1.7-2-3.7-2.7-6.2
					C250,75.8,249.7,73,249.7,69.9z M274,56.1c-2.5,0-4.6,0.5-6.1,1.4c-1.6,1-2.7,2-3.5,3.5c-0.8,1.4-1.4,2.9-1.6,4.4
					c-0.3,1.6-0.5,3-0.5,4.4c0,1.4,0.2,2.9,0.5,4.4s0.8,3,1.6,4.4c0.8,1.4,2,2.5,3.5,3.5c1.5,1,3.5,1.4,6.1,1.4
					c2.5,0,4.6-0.5,6.1-1.4c1.6-1,2.7-2,3.5-3.5c0.8-1.4,1.4-2.9,1.6-4.4c0.3-1.6,0.5-3,0.5-4.4c0-1.4-0.2-2.8-0.5-4.4
					c-0.3-1.6-0.8-3-1.6-4.4c-0.8-1.4-2-2.5-3.5-3.5C278.4,56.7,276.4,56.1,274,56.1z"/>
			</g>
		</g>
		<g>
			<g>
				<path class="st1" d="M359,36.1c0-1.4,0-2.4,0.2-3c0-0.7,0.2-1.2,0.6-1.5c0.5-0.3,1-0.5,1.8-0.5c0.9,0,2.1-0.2,3.7-0.2
					s2.9,0,3.7,0.2c0.9,0,1.5,0.2,1.8,0.5c0.5,0.3,0.6,0.8,0.6,1.5c0,0.7,0.2,1.7,0.2,3s0,2.4-0.2,3c-0.2,0.7-0.3,1.2-0.6,1.5
					c-0.5,0.3-1,0.5-1.8,0.5c-0.9,0-2.1,0.2-3.7,0.2s-2.9,0-3.7-0.2c-0.9,0-1.5-0.2-1.8-0.5c-0.5-0.3-0.6-0.8-0.6-1.5
					C359,38.6,359,37.5,359,36.1z M371.5,46.5v46.6h-12.5V46.5H371.5z"/>
			</g>
		</g>
		<g>
			<g>
				<path class="st1" d="M392.2,31.2v61.9h-12.5V31.2H392.2z"/>
			</g>
		</g>
		<g>
			<path class="st1" d="M316.3,69.9c0,0.2,0,0.3,0,0.5v-1C316.3,69.5,316.3,69.7,316.3,69.9z"/>
		</g>
		<g>
			<path class="st1" d="M316.3,70.9L316.3,70.9c0-0.2,0-0.3,0-0.5V70.9z"/>
		</g>
		<g>
			<path class="st1" d="M351.2,61.6c-0.7-2.4-1.5-4.4-2.6-6.2c-1.1-1.8-2.2-3.2-3.6-4.4c-1.4-1.2-2.7-2.1-4.1-2.9
				c-3.3-1.7-7-2.7-11.3-2.8c-2.1,0.2-4.1,0.6-6.1,1.4c-0.5,0.2-1.1,0.5-1.6,0.7v10c1.5-0.9,3.5-1.4,6.1-1.4s4.6,0.5,6.1,1.4
				c1.6,1,2.7,2,3.5,3.5c0.8,1.4,1.4,2.9,1.6,4.4c0.3,1.6,0.5,3,0.5,4.4c0,1.4-0.2,2.9-0.5,4.4s-0.8,3-1.6,4.4
				c-0.8,1.4-2,2.5-3.5,3.5c-1.6,1-3.5,1.4-6.1,1.4c-2.5,0-4.6-0.5-6.1-1.4c-1.6-1-2.7-2-3.6-3.5c-0.9-1.4-1.4-2.9-1.7-4.4
				c-0.2-1.2-0.3-2.3-0.3-3.3l0,0V31.2h-12.2v38.7c0,3.2,0.3,6,1,8.4c0.7,2.4,1.6,4.4,2.7,6.2c1.2,1.8,2.4,3.2,3.8,4.4
				c1.4,1.2,2.9,2,4.4,2.8c3.5,1.6,7.5,2.5,11.9,2.6c4.4-0.2,8.5-1,12.1-2.6c1.5-0.7,3-1.7,4.4-2.8c1.5-1.2,2.8-2.6,3.9-4.3
				c1.2-1.7,2-3.7,2.8-6.2c0.7-2.4,1.1-5.2,1.1-8.4C352.2,66.7,351.8,63.9,351.2,61.6z"/>
		</g>
		<path class="st1" d="M411.7,70.5v-1.2c0,0.2-0.2,0.3-0.2,0.5C411.7,70,411.7,70.2,411.7,70.5z"/>
		<path class="st1" d="M411.7,70.5v-1.2c0,0.2-0.2,0.3-0.2,0.5C411.7,70,411.7,70.2,411.7,70.5z"/>
		<g>
			<path class="st1" d="M411.9,73.2c-0.2-0.3-0.2-0.7-0.2-1c0-0.3-0.2-0.5-0.2-0.7c0-0.3-0.2-0.7-0.2-1.1c0-0.2-0.2-0.5-0.2-0.6
				s0-0.3,0.2-0.5c0.2-1.9,0.3-3.7,0.7-5.4c0.2-0.2,0.2-0.5,0.2-0.6c0.2-0.3,0.2-0.7,0.3-1c0.2-0.2,0.2-0.5,0.3-0.7
				c0.2-0.2,0.2-0.5,0.3-0.7c0.5-1,1.3-1.9,2.2-2.7c0.9-0.8,2-1.4,3.2-1.9c1.2-0.5,2.7-0.7,4.3-0.7c1.6,0,3,0.2,4.3,0.7
				c1.2,0.5,2.3,1.1,3.2,1.9c0.9,0.8,1.6,1.7,2.1,2.7c0.5,1,1,2,1.3,2.9h-16.7v7.6h30.3v-1.6c0-1.1-0.2-2.2-0.2-3
				c-0.2-1-0.2-1.9-0.3-2.9c-0.5-2.4-1.1-4.4-2-6.3c-1-1.8-2-3.3-3.2-4.7c-1.2-1.3-2.5-2.4-3.9-3.3c-1.4-0.9-2.8-1.6-4.1-2.2
				c-3.3-1.3-6.8-2-10.5-2.1c-4.6,0.2-8.6,1-12.2,2.8c-1.5,0.7-3,1.7-4.4,2.9c-1.5,1.2-2.8,2.7-3.9,4.4c-1.2,1.8-2,3.8-2.7,6.2
				c-0.7,2.4-1,5.2-1,8.4c0,3.2,0.3,6,1,8.4c0.7,2.4,1.6,4.4,2.7,6.2c1.2,1.7,2.4,3,3.9,4.3c1.5,1.2,2.9,2,4.4,2.8
				c3.5,1.6,7.6,2.5,12.2,2.6c3.5,0,6.8-0.5,9.9-1.6c1.3-0.5,2.7-1.1,4-1.9c1.4-0.7,2.7-1.7,3.8-2.9c1.2-1.2,2.3-2.5,3.3-4.1
				c1-1.6,1.8-3.5,2.3-5.6h-13.2c-0.7,1.6-1.9,3-3.5,4.2c-1.6,1.2-3.7,1.8-6.5,1.8s-5-0.6-6.5-1.8c-1.5-1.2-2.7-2.7-3.5-4.2
				c-0.2-0.5-0.3-0.9-0.5-1.3c-0.2-0.6-0.5-1.2-0.5-1.8C412.2,74.2,412,73.7,411.9,73.2z"/>
		</g>
	</g>
</g>
</svg>
