<?xml version="1.0" encoding="utf-8"?>
<!-- Generator: Adobe Illustrator 25.2.3, SVG Export Plug-In . SVG Version: 6.00 Build 0)  -->
<svg version="1.1" id="Layer_1" xmlns="http://www.w3.org/2000/svg" xmlns:xlink="http://www.w3.org/1999/xlink" x="0px" y="0px"
	 viewBox="0 0 228 63.1" style="enable-background:new 0 0 228 63.1;" xml:space="preserve">
<style type="text/css">
	.st0{fill:#EC2329;}
	.st1{fill:#FFFFFF;}
	.st2{font-family:'VodafoneRg-Bold';}
	.st3{font-size:34.4363px;}
</style>
<g id="Layer_3">
</g>
<g id="XMLID_2_">
	<g id="XMLID_6_">
		<path id="XMLID_8_" class="st0" d="M58.1,28.5c0,15.2-12.4,27.6-27.6,27.6S2.9,43.8,2.9,28.5c0-15.2,12.4-27.6,27.6-27.6
			S58.1,13.3,58.1,28.5z"/>
		<path id="XMLID_7_" class="st1" d="M30.7,43.9c-7.6,0-15.5-6.5-15.5-16.8c0-6.9,3.7-13.5,8.4-17.4c4.6-3.8,11-6.3,16.7-6.3
			c0.7,0,1.5,0.1,2,0.2c-5,1-9,5.7-9,11c0,0.2,0,0.4,0,0.4c8.4,2,12.2,7.1,12.2,14.1C45.6,36.2,40.1,43.9,30.7,43.9z"/>
	</g>
	<text id="XMLID_3_" transform="matrix(1 0 0 1 61.5009 42.6678)" class="st0 st2 st3">vodacom</text>
</g>
</svg>
