<?xml version="1.0" encoding="utf-8"?>
<!-- Generator: Adobe Illustrator 25.0.1, SVG Export Plug-In . SVG Version: 6.00 Build 0)  -->
<svg version="1.1" id="Layer_1" xmlns="http://www.w3.org/2000/svg" xmlns:xlink="http://www.w3.org/1999/xlink" x="0px" y="0px"
	 viewBox="0 0 462.1 94" style="enable-background:new 0 0 462.1 94;" xml:space="preserve">
<style type="text/css">
	.st0{fill:#FFFFFF;}
</style>
<g id="Layer_3">
</g>
<g>
	<path class="st0" d="M3.6,24.9h17.2c7.5,0,12.1,1.2,15.2,3.9c2.4,2.1,3.7,5.2,3.7,9c0,5.4-2.5,9-7.4,11.5
		C38.8,50.2,43.5,55,43.5,62c0,5.1-1.5,8.8-4.4,11.3c-3.4,3-8.6,4.3-16.7,4.3H3.6V24.9z M19.7,45.8c3.3,0,5.2-0.4,6.5-1.6
		c1-1,1.5-2.5,1.5-4.7c0-1.9-0.5-3.4-1.5-4.4c-1.2-1.2-3-1.5-6.3-1.5h-4.4v12.3H19.7z M20.5,68.9c4.5,0,7.3-0.5,8.7-1.9
		c1.1-1.1,1.7-2.6,1.7-4.8c0-2.9-0.6-4.7-2-5.9c-1.6-1.4-4.1-1.8-8.4-1.8h-4.9v14.4H20.5z"/>
	<path class="st0" d="M48.9,66.3c0-3.4,1.2-6.5,3.3-8.6c2.7-2.5,6.9-3.5,13.9-3.5h6V53c0-2.1-0.5-3.4-1.4-4.2
		c-1.3-1.2-3.4-1.5-6.4-1.5c-3.6,0-7.9,0.5-10.6,1l-0.5-8.1c3.9-0.8,8.9-1.4,13.4-1.4c5.8,0,11,1.2,13.6,4.3c1.9,2.2,2.9,5.5,2.9,10
		v24.5h-8.7l-0.9-2.3c-3.2,2.1-7.3,3.4-11.3,3.4C53.5,78.7,48.9,73.6,48.9,66.3z M72.1,69.2v-7.8h-5.9c-2.6,0-4.2,0.3-5.2,1.3
		c-0.7,0.7-1.1,1.8-1.1,3.2c0,2.8,1.4,4.5,5.4,4.5C67.4,70.3,70.3,69.7,72.1,69.2z"/>
	<path class="st0" d="M93.3,71.2c-2.1-3.2-3.1-7.4-3.1-11.6c0-6.3,1.5-11.5,4.9-15.2c3.4-3.6,8.9-5.6,15.1-5.6
		c3.5,0,7.5,0.4,11.1,1.4l-0.7,8.2c-2.3-0.6-5.6-1.1-8.7-1.1c-3.4,0-6,1-7.6,2.7c-1.9,2-2.5,4.9-2.5,8.8c0,7.8,3.2,11.6,11.1,11.6
		c2.5,0,5.5-0.3,7.9-0.8l0.8,7.9c-3.7,0.8-6.5,1.2-10.7,1.2C104.4,78.7,97.3,77.3,93.3,71.2z"/>
	<path class="st0" d="M127.9,22.5h11v31.8l11.8-14.4h12.7L150,55l14.7,22.7h-12.4l-9.5-15l-3.9,4.9v10.1h-11V22.5z"/>
	<path class="st0" d="M172.3,66.2V47h-6.4v-6l6.4-1.2v-8.4c3.3-1,7.5-1.6,11-1.6v10h9.8V47h-9.8v17.7c0,4.2,0.8,5.8,5.3,5.8
		c1.5,0,4-0.3,5.3-0.5l0.4,7.8c-2.5,0.5-6.3,0.9-9.6,0.9C175.3,78.7,172.3,74.6,172.3,66.2z"/>
	<path class="st0" d="M198.9,58.7c0-12.1,6.1-20,19.2-20c13.1,0,19.2,7.9,19.2,20c0,12.1-6.1,20-19.2,20
		C205,78.7,198.9,70.9,198.9,58.7z M225.8,58.7c0-7.8-2.2-11.6-7.7-11.6c-5.6,0-7.7,3.8-7.7,11.6c0,7.8,2.2,11.6,7.7,11.6
		C223.7,70.3,225.8,66.5,225.8,58.7z"/>
	<path class="st0" d="M244.7,39.8h9.6l0.2,2.7c4.2-2.7,9-3.8,13-3.8c3.3,0,7,0.8,9.1,2.9c2.3,2.2,3.2,5.6,3.2,10v26h-11V52.9
		c0-1.9-0.4-3-1.2-3.8c-1-0.9-2.5-1.2-4.8-1.2c-2.1,0-5.4,0.5-7.2,1.2v28.5h-11V39.8z"/>
	<path class="st0" d="M292.1,73.9c-3.8-3.6-5.1-9-5.1-15c0-13.3,6.8-20.1,18.4-20.1c11.3,0,17.4,5.9,17.4,19.1v3.5
		c0,0.6-0.3,0.8-0.9,0.8h-23.2c0.3,6.4,4.2,8.2,11.7,8.2c2.7,0,6.6-0.4,9.4-0.9l0.8,8c-3.6,0.7-8,1.3-12.7,1.3
		C300.6,78.7,295.3,76.9,292.1,73.9z M311.9,55c0-4.8-2.2-7.9-6.6-7.9c-4.5,0-6.5,3-6.7,7.9H311.9z"/>
	<path class="st0" d="M328.6,76.6l0.8-8.2c2.9,0.9,8.1,1.8,12.2,1.8c4.2,0,6.8-0.8,6.8-3.5c0-6.7-20.6-0.2-20.6-15.8
		c0-7,5.1-12.2,16.4-12.2c3.8,0,8.5,0.7,12.6,2.1l-0.8,8.1c-3.9-1.1-8.6-1.7-11.7-1.7c-3.9,0-6.1,0.9-6.1,3.1
		c0,6.4,20.7,0.3,20.7,16c0,7.9-5.7,12.4-17.1,12.4C337.4,78.7,331.6,77.7,328.6,76.6z"/>
</g>
</svg>
