<?xml version="1.0" encoding="utf-8"?>
<!-- Generator: Adobe Illustrator 25.0.1, SVG Export Plug-In . SVG Version: 6.00 Build 0)  -->
<svg version="1.1" id="Layer_1" xmlns="http://www.w3.org/2000/svg" xmlns:xlink="http://www.w3.org/1999/xlink" x="0px" y="0px"
	 viewBox="0 0 462.1 94" style="enable-background:new 0 0 462.1 94;" xml:space="preserve">
<style type="text/css">
	.st0{fill:#019DF4;}
</style>
<g id="Layer_3">
</g>
<g>
	<path class="st0" d="M14.7,13.3h21.1c9.2,0,14.8,1.5,18.6,4.8c2.9,2.6,4.5,6.4,4.5,11c0,6.6-3.1,11-9.1,14.1
		c8,1.1,13.7,7,13.7,15.6c0,6.2-1.8,10.8-5.4,13.8c-4.2,3.7-10.5,5.3-20.5,5.3h-23V13.3z M34.4,38.9c4,0,6.4-0.5,8-2
		c1.2-1.2,1.8-3.1,1.8-5.8c0-2.3-0.6-4.2-1.8-5.4c-1.5-1.5-3.7-1.8-7.7-1.8h-5.4V39h5.1V38.9z M35.4,67.2c5.5,0,8.9-0.6,10.7-2.3
		c1.3-1.3,2.1-3.2,2.1-5.9c0-3.6-0.7-5.8-2.5-7.2c-2-1.7-5-2.2-10.3-2.2h-6v17.6H35.4z"/>
	<path class="st0" d="M70.2,64c0-4.2,1.5-8,4-10.5c3.3-3.1,8.5-4.3,17-4.3h7.4v-1.5c0-2.6-0.6-4.2-1.7-5.1c-1.6-1.5-4.2-1.8-7.8-1.8
		c-4.4,0-9.7,0.6-13,1.2L75.5,32c4.8-1,10.9-1.7,16.4-1.7c7.1,0,13.5,1.5,16.7,5.3c2.3,2.7,3.6,6.7,3.6,12.3v30h-10.7l-1.1-2.8
		c-3.9,2.6-8.9,4.2-13.8,4.2C75.8,79.2,70.2,72.9,70.2,64z M98.6,67.5V58h-7.2c-3.2,0-5.1,0.4-6.4,1.6c-0.9,0.9-1.3,2.2-1.3,3.9
		c0,3.4,1.7,5.5,6.6,5.5C92.9,68.9,96.4,68.1,98.6,67.5z"/>
	<path class="st0" d="M124.6,70c-2.6-3.9-3.8-9.1-3.8-14.2c0-7.7,1.8-14.1,6-18.6c4.2-4.4,10.9-6.9,18.5-6.9c4.3,0,9.2,0.5,13.6,1.7
		L158,42c-2.8-0.7-6.9-1.3-10.7-1.3c-4.2,0-7.4,1.2-9.3,3.3c-2.3,2.5-3.1,6-3.1,10.8c0,9.6,3.9,14.2,13.6,14.2c3.1,0,6.7-0.4,9.7-1
		l1,9.7c-4.5,1-8,1.5-13.1,1.5C138.2,79.2,129.5,77.5,124.6,70z"/>
	<path class="st0" d="M167,10.3h13.5v39l14.5-17.6h15.6l-16.4,18.5l18,27.8h-15.2l-11.6-18.4l-4.8,6v12.4H167
		C167,77.9,167,10.3,167,10.3z"/>
	<path class="st0" d="M221.4,63.9V40.3h-7.8V33l7.8-1.5V21.2c4-1.2,9.2-2,13.5-2v12.3h12v8.8h-12V62c0,5.1,1,7.1,6.5,7.1
		c1.8,0,4.9-0.4,6.5-0.6l0.5,9.6c-3.1,0.6-7.7,1.1-11.8,1.1C225.1,79.2,221.4,74.1,221.4,63.9z"/>
	<path class="st0" d="M254,54.7c0-14.8,7.5-24.5,23.5-24.5S301,39.8,301,54.7s-7.5,24.5-23.5,24.5S254,69.6,254,54.7z M286.9,54.7
		c0-9.6-2.7-14.2-9.4-14.2c-6.9,0-9.4,4.7-9.4,14.2s2.7,14.2,9.4,14.2C284.4,68.9,286.9,64.2,286.9,54.7z"/>
	<path class="st0" d="M310.1,31.5h11.8l0.2,3.3c5.1-3.3,11-4.7,15.9-4.7c4,0,8.6,1,11.1,3.6c2.8,2.7,3.9,6.9,3.9,12.3v31.9h-13.5
		V47.6c0-2.3-0.5-3.7-1.5-4.7c-1.2-1.1-3.1-1.5-5.9-1.5c-2.6,0-6.6,0.6-8.8,1.5v34.9H310V31.5H310.1z"/>
	<path class="st0" d="M368.2,73.3c-4.7-4.4-6.2-11-6.2-18.4c0-16.3,8.3-24.6,22.5-24.6c13.8,0,21.3,7.2,21.3,23.4V58
		c0,0.7-0.4,1-1.1,1h-28.4c0.4,7.8,5.1,10,14.3,10c3.3,0,8.1-0.5,11.5-1.1l1,9.8c-4.4,0.9-9.8,1.6-15.6,1.6
		C378.6,79.2,372.1,77,368.2,73.3z M392.4,50.1c0-5.9-2.7-9.7-8.1-9.7c-5.5,0-8,3.7-8.2,9.7H392.4z"/>
	<path class="st0" d="M412.9,76.6l1-10c3.6,1.1,9.9,2.2,14.9,2.2c5.1,0,8.3-1,8.3-4.3c0-8.2-25.2-0.2-25.2-19.4
		c0-8.6,6.2-14.9,20.1-14.9c4.7,0,10.4,0.9,15.4,2.6l-1,9.9c-4.8-1.3-10.5-2.1-14.3-2.1c-4.8,0-7.5,1.1-7.5,3.8
		c0,7.8,25.4,0.4,25.4,19.6c0,9.7-7,15.2-21,15.2C423.7,79.2,416.6,77.9,412.9,76.6z"/>
</g>
</svg>
