<?xml version="1.0" encoding="utf-8"?>
<!-- Generator: Adobe Illustrator 25.2.3, SVG Export Plug-In . SVG Version: 6.00 Build 0)  -->
<svg version="1.1" id="Calque_1" xmlns="http://www.w3.org/2000/svg" xmlns:xlink="http://www.w3.org/1999/xlink" x="0px" y="0px"
	 viewBox="0 0 400 99" style="enable-background:new 0 0 400 99;" xml:space="preserve">
<style type="text/css">
	.st0{fill:#FF7900;}
	.st1{fill:#FFFFFF;}
</style>
<g>
	<rect x="20" y="11.5" class="st0" width="74" height="74"/>
	<g>
		<path class="st1" d="M49,78.3c-1,0.7-2.2,1-3.4,1c-1.9,0-3.1-1.3-3.1-3c0-2.3,2.1-3.5,6.5-4v-0.6c0-0.7-0.6-1.2-1.6-1.2
			s-1.9,0.4-2.5,1.2l-1.8-1c1-1.3,2.4-2,4.4-2c2.7,0,4.2,1.2,4.2,3.1c0,0,0,7.4,0,7.5h-2.4L49,78.3z M45.2,76.2
			c0,0.7,0.4,1.3,1.2,1.3c0.9,0,1.7-0.4,2.5-1.1V74C46.4,74.3,45.2,74.9,45.2,76.2z"/>
		<path class="st1" d="M53.8,69.2l2.2-0.3l0.2,1.2c1.3-0.9,2.3-1.4,3.5-1.4c2.1,0,3.2,1.1,3.2,3.3v7.2h-2.7v-6.7
			c0-1.3-0.3-1.8-1.3-1.8c-0.8,0-1.6,0.4-2.5,1.1v7.4h-2.7v-10C53.7,69.2,53.8,69.2,53.8,69.2z"/>
		<path class="st1" d="M81,79.4c-3,0-4.8-2-4.8-5.3c0-3.4,1.8-5.4,4.8-5.4s4.7,1.9,4.7,5.2c0,0.2,0,0.4,0,0.5h-6.9
			c0,2,0.8,2.9,2.4,2.9c1,0,1.7-0.4,2.3-1.3l2,1.1C84.7,78.7,83.1,79.4,81,79.4z M83,72.7c0-1.4-0.8-2.2-2.1-2.2
			c-1.2,0-2,0.8-2.1,2.2H83z"/>
		<path class="st1" d="M29.1,79.5c-2.7,0-5.1-1.7-5.1-5.4s2.4-5.4,5.1-5.4c2.7,0,5.1,1.7,5.1,5.4C34.2,77.8,31.8,79.5,29.1,79.5z
			 M29.1,71c-2,0-2.4,1.8-2.4,3.1c0,1.3,0.4,3.1,2.4,3.1s2.4-1.8,2.4-3.1S31.1,71,29.1,71z"/>
		<path class="st1" d="M36.1,68.9h2.6v1.2c0.5-0.7,1.7-1.4,2.8-1.4c0.1,0,0.2,0,0.3,0v2.5h-0.1c-1.2,0-2.5,0.2-2.9,1.1v6.9H36
			L36.1,68.9L36.1,68.9z"/>
		<path class="st1" d="M69.7,77c2.1,0,2.2-2.1,2.2-3.5c0-1.6-0.8-2.9-2.2-2.9c-1,0-2.1,0.7-2.1,3C67.6,74.9,67.7,77,69.7,77z
			 M74.5,68.9v9.8c0,1.7-0.1,4.6-5,4.6c-2,0-3.9-0.8-4.3-2.6l2.7-0.4c0.1,0.5,0.4,1,1.9,1c1.4,0,2.1-0.7,2.1-2.3v-1.2l0,0
			c-0.4,0.8-1.1,1.5-2.7,1.5c-2.4,0-4.3-1.7-4.3-5.1s1.9-5.4,4.1-5.4c2.1,0,2.8,0.9,3,1.4l0,0l0.2-1.2L74.5,68.9L74.5,68.9z"/>
		<path class="st1" d="M86.8,65.5h-1.1v2.9h-0.6v-2.9H84V65h2.7v0.5H86.8z M91.2,68.4h-0.6v-2.8l0,0l-1.1,2.8h-0.4L88,65.6l0,0v2.8
			h-0.6V65h0.9l1,2.6l1-2.6h0.9L91.2,68.4L91.2,68.4z"/>
	</g>
</g>
<g>
	<path d="M125.4,36.5v4.3H118V61h-5.1V40.9h-7.4v-4.3H125.4z"/>
	<path d="M140.6,58.8c-1.5,1.9-3.8,2.8-7,2.8c-3.1,0-5.4-0.9-7-2.8s-2.3-4.2-2.3-6.8c0-2.6,0.8-4.9,2.3-6.8s3.8-2.9,7-2.9
		c3.1,0,5.4,1,7,2.9s2.3,4.2,2.3,6.8C142.9,54.6,142.1,56.9,140.6,58.8z M136.8,56.2c0.7-1,1.1-2.4,1.1-4.2s-0.4-3.2-1.1-4.2
		c-0.7-1-1.8-1.5-3.2-1.5c-1.4,0-2.4,0.5-3.2,1.5s-1.1,2.4-1.1,4.2s0.4,3.2,1.1,4.2c0.7,1,1.8,1.5,3.2,1.5
		C135,57.6,136,57.2,136.8,56.2z"/>
	<path d="M160.8,43.9c1.2,1,1.8,2.6,1.8,4.9V61h-4.8V50c0-1-0.1-1.7-0.4-2.2c-0.5-0.9-1.3-1.4-2.6-1.4c-1.6,0-2.7,0.7-3.3,2
		c-0.3,0.7-0.5,1.6-0.5,2.8V61h-4.7V42.9h4.6v2.6c0.6-0.9,1.2-1.6,1.7-2c1-0.7,2.2-1.1,3.7-1.1C158.1,42.5,159.6,43,160.8,43.9z"/>
	<path d="M182.1,58.8c-1.5,1.9-3.8,2.8-7,2.8c-3.1,0-5.4-0.9-7-2.8s-2.3-4.2-2.3-6.8c0-2.6,0.8-4.9,2.3-6.8s3.8-2.9,7-2.9
		c3.1,0,5.4,1,7,2.9s2.3,4.2,2.3,6.8C184.4,54.6,183.6,56.9,182.1,58.8z M178.3,56.2c0.7-1,1.1-2.4,1.1-4.2s-0.4-3.2-1.1-4.2
		c-0.7-1-1.8-1.5-3.2-1.5c-1.4,0-2.4,0.5-3.2,1.5s-1.1,2.4-1.1,4.2s0.4,3.2,1.1,4.2c0.7,1,1.8,1.5,3.2,1.5
		C176.5,57.6,177.6,57.2,178.3,56.2z"/>
	<path d="M191.4,55.2c0.1,0.8,0.3,1.4,0.7,1.8c0.6,0.6,1.7,0.9,3.3,0.9c0.9,0,1.7-0.1,2.2-0.4s0.8-0.7,0.8-1.2
		c0-0.5-0.2-0.9-0.7-1.2c-0.4-0.3-2.1-0.8-4.9-1.4c-2.1-0.5-3.5-1.1-4.3-1.9c-0.8-0.8-1.3-1.8-1.3-3.3c0-1.7,0.7-3.1,2-4.3
		c1.3-1.2,3.2-1.8,5.5-1.8c2.3,0,4.1,0.5,5.5,1.4c1.4,0.9,2.2,2.5,2.5,4.7H198c-0.1-0.6-0.2-1.1-0.5-1.4c-0.5-0.6-1.4-1-2.7-1
		c-1,0-1.8,0.2-2.2,0.5c-0.4,0.3-0.7,0.7-0.7,1.1c0,0.5,0.2,0.9,0.7,1.2c0.5,0.3,2.1,0.7,4.9,1.3c1.9,0.4,3.3,1.1,4.2,2
		c0.9,0.9,1.4,2,1.4,3.4c0,1.8-0.7,3.3-2,4.4c-1.3,1.1-3.4,1.7-6.2,1.7c-2.9,0-5-0.6-6.3-1.8c-1.4-1.2-2-2.7-2-4.6H191.4z"/>
	<path d="M225.7,43.2c0.9,0.5,1.5,1.1,2.1,2v-8.6h4.8V61H228v-2.5c-0.7,1.1-1.4,1.9-2.3,2.3s-1.9,0.7-3.2,0.7
		c-2.1,0-3.9-0.9-5.3-2.6c-1.4-1.7-2.2-3.9-2.2-6.6c0-3.1,0.7-5.5,2.1-7.3c1.4-1.8,3.3-2.7,5.7-2.7
		C223.9,42.5,224.9,42.7,225.7,43.2z M226.9,56.1c0.7-1,1-2.3,1-3.9c0-2.2-0.6-3.8-1.7-4.7c-0.7-0.6-1.5-0.9-2.4-0.9
		c-1.4,0-2.4,0.5-3,1.6c-0.6,1-1,2.3-1,3.9c0,1.7,0.3,3,1,4c0.7,1,1.7,1.5,3,1.5S226.2,57.1,226.9,56.1z"/>
	<path d="M248.7,43.3c1.3,0.6,2.3,1.5,3.1,2.7c0.7,1.1,1.2,2.3,1.4,3.7c0.1,0.8,0.2,2,0.2,3.6h-13.2c0.1,1.8,0.7,3.1,1.9,3.8
		c0.7,0.5,1.6,0.7,2.6,0.7c1.1,0,2-0.3,2.6-0.8c0.4-0.3,0.7-0.7,1-1.2h4.8c-0.1,1.1-0.7,2.2-1.8,3.3c-1.6,1.8-3.9,2.6-6.8,2.6
		c-2.4,0-4.5-0.7-6.4-2.2c-1.8-1.5-2.8-3.9-2.8-7.2c0-3.1,0.8-5.5,2.5-7.2c1.7-1.7,3.8-2.5,6.5-2.5C246,42.4,247.4,42.7,248.7,43.3z
		 M241.6,47.4c-0.7,0.7-1.1,1.6-1.3,2.8h8.2c-0.1-1.3-0.5-2.2-1.3-2.9c-0.8-0.7-1.7-1-2.8-1C243.2,46.3,242.3,46.7,241.6,47.4z"/>
	<path d="M283.7,40.9h-12.9v5.2h11.9v4.2h-11.9v6.3h13.5V61h-18.5V36.5h17.9V40.9z"/>
	<path d="M291.6,55.2c0.1,0.8,0.3,1.4,0.7,1.8c0.6,0.6,1.7,0.9,3.3,0.9c0.9,0,1.7-0.1,2.2-0.4c0.5-0.3,0.8-0.7,0.8-1.2
		c0-0.5-0.2-0.9-0.7-1.2c-0.4-0.3-2.1-0.8-5-1.4c-2.1-0.5-3.5-1.1-4.3-1.9c-0.8-0.8-1.3-1.8-1.3-3.3c0-1.7,0.7-3.1,2-4.3
		c1.3-1.2,3.2-1.8,5.5-1.8c2.3,0,4.1,0.5,5.5,1.4c1.4,0.9,2.2,2.5,2.5,4.7h-4.7c-0.1-0.6-0.2-1.1-0.5-1.4c-0.5-0.6-1.4-1-2.7-1
		c-1,0-1.8,0.2-2.2,0.5c-0.4,0.3-0.7,0.7-0.7,1.1c0,0.5,0.2,0.9,0.7,1.2c0.5,0.3,2.1,0.7,4.9,1.3c1.9,0.4,3.3,1.1,4.2,2
		c0.9,0.9,1.4,2,1.4,3.4c0,1.8-0.7,3.3-2,4.4c-1.3,1.1-3.4,1.7-6.2,1.7c-2.8,0-5-0.6-6.3-1.8c-1.4-1.2-2-2.7-2-4.6H291.6z"/>
	<path d="M322.1,44.8c1.5,1.6,2.2,3.9,2.2,6.9c0,3.2-0.7,5.6-2.2,7.3s-3.3,2.5-5.6,2.5c-1.4,0-2.7-0.4-3.6-1.1c-0.5-0.4-1-1-1.5-1.7
		v9.4h-4.7V42.9h4.5v2.7c0.5-0.8,1.1-1.4,1.6-1.9c1.1-0.8,2.3-1.2,3.8-1.2C318.8,42.5,320.6,43.3,322.1,44.8z M318.4,48.2
		c-0.6-1.1-1.7-1.6-3.1-1.6c-1.7,0-2.9,0.8-3.6,2.4c-0.3,0.9-0.5,2-0.5,3.3c0,2.1,0.6,3.6,1.7,4.4c0.7,0.5,1.5,0.7,2.4,0.7
		c1.3,0,2.3-0.5,3-1.5c0.7-1,1-2.4,1-4.1C319.4,50.6,319.1,49.3,318.4,48.2z"/>
	<path d="M339.4,43.3c1.3,0.6,2.3,1.5,3.1,2.7c0.7,1.1,1.2,2.3,1.4,3.7c0.1,0.8,0.2,2,0.2,3.6h-13.2c0.1,1.8,0.7,3.1,1.9,3.8
		c0.7,0.5,1.6,0.7,2.6,0.7c1.1,0,2-0.3,2.6-0.8c0.4-0.3,0.7-0.7,1-1.2h4.8c-0.1,1.1-0.7,2.2-1.8,3.3c-1.6,1.8-3.9,2.6-6.8,2.6
		c-2.4,0-4.5-0.7-6.4-2.2c-1.8-1.5-2.8-3.9-2.8-7.2c0-3.1,0.8-5.5,2.5-7.2c1.7-1.7,3.8-2.5,6.5-2.5
		C336.7,42.4,338.1,42.7,339.4,43.3z M332.3,47.4c-0.7,0.7-1.1,1.6-1.3,2.8h8.2c-0.1-1.3-0.5-2.2-1.3-2.9c-0.8-0.7-1.7-1-2.8-1
		C333.9,46.3,333,46.7,332.3,47.4z"/>
	<path d="M356.6,42.5c0.1,0,0.2,0,0.4,0v4.8c-0.3,0-0.6-0.1-0.8-0.1c-0.2,0-0.4,0-0.6,0c-1.9,0-3.2,0.6-3.8,1.9
		c-0.4,0.7-0.5,1.8-0.5,3.2V61h-4.8V42.9h4.5v3.2c0.7-1.2,1.4-2,1.9-2.5c0.9-0.7,2-1.1,3.5-1.1C356.4,42.5,356.5,42.5,356.6,42.5z"
		/>
	<path d="M366.9,50c0.9-0.1,1.5-0.2,1.9-0.4c0.7-0.3,1-0.7,1-1.3c0-0.7-0.3-1.3-0.8-1.5c-0.5-0.3-1.3-0.4-2.3-0.4
		c-1.1,0-1.9,0.3-2.4,0.8c-0.3,0.4-0.6,1-0.7,1.7h-4.6c0.1-1.6,0.5-2.9,1.3-3.9c1.3-1.6,3.4-2.4,6.5-2.4c2,0,3.8,0.4,5.3,1.2
		c1.5,0.8,2.3,2.3,2.3,4.4v8.3c0,0.6,0,1.3,0,2.1c0,0.6,0.1,1,0.3,1.3s0.4,0.4,0.7,0.5V61h-5.1c-0.1-0.4-0.2-0.7-0.3-1
		s-0.1-0.7-0.1-1.1c-0.7,0.7-1.4,1.3-2.3,1.8c-1,0.6-2.2,0.9-3.5,0.9c-1.6,0-3-0.5-4.1-1.4c-1.1-0.9-1.6-2.3-1.6-4
		c0-2.2,0.9-3.8,2.6-4.8c0.9-0.5,2.3-0.9,4.2-1.2L366.9,50z M369.8,52.2c-0.3,0.2-0.6,0.3-0.9,0.5c-0.3,0.1-0.7,0.2-1.3,0.3
		l-1.1,0.2c-1,0.2-1.7,0.4-2.2,0.6c-0.7,0.4-1.1,1.1-1.1,2c0,0.8,0.2,1.4,0.7,1.8c0.5,0.4,1,0.5,1.7,0.5c1,0,2-0.3,2.9-0.9
		s1.3-1.7,1.4-3.3V52.2z"/>
</g>
</svg>
