<?xml version="1.0" encoding="utf-8"?>
<!-- Generator: Adobe Illustrator 23.0.1, SVG Export Plug-In . SVG Version: 6.00 Build 0)  -->
<svg version="1.1" id="Calque_1" xmlns="http://www.w3.org/2000/svg" xmlns:xlink="http://www.w3.org/1999/xlink" x="0px" y="0px"
	 width="400px" height="99px" viewBox="0 0 400 99" style="enable-background:new 0 0 400 99;" xml:space="preserve">
<style type="text/css">
	.st0{fill:#FFFFFF;}
	.st1{font-family:'MyriadPro-Regular';}
	.st2{font-size:23.8682px;}
	.st3{fill:#ED1C24;}
</style>
<title>logo</title>
<text transform="matrix(1 0 0 1 78.4657 93.0416)" class="st0 st1 st2">For Ooredoo Subscribers</text>
<g>
	<path class="st0" d="M233,22c-3.9,0-6.9,3.1-6.9,6.9c0,3.9,3.1,6.9,6.9,6.9c3.9,0,6.9-3.1,6.9-6.9C240,25.1,236.8,22,233,22"/>
	<path class="st0" d="M308.4,5.4c-7.8,0-14.6,3.7-18.9,9.4c-4.3-5.7-11.1-9.4-18.9-9.4s-14.6,3.7-18.9,9.4c-1.8-2.4-3.9-4.3-6.4-5.9
		v20c0,6.8-5.6,12.4-12.4,12.4c-6.8,0-12.4-5.6-12.4-12.4s5.6-12.4,12.4-12.4c2.3,0,4.5,0.6,6.5,1.8l0.5,0.3V6.4
		c-2.3-0.6-4.5-1.1-6.9-1.1c-7.8,0-14.6,3.7-18.9,9.4c-4.3-5.7-11.1-9.4-18.9-9.4c-7.8,0-14.6,3.7-18.9,9.4
		c-4.3-5.7-11.1-9.4-18.9-9.4c-7.8,0-14.6,3.7-18.9,9.4c-4.3-5.7-11.2-9.4-18.9-9.4s-14.6,3.7-18.9,9.4C96.5,9.1,89.7,5.4,82,5.4
		C69,5.4,58.5,15.9,58.5,29S69,52.5,82,52.5c7.8,0,14.6-3.7,18.9-9.4c4.3,5.7,11.1,9.4,18.9,9.4s14.6-3.7,18.9-9.4
		c4.3,5.7,11.1,9.4,18.9,9.4c7.8,0,14.6-3.7,18.9-9.4c4.3,5.7,11.1,9.4,18.9,9.4c7.8,0,14.6-3.7,18.9-9.4c4.3,5.7,11.1,9.4,18.9,9.4
		c7.8,0,14.6-3.7,18.9-9.4c4.3,5.7,11.1,9.4,18.9,9.4c7.8,0,14.6-3.7,18.9-9.4c4.3,5.7,11.1,9.4,18.9,9.4c13,0,23.6-10.6,23.6-23.6
		C332,15.9,321.4,5.4,308.4,5.4"/>
	<path class="st3" d="M239.5,18.4c-1.9-1.2-4.2-1.8-6.5-1.8c-6.8,0-12.4,5.6-12.4,12.4s5.6,12.4,12.4,12.4c6.8,0,12.4-5.6,12.4-12.4
		v-20c-1.7-1.1-3.6-1.9-5.4-2.5v12.3L239.5,18.4z M233,35.9c-3.9,0-6.9-3.1-6.9-6.9c0-3.9,3.1-6.9,6.9-6.9c3.9,0,6.9,3.1,6.9,6.9
		C240,32.8,236.8,35.9,233,35.9"/>
	<path class="st3" d="M270.7,41.3c-6.8,0-12.4-5.6-12.4-12.4s5.6-12.4,12.4-12.4c6.8,0,12.4,5.6,12.4,12.4S277.5,41.3,270.7,41.3
		 M270.7,22c-3.9,0-7,3.1-7,6.9c0,3.9,3.1,6.9,7,6.9s6.9-3.1,6.9-6.9C277.7,25.1,274.6,22,270.7,22"/>
	<path class="st3" d="M308.4,41.3c-6.8,0-12.4-5.6-12.4-12.4s5.6-12.4,12.4-12.4s12.4,5.6,12.4,12.4S315.2,41.3,308.4,41.3
		 M308.4,22c-3.9,0-6.9,3.1-6.9,6.9c0,3.9,3.1,6.9,6.9,6.9c3.9,0,6.9-3.1,6.9-6.9C315.4,25.1,312.3,22,308.4,22"/>
	<path class="st3" d="M120,41.3c-6.8,0-12.4-5.6-12.4-12.4s5.6-12.4,12.4-12.4c6.8,0,12.4,5.6,12.4,12.4S126.8,41.3,120,41.3
		 M120,22c-3.9,0-6.9,3.1-6.9,6.9c0,3.9,3.1,6.9,6.9,6.9c3.9,0,6.9-3.1,6.9-6.9C126.9,25.1,123.8,22,120,22"/>
	<path class="st3" d="M82.3,41.3c-6.8,0-12.4-5.6-12.4-12.4s5.6-12.4,12.4-12.4c6.8,0,12.4,5.6,12.4,12.4S89.1,41.3,82.3,41.3
		 M82.3,22c-3.9,0-6.9,3.1-6.9,6.9c0,3.9,3.1,6.9,6.9,6.9c3.9,0,6.9-3.1,6.9-6.9C89.2,25.1,86.1,22,82.3,22"/>
	<path class="st3" d="M195.7,41.3c-0.4,0-0.8,0-1.1-0.1h-0.2l-0.4-0.1c-6.3-0.8-11-5.9-11-12.3c0-6.8,5.6-12.4,12.4-12.4
		s12.4,5.6,12.4,12.4c0,0.9-0.1,1.5-0.2,2.4h-18.7l0.4,0.9c1,1.9,2.8,3.2,4.9,3.6c0.6,0.1,1.3,0.2,1.8,0.2h0.3
		c1.8-0.1,3.6-0.6,4.6-1.7l0.1-0.1l5.1,2.7l-0.3,0.3c-2.3,2.8-5.5,4.2-9.6,4.3C196,41.3,195.8,41.3,195.7,41.3 M195.3,22
		c-2.9,0-5.4,1.7-6.4,4.3v0.1h13v-0.1C200.7,23.7,198.1,22,195.3,22"/>
	<path class="st3" d="M146,40.8V29v-0.6c0.3-6.6,5.8-11.8,12.4-11.8c4.8,0,9,2.6,11.1,6.9l-4.8,2.6c-1.2-2.4-3.6-4-6.3-4
		c-3.9,0-6.9,3.1-6.9,6.9v11.8L146,40.8L146,40.8L146,40.8z"/>
</g>
</svg>
