<?xml version="1.0" encoding="utf-8"?>
<!-- Generator: Adobe Illustrator 25.0.1, SVG Export Plug-In . SVG Version: 6.00 Build 0)  -->
<svg version="1.1" id="Layer_1" xmlns="http://www.w3.org/2000/svg" xmlns:xlink="http://www.w3.org/1999/xlink" x="0px" y="0px"
	 viewBox="0 0 462.1 94" style="enable-background:new 0 0 462.1 94;" xml:space="preserve">
<style type="text/css">
	.st0{enable-background:new    ;}
	.st1{fill:#019DF4;}
</style>
<g id="Layer_3">
</g>
<g class="st0">
	<path class="st1" d="M5.1,29.7h16.2c7.6,0,12.1,0.9,15.2,3.8c2.4,2.3,3.9,5.9,3.9,10.8c0,6.4-2.7,11.5-8,14l10.2,18.6H30.5
		l-8.7-17.1h-5.9v17.1H5.1V29.7z M20.6,52c3.6,0,5.5-0.5,6.9-1.7c1.4-1.2,2-3.2,2-5.9c0-2.4-0.6-4.1-1.7-5.2
		c-1.4-1.3-3.7-1.7-7.2-1.7h-4.8V52H20.6z"/>
	<path class="st1" d="M48.6,32.8v-0.9c0-3.4,1.8-4.8,5.2-4.8h0.5c3.4,0,5.2,1.4,5.2,4.8v0.9c0,3.4-1.8,4.7-5.2,4.7h-0.5
		C50.4,37.5,48.6,36.1,48.6,32.8z M49,43.1h9.9v33.8H49V43.1z"/>
	<path class="st1" d="M67.4,43.1H76l0.2,2.4c3.7-2.4,8.1-3.4,11.7-3.4c3,0,6.3,0.8,8.1,2.6c2.1,2,2.9,5,2.9,8.9v23.2H89V54.8
		c0-1.7-0.3-2.7-1-3.4c-0.9-0.8-2.3-1.1-4.3-1.1c-1.9,0-4.8,0.5-6.4,1.1v25.5h-9.9V43.1z"/>
	<path class="st1" d="M104.6,84.5c0-2.8,1.6-4.9,4-6.1c-1.2-1-1.7-2.5-1.7-4.4c0-2.8,1.7-5.9,4.5-8.2c-3.2-2.1-5.2-5.5-5.2-10.6
		c0-9,5.7-13,15.2-13c1.1,0,2.2,0.1,3.3,0.2l3.3-8.4c2.6,0.6,5.7,1.9,7.7,3.4l-4.9,6.8c3.6,2,5.8,5.5,5.8,10.9c0,9-5.7,13-15.2,13
		c-1.6,0-3-0.1-4.4-0.3c-0.6,1.1-0.9,2.2-0.9,2.7c0,0.6,0.3,0.9,1,0.9h6.6c6.5,0,10.3,1.1,12.8,3.6c1.7,1.7,2.5,3.9,2.5,7.2
		c0,7-5,11.2-17.2,11.2h-0.6C109.6,93.4,104.6,90.6,104.6,84.5z M122.6,85.9c5,0,7.6-1.2,7.6-3.3c0-2.2-1.4-3-5.9-3h-9.9
		c-0.8,0.8-1,1.7-1,2.6c0,2.5,1.9,3.7,8.1,3.7H122.6z M127.8,55.1c0-3.9-1.8-5.9-6.3-5.9c-4.6,0-6.3,2.1-6.3,5.9c0,3.9,1.8,6,6.3,6
		C126,61.1,127.8,59,127.8,55.1z"/>
	<path class="st1" d="M152.9,74.8l-0.5,2.1h-8.1V27.6h9.9v16.8c2.3-1.4,6.1-2.3,9.3-2.3c7.7,0,12.9,4.6,12.9,17.7
		c0,6.1-1.3,11.2-3.8,14.1c-2.3,2.7-5.4,3.9-9.6,3.9C159.4,77.9,155.7,76.6,152.9,74.8z M166,60c0-8.1-1.9-9.9-6-9.9
		c-2.1,0-4.3,0.3-5.9,0.9v17.5c1.6,0.9,3.9,1.7,5.9,1.7C164.5,70.1,166,67.6,166,60z"/>
	<path class="st1" d="M180.8,66.8c0-3,1-5.8,3-7.7c2.4-2.3,6.1-3.1,12.4-3.1h5.4v-1.1c0-1.9-0.4-3-1.2-3.8c-1.2-1-3-1.4-5.7-1.4
		c-3.2,0-7.1,0.4-9.5,0.9l-0.5-7.2c3.4-0.7,7.9-1.2,12-1.2c5.2,0,9.8,1.1,12.1,3.9c1.7,2,2.6,4.9,2.6,9v21.9h-7.8l-0.8-2.1
		c-2.9,1.9-6.6,3-10.1,3C184.9,77.9,180.8,73.3,180.8,66.8z M201.6,69.3v-7h-5.2c-2.3,0-3.8,0.3-4.7,1.2c-0.6,0.6-1,1.6-1,2.8
		c0,2.5,1.2,4,4.8,4C197.4,70.4,200,69.8,201.6,69.3z"/>
	<path class="st1" d="M220.5,71.1c-1.9-2.8-2.8-6.6-2.8-10.3c0-5.7,1.3-10.3,4.3-13.6c3-3.2,7.9-5,13.5-5c3.1,0,6.7,0.3,9.9,1.2
		l-0.6,7.3c-2.1-0.6-5-1-7.8-1c-3,0-5.4,0.9-6.8,2.4c-1.7,1.8-2.3,4.4-2.3,7.9c0,7,2.8,10.3,9.9,10.3c2.2,0,4.9-0.3,7-0.7l0.8,7.1
		c-3.3,0.8-5.8,1.1-9.5,1.1C230.5,77.9,224.1,76.6,220.5,71.1z"/>
	<path class="st1" d="M251.4,27.6h9.9V56l10.6-12.9h11.3l-11.9,13.5l13.2,20.3h-11.1l-8.5-13.5l-3.5,4.4v9h-9.9V27.6z"/>
	<path class="st1" d="M291.1,66.7V49.5h-5.7v-5.4l5.7-1v-7.5c3-0.9,6.7-1.4,9.9-1.4v9h8.8v6.4H301v15.8c0,3.8,0.8,5.2,4.8,5.2
		c1.4,0,3.6-0.3,4.8-0.4l0.3,7c-2.2,0.5-5.7,0.8-8.6,0.8C293.8,77.9,291.1,74.2,291.1,66.7z"/>
	<path class="st1" d="M314.9,60c0-10.8,5.4-17.9,17.2-17.9c11.7,0,17.2,7,17.2,17.9s-5.5,17.9-17.2,17.9
		C320.4,77.9,314.9,70.8,314.9,60z M339,60c0-7-1.9-10.3-6.9-10.3s-6.9,3.4-6.9,10.3s1.9,10.3,6.9,10.3S339,67,339,60z"/>
	<path class="st1" d="M355.8,43.1h8.6l0.2,2.4c3.7-2.4,8.1-3.4,11.7-3.4c3,0,6.3,0.8,8.1,2.6c2.1,2,2.9,5,2.9,8.9v23.2h-9.9V54.8
		c0-1.7-0.3-2.7-1-3.4c-0.9-0.8-2.3-1.1-4.3-1.1c-1.9,0-4.8,0.5-6.4,1.1v25.5h-9.9V43.1z"/>
	<path class="st1" d="M398.2,73.5c-3.4-3.2-4.6-8.1-4.6-13.5c0-11.9,6.1-17.9,16.4-17.9c10.1,0,15.5,5.3,15.5,17v3.1
		c0,0.6-0.3,0.8-0.8,0.8H404c0.3,5.7,3.8,7.3,10.4,7.3c2.4,0,5.9-0.3,8.4-0.8l0.8,7.2c-3.2,0.6-7.2,1.2-11.4,1.2
		C405.8,77.9,401.1,76.3,398.2,73.5z M415.9,56.6c0-4.3-2-7-5.9-7c-4,0-5.8,2.7-6,7H415.9z"/>
	<path class="st1" d="M430.9,76l0.8-7.3c2.6,0.8,7.2,1.6,10.9,1.6c3.7,0,6.1-0.7,6.1-3.1c0-6-18.4-0.1-18.4-14.1
		c0-6.3,4.6-10.9,14.7-10.9c3.4,0,7.6,0.6,11.2,1.9l-0.8,7.2c-3.5-1-7.7-1.5-10.4-1.5c-3.5,0-5.5,0.8-5.5,2.8
		c0,5.7,18.5,0.3,18.5,14.3c0,7-5.1,11.1-15.2,11.1C438.7,77.9,433.6,77,430.9,76z"/>
</g>
</svg>
