<?xml version="1.0" encoding="utf-8"?>
<!-- Generator: Adobe Illustrator 23.0.1, SVG Export Plug-In . SVG Version: 6.00 Build 0)  -->
<svg version="1.1" id="Layer_1" xmlns="http://www.w3.org/2000/svg" xmlns:xlink="http://www.w3.org/1999/xlink" x="0px" y="0px"
	 width="503px" height="94px" viewBox="0 0 503 94" style="enable-background:new 0 0 503 94;" xml:space="preserve">
<style type="text/css">
	.st0{fill:#E51E26;}
	.st1{clip-path:url(#SVGID_2_);}
	.st2{fill:#C12026;}
	.st3{fill:#FFFFFF;}
	.st4{enable-background:new    ;}
</style>
<circle class="st0" cx="45.8" cy="47.3" r="44.9"/>
<g>
	<g>
		<g>
			<g>
				<defs>
					<circle id="SVGID_1_" cx="45.8" cy="47.3" r="44.9"/>
				</defs>
				<clipPath id="SVGID_2_">
					<use xlink:href="#SVGID_1_"  style="overflow:visible;"/>
				</clipPath>
				<g class="st1">
					
						<rect x="-37.1" y="5.3" transform="matrix(0.687 -0.7267 0.7267 0.687 1.0888 13.7956)" class="st2" width="107.3" height="0.6"/>
					
						<rect x="-34.5" y="7" transform="matrix(0.687 -0.7267 0.7267 0.687 0.6992 16.1561)" class="st2" width="107.3" height="0.6"/>
					
						<rect x="-34.9" y="11.7" transform="matrix(0.687 -0.7267 0.7267 0.687 -2.8442 17.4075)" class="st2" width="107.3" height="0.6"/>
					
						<rect x="-32.1" y="13.4" transform="matrix(0.687 -0.7267 0.7267 0.687 -3.2094 19.9472)" class="st2" width="107.3" height="0.6"/>
					
						<rect x="-31.5" y="17.1" transform="matrix(0.687 -0.7267 0.7267 0.687 -5.6871 21.5427)" class="st2" width="107.3" height="0.6"/>
					
						<rect x="-29" y="18.6" transform="matrix(0.687 -0.7267 0.7267 0.687 -6.0168 23.7918)" class="st2" width="107.3" height="0.6"/>
					
						<rect x="6.7" y="65.1" transform="matrix(0.6869 -0.7268 0.7268 0.6869 -27.4396 67.0513)" class="st2" width="114.7" height="0.6"/>
					
						<rect x="10.7" y="67.7" transform="matrix(0.687 -0.7267 0.7267 0.687 -28.8744 68.8939)" class="st2" width="109.7" height="0.6"/>
					
						<rect x="12.2" y="70.8" transform="matrix(0.687 -0.7267 0.7267 0.687 -30.7579 70.8011)" class="st2" width="109.3" height="0.6"/>
					
						<rect x="15.2" y="73.3" transform="matrix(0.687 -0.7267 0.7267 0.687 -31.9034 73.0858)" class="st2" width="107.3" height="0.6"/>
					
						<rect x="15.9" y="76.9" transform="matrix(0.687 -0.7267 0.7267 0.687 -34.381 74.6813)" class="st2" width="107.3" height="0.6"/>
					
						<rect x="18.3" y="78.4" transform="matrix(0.687 -0.7267 0.7267 0.687 -34.7107 76.9304)" class="st2" width="107.3" height="0.6"/>
					
						<rect x="21.1" y="79.9" transform="matrix(0.687 -0.7267 0.7267 0.687 -34.882 79.4354)" class="st2" width="107.3" height="0.6"/>
					
						<rect x="21.7" y="83.7" transform="matrix(0.687 -0.7267 0.7267 0.687 -37.4452 81.0565)" class="st2" width="107.3" height="0.6"/>
					
						<rect x="24.3" y="85.2" transform="matrix(0.687 -0.7267 0.7267 0.687 -37.7492 83.3913)" class="st2" width="107.3" height="0.6"/>
					
						<rect x="26.5" y="86.6" transform="matrix(0.687 -0.7267 0.7267 0.687 -38.0997 85.4336)" class="st2" width="107.3" height="0.6"/>
					
						<rect x="27.1" y="90.4" transform="matrix(0.687 -0.7267 0.7267 0.687 -40.646 87.0888)" class="st2" width="107.3" height="0.6"/>
					
						<rect x="29.6" y="92" transform="matrix(0.687 -0.7267 0.7267 0.687 -41.0613 89.3636)" class="st2" width="107.3" height="0.6"/>
					
						<rect x="31.5" y="93.9" transform="matrix(0.687 -0.7267 0.7267 0.687 -41.8097 91.4009)" class="st2" width="107.3" height="0.6"/>
					
						<rect x="-29.4" y="23.4" transform="matrix(0.687 -0.7267 0.7267 0.687 -9.5941 25.0601)" class="st2" width="107.3" height="0.6"/>
					
						<rect x="-26.6" y="25" transform="matrix(0.687 -0.7267 0.7267 0.687 -9.9253 27.5829)" class="st2" width="107.3" height="0.6"/>
					
						<rect x="-27.9" y="26.2" transform="matrix(0.6871 -0.7266 0.7266 0.6871 -9.9087 30.0369)" class="st2" width="115.6" height="0.6"/>
					
						<rect x="-25.2" y="28" transform="matrix(0.6871 -0.7266 0.7266 0.6871 -10.3745 32.541)" class="st2" width="115.6" height="0.6"/>
					
						<rect x="-25.5" y="33.1" transform="matrix(0.6871 -0.7266 0.7266 0.6871 -14.1994 33.9204)" class="st2" width="115.6" height="0.6"/>
					
						<rect x="-22.5" y="34.9" transform="matrix(0.6871 -0.7266 0.7266 0.6871 -14.527 36.6557)" class="st2" width="115.6" height="0.6"/>
					
						<rect x="-21.8" y="38.9" transform="matrix(0.6871 -0.7266 0.7266 0.6871 -17.2096 38.4138)" class="st2" width="115.6" height="0.6"/>
					
						<rect x="-19.2" y="40.5" transform="matrix(0.6871 -0.7266 0.7266 0.6871 -17.6154 40.8067)" class="st2" width="115.6" height="0.6"/>
					
						<rect x="-20.3" y="43.8" transform="matrix(0.6871 -0.7266 0.7266 0.6871 -19.4662 42.9396)" class="st2" width="120.8" height="0.6"/>
					
						<rect x="-22.4" y="45.9" transform="matrix(0.6871 -0.7266 0.7266 0.6871 -20.22 45.5167)" class="st2" width="130.3" height="0.6"/>
					
						<rect x="-12.4" y="46.3" transform="matrix(0.6871 -0.7266 0.7266 0.6871 -19.2402 48.5996)" class="st2" width="118.5" height="0.6"/>
					
						<rect x="-12.1" y="49.3" transform="matrix(0.6871 -0.7266 0.7266 0.6871 -20.9096 50.6493)" class="st2" width="120.9" height="0.6"/>
					
						<rect x="-8.2" y="50.4" transform="matrix(0.6871 -0.7266 0.7266 0.6871 -20.7002 53.4184)" class="st2" width="119.8" height="0.6"/>
					
						<rect x="-7.9" y="54" transform="matrix(0.6871 -0.7266 0.7266 0.6871 -22.9329 55.2954)" class="st2" width="121.2" height="0.6"/>
					
						<rect x="-7" y="58" transform="matrix(0.6871 -0.7266 0.7266 0.6871 -25.6349 57.1157)" class="st2" width="120.9" height="0.6"/>
					
						<rect x="-4" y="59.9" transform="matrix(0.6871 -0.7266 0.7266 0.6871 -26.1945 59.6853)" class="st2" width="120.4" height="0.6"/>
					
						<rect x="-5.1" y="63.1" transform="matrix(0.687 -0.7267 0.7267 0.687 -28.059 61.7557)" class="st2" width="125.6" height="0.6"/>
					
						<rect x="-6.5" y="67" transform="matrix(0.6871 -0.7266 0.7266 0.6871 -30.5298 63.6815)" class="st2" width="130.3" height="0.6"/>
				</g>
			</g>
		</g>
	</g>
</g>
<g>
	<path class="st3" d="M13.1,50.4c-1.3,0-2.4-1-2.5-2.3c-0.1-0.5-1-11.9,8.7-23.2c10-11.7,21.5-11.5,22-11.5c1.4,0.1,2.5,1.2,2.5,2.6
		c-0.1,1.4-1.2,2.5-2.6,2.5c-0.1,0-2.5,0-5.8,1.1c-4.5,1.6-8.7,4.4-12.2,8.6c-3.4,4.1-5.8,8.5-6.9,13.3c-0.8,3.6-0.6,6-0.6,6.1
		c0.2,1.4-0.9,2.6-2.3,2.8C13.2,50.4,13.2,50.4,13.1,50.4z"/>
	<path class="st3" d="M23.7,50.1c-0.1,0-0.2,0-0.2,0c-1.4-0.1-2.5-1.3-2.4-2.7c0-0.4,0.8-9.5,6.9-16.3c5.5-6,13.6-6.7,13.9-6.7
		c1.4-0.1,2.6,1,2.7,2.4c0.1,1.4-0.9,2.6-2.4,2.7c-0.1,0-6.4,0.5-10.5,5.1c-5,5.5-5.6,13.2-5.6,13.2C26.2,49,25,50.1,23.7,50.1z"/>
	<path class="st3" d="M41.2,31.9v34.5c0,0-5.4-2-9.5,0.5c-3.5,2.1-5.6,4.8-4.6,8.5c0.8,3.1,3.7,5.6,9.2,5.3c5.8-0.3,9.3-4.7,9.3-9.3
		c0-5.4,0-25.6,0-25.6s5.2-2.1,13.1-3.4c7.6-1.3,11.3-1.2,11.3-1.2l-0.2,18.9c0,0-4.2-1.2-8,0.3c-4.1,1.6-6.2,4.6-5.8,8.4
		c0.4,3.9,3.4,5.1,6.4,5.7c3.8,0.6,9.8-0.5,11.4-5.6c0.9-2.7,0.6-4.7,0.6-8c0-3.3,0-35.2,0-35.2s-11.2,0.3-17,1.5
		C47.7,28.8,41.2,31.9,41.2,31.9z"/>
</g>
<g class="st4">
	<path class="st0" d="M125.7,70.9c-2.6,0-5-0.5-7.2-1.4c-2.2-0.9-4.1-2.3-5.8-4.2c-1.6-1.9-2.9-4.4-3.9-7.4c-0.9-3-1.5-6.7-1.5-10.9
		c0-6,1.1-10.9,3.1-14.8c2.1-3.9,4.5-6.4,7.4-7.7c2.8-1.2,5.4-1.8,7.6-1.8c3.2,0,5.9,0.7,8.2,2c2.3,1.4,4.3,3.4,6,6.4l-3.9,3.2
		c-1.2-1.7-2.2-2.9-3.1-3.8c-0.8-0.8-2-1.5-3.4-2c-1.4-0.5-2.7-0.8-4-0.8c-3.9,0-6.9,1.7-9.1,5c-2.1,3.4-3.3,8-3.3,14.2
		c0,3,0.3,5.7,1,8c0.7,2.4,1.6,4.3,2.7,5.9c1.1,1.6,2.5,2.8,4.1,3.6c1.6,0.8,3.3,1.2,5.1,1.2c2.7,0,4.8-0.4,6.5-1.2
		c1.7-0.8,3.3-2,4.8-3.4l1.9,5c-1.7,1.7-3.9,2.9-6.5,3.7C129.9,70.6,127.7,70.9,125.7,70.9z"/>
	<path class="st0" d="M155.7,70.8c-1.4,0-2.8-0.2-4-0.7c-1.3-0.5-2.5-1.1-3.4-1.9c-1-0.8-1.8-1.9-2.5-3.2c-0.6-1.3-0.9-2.8-0.9-4.5
		c0-3.2,1.1-5.8,3.5-7.7c2.4-1.8,5.1-3.1,8-3.5c3-0.5,5.5-0.8,7.6-0.8v-0.4c0-2.8-0.5-4.7-1.7-6c-1.1-1.2-2.8-1.8-4.8-1.8
		c-1.5,0-3,0.3-4.5,0.8c-1.5,0.6-3,1.5-4.4,2.6l-1.7-3.9c1.2-0.9,2.7-1.8,4.4-2.6s4-1.2,6.6-1.2c3.5,0,6.3,0.9,8.2,2.8
		c2,1.9,3,5.1,3,9.5V70h-4.7l-0.2-2.8c-1.1,1.1-2.4,2.1-3.8,2.7C159,70.5,157.4,70.8,155.7,70.8z M156.3,66.4c1.5,0,2.9-0.3,4.2-1
		c1.3-0.7,2.5-1.5,3.5-2.4V52.7c-3,0.1-5.5,0.4-7.7,0.9s-3.8,1.4-4.7,2.6c-1,1.1-1.5,2.6-1.5,4.3c0,1.5,0.5,2.8,1.3,3.8
		c0.8,1,1.8,1.6,2.6,1.8C154.9,66.3,155.7,66.4,156.3,66.4z"/>
	<path class="st0" d="M185.6,70.7c-2.8,0-4.6-0.8-5.6-2.3s-1.5-3.9-1.5-7V23.8h5.1v38.4c0,1.5,0.2,2.6,0.7,3.3s1.1,1,2.1,1
		c0.8,0,2-0.3,3.3-1l1.1,4c-0.6,0.3-1.4,0.6-2.2,0.8C187.6,70.5,186.6,70.7,185.6,70.7z"/>
	<path class="st0" d="M203.5,70.7c-2.8,0-4.6-0.8-5.6-2.3s-1.5-3.9-1.5-7V23.8h5.1v38.4c0,1.5,0.2,2.6,0.7,3.3s1.1,1,2.1,1
		c0.8,0,2-0.3,3.3-1l1.1,4c-0.6,0.3-1.4,0.6-2.2,0.8C205.6,70.5,204.6,70.7,203.5,70.7z"/>
	<path class="st0" d="M227.3,70.8c-4.7,0-8.5-1.5-11.3-4.4c-2.8-3-4.1-7.4-4.1-13c0-3.8,0.7-7,2.1-9.9c1.4-2.8,3.2-4.7,5.4-5.7
		s4.4-1.6,6.5-1.6c3.3,0,6,0.8,8.2,2.6c2.1,1.7,3.7,3.9,4.4,6.7c0.8,2.8,1.2,5.4,1.2,7.8h-22.9c0,4.1,0.9,7.4,2.7,9.8
		c1.8,2.4,4.4,3.5,7.8,3.5c2.1,0,3.8-0.4,5.4-1.1c1.6-0.7,3-1.6,4.2-2.6l1.3,4.4c-1,1-2.6,1.8-4.7,2.6
		C231.6,70.4,229.5,70.8,227.3,70.8z M217.4,48.9h16.7c-0.1-1.9-0.6-3.5-1.5-4.9c-0.9-1.4-2-2.4-3.3-2.9c-1.3-0.5-2.4-0.8-3.4-0.8
		c-2.1,0-3.9,0.7-5.4,2C219,43.6,217.9,45.8,217.4,48.9z"/>
	<path class="st0" d="M247.7,70V36.9h4.6l0.5,3.4c1.2-1.1,2.5-2.1,3.9-3c1.4-0.8,2.8-1.2,4.4-1.2c0.8,0,1.8,0.2,2.8,0.4l-0.6,4.9
		c-0.8-0.2-1.7-0.3-2.5-0.3c-1.5,0-2.9,0.5-4.4,1.3c-1.4,0.8-2.7,1.8-3.7,2.9V70H247.7z"/>
	<path class="st0" d="M279.8,70.8c-2.4,0-4.2-0.6-5.4-1.9c-1.3-1.3-1.9-3.2-1.9-5.9V41.3H267v-4.4h5.4v-9h5.1v9h8.3v4.4h-8.3v21.1
		c0,1.6,0.3,2.7,0.9,3.2c0.6,0.5,1.4,0.8,2.3,0.8c1.5,0,3-0.6,4.6-1.8l1.4,4.1c-0.8,0.5-1.8,1.1-2.9,1.5
		C282.5,70.6,281.2,70.8,279.8,70.8z"/>
	<path class="st0" d="M304.3,70.8c-4.1,0-7.2-1.1-9-3.2s-2.8-5.4-2.8-9.7v-21h5.1v21.2c0,2.9,0.6,5.1,1.9,6.4c1.3,1.3,3.1,2,5.7,2
		c1.6,0,3.2-0.4,4.8-1.1s2.9-1.6,3.9-2.6V36.9h5.2V70h-4.7l-0.4-2.6c-1.3,1-2.7,1.8-4.1,2.5C308.4,70.5,306.5,70.8,304.3,70.8z"/>
	<path class="st0" d="M329,70V36.9h4.7l0.4,2.6c1.3-1,2.8-1.8,4.5-2.5c1.7-0.6,3.5-1,5.4-1c4.4,0,7.4,1.1,9.2,3.4
		c1.8,2.2,2.6,5.6,2.6,10V70h-5.1V49.3c0-2.8-0.6-5-1.8-6.5c-1.1-1.6-3.1-2.4-5.8-2.4c-1.7,0-3.4,0.4-4.9,1.1
		c-1.6,0.8-2.9,1.6-4.1,2.5v26H329z"/>
	<path class="st0" d="M379.3,70.8c-4.7,0-8.5-1.5-11.3-4.4c-2.8-3-4.1-7.4-4.1-13c0-3.8,0.7-7,2.1-9.9c1.4-2.8,3.2-4.7,5.4-5.7
		c2.1-1.1,4.4-1.6,6.5-1.6c3.3,0,6,0.8,8.2,2.6c2.1,1.7,3.7,3.9,4.4,6.7c0.8,2.8,1.2,5.4,1.2,7.8h-22.9c0,4.1,0.9,7.4,2.7,9.8
		c1.8,2.4,4.4,3.5,7.8,3.5c2.1,0,3.8-0.4,5.4-1.1c1.6-0.7,3-1.6,4.2-2.6l1.3,4.4c-1,1-2.6,1.8-4.7,2.6
		C383.6,70.4,381.5,70.8,379.3,70.8z M369.4,48.9h16.7c-0.1-1.9-0.6-3.5-1.5-4.9c-0.9-1.4-2-2.4-3.3-2.9c-1.3-0.5-2.4-0.8-3.4-0.8
		c-2.1,0-3.9,0.7-5.4,2C371,43.6,369.9,45.8,369.4,48.9z"/>
	<path class="st0" d="M409,70.8c-1.9,0-3.7-0.2-5.2-0.7c-1.5-0.5-2.8-1-3.8-1.6c-1-0.6-1.7-1.1-2.1-1.5l1.8-4.3
		c1,0.8,2.3,1.8,3.8,2.5c1.5,0.8,3.4,1.2,5.4,1.2c2.1,0,3.8-0.4,4.8-1.2c1.1-0.8,1.6-2.1,1.6-4c0-2.3-2.8-4.5-8.2-6.7
		c-3.1-1.1-5.4-2.5-6.7-3.8c-1.3-1.4-1.9-3.3-1.9-5.6c0-2.7,0.9-4.9,2.8-6.6c1.8-1.7,4.4-2.5,7.4-2.5c2.5,0,4.6,0.4,6.3,1.1
		c1.7,0.8,3.2,1.7,4.3,2.8l-2.1,3.8c-1.1-1.1-2.4-1.9-3.8-2.5c-1.4-0.6-2.9-0.9-4.7-0.9c-1.9,0-3.4,0.5-4.2,1.4s-1.3,1.9-1.3,3.1
		c0,2.1,2.5,4.1,7.7,6c2.9,1.1,5.1,2.4,6.7,3.8c1.5,1.5,2.3,3.6,2.3,6.3c0,2.4-0.6,4.3-1.8,5.8c-1.1,1.5-2.6,2.5-4.4,3.1
		C412.3,70.5,410.6,70.8,409,70.8z"/>
</g>
</svg>
