<?xml version="1.0" encoding="utf-8"?>
<!-- Generator: Adobe Illustrator 23.0.1, SVG Export Plug-In . SVG Version: 6.00 Build 0)  -->
<svg version="1.1" id="Calque_1" xmlns="http://www.w3.org/2000/svg" xmlns:xlink="http://www.w3.org/1999/xlink" x="0px" y="0px"
	 width="400px" height="99px" viewBox="0 0 400 99" style="enable-background:new 0 0 400 99;" xml:space="preserve">
<style type="text/css">
	.st0{fill:#FFFFFF;}
	.st1{font-family:'MyriadPro-Regular';}
	.st2{font-size:18.1818px;}
	.st3{fill-rule:evenodd;clip-rule:evenodd;fill:#FFFFFF;}
</style>
<title>logo</title>
<text transform="matrix(1 0 0 1 109.2993 97.4541)" class="st0 st1 st2">For Vodafone Subscribers</text>
<path class="st3" d="M243.4,37.4c0,20.1-16.3,36.4-36.4,36.4s-36.4-16.3-36.4-36.4c0-20.1,16.3-36.4,36.4-36.4
	S243.4,17.3,243.4,37.4L243.4,37.4z M186.6,37.3c0,11.2,9.1,20.3,20.3,20.3c11.2,0,20.3-9.1,20.3-20.3c0-11.2-9.1-20.3-20.3-20.3
	c3.1-10.3,10.5-14.4,10.5-14.4c-15.2,0-28.3,12.6-30.8,28.6C186.4,32.5,186.6,37.3,186.6,37.3L186.6,37.3z"/>
</svg>
